<svg id="Grupo_192" data-name="Grupo 192" xmlns="http://www.w3.org/2000/svg" xmlns:xlink="http://www.w3.org/1999/xlink" width="104" height="104" viewBox="0 0 104 104">
  <defs>
    <clipPath id="clip-path">
      <rect id="Rectángulo_127" data-name="Rectángulo 127" width="104" height="104" fill="none"/>
    </clipPath>
    <clipPath id="clip-path-2">
      <path id="Trazado_1" data-name="Trazado 1" d="M58.356.6A24.821,24.821,0,0,1,43.922.848,11.9,11.9,0,0,0,31.807,4.312a24.828,24.828,0,0,1-12.379,7.428A11.9,11.9,0,0,0,10.669,20.8,24.822,24.822,0,0,1,3.661,33.419,11.9,11.9,0,0,0,.605,45.644,24.836,24.836,0,0,1,.848,60.079,11.888,11.888,0,0,0,4.313,72.193a24.826,24.826,0,0,1,7.428,12.381A11.891,11.891,0,0,0,20.8,93.333a24.829,24.829,0,0,1,12.622,7.006A11.884,11.884,0,0,0,45.644,103.4a24.843,24.843,0,0,1,14.435-.242,11.887,11.887,0,0,0,12.113-3.465A24.867,24.867,0,0,1,84.573,92.26a11.89,11.89,0,0,0,8.76-9.057,24.84,24.84,0,0,1,7.006-12.622,11.887,11.887,0,0,0,3.056-12.224,24.847,24.847,0,0,1-.242-14.435,11.89,11.89,0,0,0-3.465-12.114,24.835,24.835,0,0,1-7.427-12.38,11.889,11.889,0,0,0-9.057-8.76A24.819,24.819,0,0,1,70.582,3.661,11.924,11.924,0,0,0,61.869,0a9.944,9.944,0,0,0-3.513.6" transform="translate(0 0)" fill="none"/>
    </clipPath>
    <linearGradient id="linear-gradient" x1="0.008" y1="0.992" x2="0.014" y2="0.992" gradientUnits="objectBoundingBox">
      <stop offset="0" stop-color="#eebe47"/>
      <stop offset="0.12" stop-color="#f8db76"/>
      <stop offset="0.21" stop-color="#ffee96"/>
      <stop offset="0.446" stop-color="#a2621e"/>
      <stop offset="0.667" stop-color="#eea54c"/>
      <stop offset="1" stop-color="#eebe47"/>
    </linearGradient>
    <clipPath id="clip-path-3">
      <path id="Trazado_2" data-name="Trazado 2" d="M5.275,53.976a48.7,48.7,0,1,0,48.7-48.7,48.7,48.7,0,0,0-48.7,48.7" transform="translate(-5.275 -5.277)" fill="none"/>
    </clipPath>
    <linearGradient id="linear-gradient-2" x1="0.122" y1="0.878" x2="0.127" y2="0.878" xlink:href="#linear-gradient"/>
    <clipPath id="clip-path-4">
      <path id="Trazado_3" data-name="Trazado 3" d="M6.447,54.415A47.967,47.967,0,1,0,54.413,6.449,47.966,47.966,0,0,0,6.447,54.415" transform="translate(-6.447 -6.449)" fill="none"/>
    </clipPath>
    <radialGradient id="radial-gradient" cx="0.329" cy="0.145" r="0.967" gradientTransform="matrix(1, 0, 0, -1, 0, 2.084)" gradientUnits="objectBoundingBox">
      <stop offset="0" stop-color="#304053"/>
      <stop offset="0.226" stop-color="#2c3c4f"/>
      <stop offset="0.516" stop-color="#0d1d30"/>
      <stop offset="1" stop-color="#060d29"/>
    </radialGradient>
    <clipPath id="clip-path-5">
      <path id="Trazado_4" data-name="Trazado 4" d="M9.234,55.458A46.223,46.223,0,1,0,55.457,9.236,46.222,46.222,0,0,0,9.234,55.458" transform="translate(-9.234 -9.236)" fill="none"/>
    </clipPath>
    <linearGradient id="linear-gradient-3" x1="0.101" y1="0.899" x2="0.105" y2="0.899" xlink:href="#linear-gradient"/>
    <clipPath id="clip-path-6">
      <path id="Trazado_5" data-name="Trazado 5" d="M10.723,56.015A45.291,45.291,0,1,0,56.014,10.724,45.29,45.29,0,0,0,10.723,56.015" transform="translate(-10.723 -10.724)" fill="none"/>
    </clipPath>
    <linearGradient id="linear-gradient-4" x1="0.086" y1="0.914" x2="0.091" y2="0.914" xlink:href="#linear-gradient"/>
    <clipPath id="clip-path-7">
      <path id="Trazado_6" data-name="Trazado 6" d="M31.816,63.912A32.094,32.094,0,1,0,63.91,31.819,32.095,32.095,0,0,0,31.816,63.912" transform="translate(-31.816 -31.819)" fill="none"/>
    </clipPath>
    <radialGradient id="radial-gradient-2" cx="0.161" cy="0.317" r="0.924" gradientTransform="matrix(1, 0, 0, -1, 0, 2.62)" xlink:href="#radial-gradient"/>
    <clipPath id="clip-path-8">
      <path id="Trazado_7" data-name="Trazado 7" d="M34,64.73A30.728,30.728,0,1,0,64.729,34,30.728,30.728,0,0,0,34,64.73" transform="translate(-34.002 -34.003)" fill="none"/>
    </clipPath>
    <linearGradient id="linear-gradient-5" x1="-0.112" y1="1.111" x2="-0.104" y2="1.111" xlink:href="#linear-gradient"/>
    <clipPath id="clip-path-10">
      <rect id="Rectángulo_34" data-name="Rectángulo 34" width="54.831" height="54.786" fill="none"/>
    </clipPath>
    <clipPath id="clip-path-11">
      <path id="Trazado_8" data-name="Trazado 8" d="M45.628,88.789a121.221,121.221,0,0,1,43.205-43.1,30.721,30.721,0,1,0-43.205,43.1" transform="translate(-34.002 -34.003)" fill="none"/>
    </clipPath>
    <radialGradient id="radial-gradient-3" cx="1.042" cy="0.49" r="1.813" gradientTransform="matrix(0.999, 0, 0, -1, 0, 3.02)" gradientUnits="objectBoundingBox">
      <stop offset="0" stop-color="#ffc94c"/>
      <stop offset="0.14" stop-color="#a2621e"/>
      <stop offset="0.163" stop-color="#955a1b"/>
      <stop offset="0.25" stop-color="#6e4214"/>
      <stop offset="0.343" stop-color="#4c2e0e"/>
      <stop offset="0.441" stop-color="#301d08"/>
      <stop offset="0.546" stop-color="#1a1004"/>
      <stop offset="0.663" stop-color="#0b0702"/>
      <stop offset="0.798" stop-color="#020100"/>
      <stop offset="1"/>
    </radialGradient>
    <clipPath id="clip-path-12">
      <rect id="Rectángulo_80" data-name="Rectángulo 80" width="85.028" height="85.336" fill="none"/>
    </clipPath>
    <clipPath id="clip-path-13">
      <path id="Trazado_9" data-name="Trazado 9" d="M39.525,41.4l-5.14-5.163,1.263-1.257a2.023,2.023,0,0,1,.554-.4,1.4,1.4,0,0,1,.547-.147,1.469,1.469,0,0,1,.532.079,2.021,2.021,0,0,1,.506.252,3.3,3.3,0,0,1,.466.394,3.894,3.894,0,0,1,.4.469,2.275,2.275,0,0,1,.28.515,1.535,1.535,0,0,1,.114.553,1.421,1.421,0,0,1-.131.572,1.971,1.971,0,0,1-.419.587l-.8.8,2.285,2.3Zm-2.193-3.115.861-.851a.827.827,0,0,0,.285-.812,2.343,2.343,0,0,0-.673-1.006,1.931,1.931,0,0,0-.957-.606.864.864,0,0,0-.785.285l-.858.855Z" transform="translate(-34.385 -34.424)" fill="none"/>
    </clipPath>
    <linearGradient id="linear-gradient-6" x1="-2.22" y1="9.628" x2="-2.15" y2="9.628" xlink:href="#linear-gradient"/>
    <clipPath id="clip-path-14">
      <path id="Trazado_10" data-name="Trazado 10" d="M44.858,36.441,40.4,30.673l1.538-1.188a1.888,1.888,0,0,1,.576-.315,1.157,1.157,0,0,1,.994.1,2.056,2.056,0,0,1,.429.316,3.812,3.812,0,0,1,.39.44,1.654,1.654,0,0,1,.275,2.018l3.114,2.19-.543.419-3.014-2.165-.97.748,2.174,2.815Zm-1.98-3.617,1.026-.793a.909.909,0,0,0,.3-.372.685.685,0,0,0,.036-.422,1.688,1.688,0,0,0-.154-.417,3.037,3.037,0,0,0-.278-.423,3.45,3.45,0,0,0-.274-.317,1.808,1.808,0,0,0-.29-.236.914.914,0,0,0-.312-.137.708.708,0,0,0-.328.011.948.948,0,0,0-.349.179l-1.025.791Z" transform="translate(-40.405 -29.101)" fill="none"/>
    </clipPath>
    <linearGradient id="linear-gradient-7" x1="-2.32" y1="8.509" x2="-2.259" y2="8.509" xlink:href="#linear-gradient"/>
    <clipPath id="clip-path-15">
      <path id="Trazado_11" data-name="Trazado 11" d="M51.136,32,47.368,25.76l2.174-1.313.267.442-1.623.981,1.427,2.362,1.159-.7.253.416-1.16.7,1.555,2.573,1.624-.98.267.442Z" transform="translate(-47.368 -24.447)" fill="none"/>
    </clipPath>
    <linearGradient id="linear-gradient-8" x1="-2.895" y1="9.662" x2="-2.83" y2="9.662" xlink:href="#linear-gradient"/>
    <clipPath id="clip-path-16">
      <path id="Trazado_12" data-name="Trazado 12" d="M56.287,28.671,53.358,22l.725-.318,3.816,5.2q-.261-1.236-.588-3.046t-.654-3.28l.724-.318L60.31,26.9l-.522.229L57.443,21.8l1.111,5.88-.512.224-3.574-4.793,2.342,5.334Z" transform="translate(-53.358 -20.233)" fill="none"/>
    </clipPath>
    <linearGradient id="linear-gradient-9" x1="-2.876" y1="8.711" x2="-2.818" y2="8.711" xlink:href="#linear-gradient"/>
    <clipPath id="clip-path-17">
      <rect id="Rectángulo_40" data-name="Rectángulo 40" width="0.644" height="7.286" transform="matrix(0.954, -0.3, 0.3, 0.954, 0, 0.193)" fill="none"/>
    </clipPath>
    <linearGradient id="linear-gradient-10" x1="-5.006" y1="14.121" x2="-4.922" y2="14.121" xlink:href="#linear-gradient"/>
    <clipPath id="clip-path-18">
      <path id="Trazado_13" data-name="Trazado 13" d="M67.966,22.947l-1.134-5.376.63-.134,1.165,5.522a1.334,1.334,0,0,0,.469.855,1.252,1.252,0,0,0,1,.1,1.154,1.154,0,0,0,.822-.489,1.377,1.377,0,0,0,.073-.968l-1.164-5.521.626-.131,1.134,5.376A1.646,1.646,0,0,1,70.2,24.423a2.663,2.663,0,0,1-.772.059,1.553,1.553,0,0,1-.586-.156,1.332,1.332,0,0,1-.42-.339,1.787,1.787,0,0,1-.285-.468,3.181,3.181,0,0,1-.173-.572" transform="translate(-66.832 -16.808)" fill="none"/>
    </clipPath>
    <linearGradient id="linear-gradient-11" x1="-4.334" y1="10.909" x2="-4.266" y2="10.909" xlink:href="#linear-gradient"/>
    <clipPath id="clip-path-19">
      <path id="Trazado_14" data-name="Trazado 14" d="M76.652,23.387l-.447-7.272.79-.048,1.789,6.191q.181-1.25.5-3.061t.516-3.3l.791-.048.448,7.271-.571.035-.359-5.818-.984,5.9-.559.034-1.7-5.731.358,5.815Z" transform="translate(-76.205 -15.845)" fill="none"/>
    </clipPath>
    <linearGradient id="linear-gradient-12" x1="-5.105" y1="11.284" x2="-5.035" y2="11.284" xlink:href="#linear-gradient"/>
    <clipPath id="clip-path-20">
      <path id="Trazado_15" data-name="Trazado 15" d="M89.108,21.368l.424-3.022a4.245,4.245,0,0,1,.155-.693,2.365,2.365,0,0,1,.275-.575,1.625,1.625,0,0,1,.407-.43,1.491,1.491,0,0,1,.567-.234,2.172,2.172,0,0,1,.746-.011,2.216,2.216,0,0,1,.713.215,1.492,1.492,0,0,1,.482.382,1.627,1.627,0,0,1,.272.526,2.375,2.375,0,0,1,.106.628,3.978,3.978,0,0,1-.041.708l-.424,3.022q-.211,1.51-1.138,1.867.139.165.233.263a1.747,1.747,0,0,0,.253.213,1.086,1.086,0,0,0,.33.164l-.068.478a1.528,1.528,0,0,1-.618-.356,3.678,3.678,0,0,1-.554-.668,2.48,2.48,0,0,1-.588-.013q-1.84-.26-1.531-2.464m3.024.57.465-3.307q.215-1.547-.986-1.717t-1.421,1.378L89.725,21.6q-.218,1.552.985,1.72t1.421-1.383" transform="translate(-89.063 -16.377)" fill="none"/>
    </clipPath>
    <linearGradient id="linear-gradient-13" x1="-5.623" y1="10.945" x2="-5.557" y2="10.945" xlink:href="#linear-gradient"/>
    <clipPath id="clip-path-21">
      <path id="Trazado_16" data-name="Trazado 16" d="M96.861,22.943l1.5-5.286.619.174-1.538,5.43a1.341,1.341,0,0,0,.019.975,1.261,1.261,0,0,0,.838.557,1.153,1.153,0,0,0,.956-.051,1.38,1.38,0,0,0,.514-.822L101.3,18.49l.616.173-1.5,5.288a1.645,1.645,0,0,1-2.265,1.338,2.669,2.669,0,0,1-.713-.307,1.591,1.591,0,0,1-.447-.41,1.349,1.349,0,0,1-.213-.5,1.808,1.808,0,0,1-.035-.546,3.316,3.316,0,0,1,.113-.586" transform="translate(-96.741 -17.657)" fill="none"/>
    </clipPath>
    <linearGradient id="linear-gradient-14" x1="-6.154" y1="10.487" x2="-6.088" y2="10.487" xlink:href="#linear-gradient"/>
    <clipPath id="clip-path-22">
      <path id="Trazado_17" data-name="Trazado 17" d="M103.678,27.49l-.595-.255,4.189-6.132.771.33L106.5,28.7l-.6-.257.41-1.887-1.545-.661Zm1.328-1.96,1.4.6.984-4.248Z" transform="translate(-103.083 -21.103)" fill="none"/>
    </clipPath>
    <linearGradient id="linear-gradient-15" x1="-6.897" y1="10.727" x2="-6.828" y2="10.727" xlink:href="#linear-gradient"/>
    <clipPath id="clip-path-23">
      <path id="Trazado_18" data-name="Trazado 18" d="M109.767,30.121l3.564-6.355.561.315-3.31,5.9,1.776,1-.253.45Z" transform="translate(-109.767 -23.766)" fill="none"/>
    </clipPath>
    <linearGradient id="linear-gradient-16" x1="-7.712" y1="11.327" x2="-7.639" y2="11.327" xlink:href="#linear-gradient"/>
    <clipPath id="clip-path-24">
      <rect id="Rectángulo_48" data-name="Rectángulo 48" width="7.285" height="0.643" transform="matrix(0.553, -0.833, 0.833, 0.553, 0, 6.068)" fill="none"/>
    </clipPath>
    <linearGradient id="linear-gradient-17" x1="-8.87" y1="11.698" x2="-8.791" y2="11.698" xlink:href="#linear-gradient"/>
    <clipPath id="clip-path-25">
      <path id="Trazado_19" data-name="Trazado 19" d="M117.8,35.1l4.155-5.343-1.119-.872.317-.407,2.757,2.143-.317.409-1.13-.878L118.313,35.5Z" transform="translate(-117.804 -28.482)" fill="none"/>
    </clipPath>
    <linearGradient id="linear-gradient-18" x1="-7.775" y1="9.598" x2="-7.708" y2="9.598" xlink:href="#linear-gradient"/>
    <clipPath id="clip-path-26">
      <path id="Trazado_20" data-name="Trazado 20" d="M122.172,38.951l1.56-1.635,2.316-4.736.472.45c-.1.185-.239.449-.416.791s-.357.689-.539,1.044l-.521,1.02q-.249.491-.409.807L124.48,37q.882-.534,1.971-1.16t1.874-1.094l.455.435L124.2,37.76,122.639,39.4Z" transform="translate(-122.172 -32.58)" fill="none"/>
    </clipPath>
    <linearGradient id="linear-gradient-19" x1="-7.973" y1="9.062" x2="-7.906" y2="9.062" xlink:href="#linear-gradient"/>
    <clipPath id="clip-path-27">
      <path id="Trazado_21" data-name="Trazado 21" d="M35.549,128.806l4.874-5.349,1.308,1.192a2.042,2.042,0,0,1,.428.529,1.392,1.392,0,0,1,.173.535,1.446,1.446,0,0,1-.053.532,2.009,2.009,0,0,1-.226.514,3.22,3.22,0,0,1-.368.482,3.9,3.9,0,0,1-.446.423,2.282,2.282,0,0,1-.5.3,1.526,1.526,0,0,1-.542.14,1.367,1.367,0,0,1-.576-.1,1.925,1.925,0,0,1-.6-.386l-.832-.76-2.168,2.377Zm2.985-2.327.886.814a.824.824,0,0,0,.821.243,2.324,2.324,0,0,0,.965-.716,1.924,1.924,0,0,0,.556-.979.861.861,0,0,0-.322-.765l-.889-.81Z" transform="translate(-35.549 -123.457)" fill="none"/>
    </clipPath>
    <linearGradient id="linear-gradient-20" x1="-2.45" y1="3.181" x2="-2.378" y2="3.181" xlink:href="#linear-gradient"/>
    <clipPath id="clip-path-28">
      <path id="Trazado_22" data-name="Trazado 22" d="M41.446,133.64l4.221-5.879,1.567,1.126a1.867,1.867,0,0,1,.464.457,1.25,1.25,0,0,1,.209.478,1.3,1.3,0,0,1-.017.5,2.125,2.125,0,0,1-.18.5,3.707,3.707,0,0,1-.307.5,1.644,1.644,0,0,1-1.842.836l-1.2,3.586-.553-.4,1.2-3.485-.987-.709-2.061,2.869Zm2.879-2.913,1.044.75a.921.921,0,0,0,.44.181.684.684,0,0,0,.412-.088,1.606,1.606,0,0,0,.354-.264,2.978,2.978,0,0,0,.322-.384,3.276,3.276,0,0,0,.224-.352,1.827,1.827,0,0,0,.143-.343.9.9,0,0,0,.041-.335.719.719,0,0,0-.1-.311.987.987,0,0,0-.269-.281l-1.046-.75Z" transform="translate(-41.446 -127.761)" fill="none"/>
    </clipPath>
    <linearGradient id="linear-gradient-21" x1="-2.341" y1="2.516" x2="-2.28" y2="2.516" xlink:href="#linear-gradient"/>
    <clipPath id="clip-path-29">
      <path id="Trazado_23" data-name="Trazado 23" d="M48.174,137.976l3.581-6.288,2.193,1.248-.255.446-1.637-.932L50.7,134.832l1.169.666-.239.421-1.17-.666-1.477,2.593,1.637.933-.254.445Z" transform="translate(-48.174 -131.688)" fill="none"/>
    </clipPath>
    <linearGradient id="linear-gradient-22" x1="-2.979" y1="2.455" x2="-2.913" y2="2.455" xlink:href="#linear-gradient"/>
    <clipPath id="clip-path-30">
      <path id="Trazado_24" data-name="Trazado 24" d="M53.821,140.874l2.8-6.672.724.3-1.132,6.3q.713-1.032,1.792-2.506t1.914-2.715l.724.3-2.8,6.672-.522-.22L59.562,137l-3.473,4.821-.513-.215,1.007-5.853-2.24,5.335Z" transform="translate(-53.821 -134.202)" fill="none"/>
    </clipPath>
    <linearGradient id="linear-gradient-23" x1="-2.94" y1="2.016" x2="-2.882" y2="2.016" xlink:href="#linear-gradient"/>
    <clipPath id="clip-path-31">
      <rect id="Rectángulo_56" data-name="Rectángulo 56" width="7.237" height="0.638" transform="translate(0 6.922) rotate(-73.036)" fill="none"/>
    </clipPath>
    <linearGradient id="linear-gradient-24" x1="-5.07" y1="2.759" x2="-4.984" y2="2.759" xlink:href="#linear-gradient"/>
    <clipPath id="clip-path-32">
      <path id="Trazado_25" data-name="Trazado 25" d="M67.163,143.521l1.119-5.342.626.131L67.758,143.8a1.309,1.309,0,0,0,.086.964,1.237,1.237,0,0,0,.866.494,1.145,1.145,0,0,0,.944-.116,1.365,1.365,0,0,0,.453-.85l1.15-5.486.622.131-1.12,5.342a1.634,1.634,0,0,1-2.154,1.48,2.6,2.6,0,0,1-.726-.255,1.583,1.583,0,0,1-.472-.375,1.375,1.375,0,0,1-.246-.477,1.806,1.806,0,0,1-.071-.539,3.038,3.038,0,0,1,.073-.589" transform="translate(-67.09 -138.179)" fill="none"/>
    </clipPath>
    <linearGradient id="linear-gradient-25" x1="-4.354" y1="2.103" x2="-4.286" y2="2.103" xlink:href="#linear-gradient"/>
    <clipPath id="clip-path-33">
      <path id="Trazado_26" data-name="Trazado 26" d="M75.427,146.855l.52-7.218.783.056.944,6.332q.343-1.206.9-2.948t.947-3.184l.783.057-.519,7.217-.567-.04.416-5.775-1.749,5.679-.554-.04-.918-5.867-.415,5.771Z" transform="translate(-75.427 -139.637)" fill="none"/>
    </clipPath>
    <linearGradient id="linear-gradient-26" x1="-5.044" y1="2.033" x2="-4.974" y2="2.033" xlink:href="#linear-gradient"/>
    <clipPath id="clip-path-34">
      <path id="Trazado_27" data-name="Trazado 27" d="M88.119,144.917l-.342-3.012a3.939,3.939,0,0,1-.023-.7,2.319,2.319,0,0,1,.123-.622,1.542,1.542,0,0,1,.284-.514,1.449,1.449,0,0,1,.487-.367,2.413,2.413,0,0,1,1.454-.166,1.483,1.483,0,0,1,.557.248,1.6,1.6,0,0,1,.392.439,2.328,2.328,0,0,1,.258.578,3.926,3.926,0,0,1,.136.691l.343,3.012a2.081,2.081,0,0,1-.631,2.078c.116.082.213.148.288.2a1.624,1.624,0,0,0,.3.143,1.126,1.126,0,0,0,.358.076l.054.476a1.539,1.539,0,0,1-.684-.189,3.713,3.713,0,0,1-.7-.5,2.438,2.438,0,0,1-.569.132q-1.835.209-2.083-1.989m3.049-.2-.375-3.3c-.116-1.027-.576-1.5-1.374-1.406s-1.141.649-1.024,1.679l.375,3.3q.175,1.547,1.374,1.409t1.024-1.682" transform="translate(-87.747 -139.485)" fill="none"/>
    </clipPath>
    <linearGradient id="linear-gradient-27" x1="-5.808" y1="2.034" x2="-5.739" y2="2.034" xlink:href="#linear-gradient"/>
    <clipPath id="clip-path-35">
      <path id="Trazado_28" data-name="Trazado 28" d="M95.842,143.9l-1.3-5.3.621-.151L96.5,143.89a1.324,1.324,0,0,0,.494.833,1.245,1.245,0,0,0,1,.071,1.144,1.144,0,0,0,.8-.512,1.37,1.37,0,0,0,.042-.962l-1.33-5.445.616-.151,1.3,5.3a1.635,1.635,0,0,1-1.3,2.266,2.6,2.6,0,0,1-.765.083,1.544,1.544,0,0,1-.587-.136,1.34,1.34,0,0,1-.428-.323,1.779,1.779,0,0,1-.3-.456,3,3,0,0,1-.19-.562" transform="translate(-94.547 -137.725)" fill="none"/>
    </clipPath>
    <linearGradient id="linear-gradient-28" x1="-6.187" y1="2.107" x2="-6.119" y2="2.107" xlink:href="#linear-gradient"/>
    <clipPath id="clip-path-36">
      <path id="Trazado_29" data-name="Trazado 29" d="M105.128,143.518l-.6.225-1.2-7.277.781-.292,3.877,6.274-.607.227-1-1.637-1.563.586Zm-.394-2.319,1.417-.531-2.208-3.726Z" transform="translate(-103.324 -136.174)" fill="none"/>
    </clipPath>
    <linearGradient id="linear-gradient-29" x1="-7.063" y1="2.321" x2="-6.993" y2="2.321" xlink:href="#linear-gradient"/>
    <clipPath id="clip-path-37">
      <path id="Trazado_30" data-name="Trazado 30" d="M110.891,141.2,107.7,134.7l.574-.282,2.967,6.033,1.816-.893.226.461Z" transform="translate(-107.698 -134.422)" fill="none"/>
    </clipPath>
    <linearGradient id="linear-gradient-30" x1="-7.503" y1="2.439" x2="-7.432" y2="2.439" xlink:href="#linear-gradient"/>
    <clipPath id="clip-path-38">
      <rect id="Rectángulo_64" data-name="Rectángulo 64" width="0.64" height="7.236" transform="matrix(0.864, -0.504, 0.504, 0.864, 0, 0.322)" fill="none"/>
    </clipPath>
    <linearGradient id="linear-gradient-31" x1="-8.799" y1="2.99" x2="-8.718" y2="2.99" xlink:href="#linear-gradient"/>
    <clipPath id="clip-path-39">
      <path id="Trazado_31" data-name="Trazado 31" d="M119.031,135.707l-3.776-5.563-1.166.791-.287-.424,2.869-1.948.288.425-1.176.8,3.776,5.563Z" transform="translate(-113.802 -128.562)" fill="none"/>
    </clipPath>
    <linearGradient id="linear-gradient-32" x1="-7.579" y1="2.751" x2="-7.511" y2="2.751" xlink:href="#linear-gradient"/>
    <clipPath id="clip-path-40">
      <path id="Trazado_32" data-name="Trazado 32" d="M123.907,131.956l-1.427-1.732-4.394-2.847.5-.412q.258.18.731.5t.964.656q.492.331.945.634l.746.5.29.192q-.42-.933-.91-2.081t-.856-1.978l.484-.4,1.994,4.826,1.426,1.733Z" transform="translate(-118.086 -124.991)" fill="none"/>
    </clipPath>
    <linearGradient id="linear-gradient-33" x1="-7.735" y1="2.92" x2="-7.668" y2="2.92" xlink:href="#linear-gradient"/>
    <clipPath id="clip-path-41">
      <path id="Trazado_33" data-name="Trazado 33" d="M22.538,83.754l-2.271-1.346L18,83.756l.577-2.576-1.984-1.744,2.629-.247,1.046-2.426,1.047,2.424,2.63.245-1.982,1.746Z" transform="translate(-16.589 -76.763)" fill="none"/>
    </clipPath>
    <linearGradient id="linear-gradient-34" x1="-0.906" y1="5.712" x2="-0.843" y2="5.712" xlink:href="#linear-gradient"/>
    <clipPath id="clip-path-42">
      <path id="Trazado_34" data-name="Trazado 34" d="M146.695,83.754l-2.272-1.346-2.272,1.348.578-2.576-1.984-1.744,2.628-.247,1.047-2.426,1.048,2.424,2.629.245-1.982,1.746Z" transform="translate(-140.745 -76.763)" fill="none"/>
    </clipPath>
    <linearGradient id="linear-gradient-35" x1="-8.677" y1="5.712" x2="-8.614" y2="5.712" xlink:href="#linear-gradient"/>
    <clipPath id="clip-path-43">
      <path id="Trazado_35" data-name="Trazado 35" d="M49.634,98.443a3.672,3.672,0,0,1-3.687-3.674V86.361a3.681,3.681,0,1,1,7.362,0v1.758H50.9V86.313a1.345,1.345,0,0,0-1.34-1.341,1.273,1.273,0,0,0-.94.394,1.3,1.3,0,0,0-.387.947v8.431a1.323,1.323,0,0,0,1.327,1.328,1.3,1.3,0,0,0,.946-.388,1.268,1.268,0,0,0,.394-.94V92.618h2.409v2.151a3.671,3.671,0,0,1-3.674,3.674" transform="translate(-45.947 -82.675)" fill="none"/>
    </clipPath>
    <linearGradient id="linear-gradient-36" x1="-1.402" y1="3.4" x2="-1.365" y2="3.4" xlink:href="#linear-gradient"/>
    <clipPath id="clip-path-44">
      <path id="Trazado_36" data-name="Trazado 36" d="M63.08,91.823v6.526H60.758V82.95H63.08v6.539h2.8V82.95h2.323v15.4H65.884V91.823Z" transform="translate(-60.758 -82.95)" fill="none"/>
    </clipPath>
    <linearGradient id="linear-gradient-37" x1="-1.983" y1="3.43" x2="-1.946" y2="3.43" xlink:href="#linear-gradient"/>
    <clipPath id="clip-path-45">
      <path id="Trazado_37" data-name="Trazado 37" d="M79.619,82.635a3.683,3.683,0,0,1,3.687,3.687v8.407a3.681,3.681,0,1,1-7.362,0V86.322a3.683,3.683,0,0,1,3.676-3.687m1.266,3.638a1.322,1.322,0,0,0-1.328-1.328,1.3,1.3,0,0,0-.946.387,1.269,1.269,0,0,0-.393.94V94.7a1.271,1.271,0,0,0,.393.94,1.3,1.3,0,0,0,.946.387A1.321,1.321,0,0,0,80.884,94.7Z" transform="translate(-75.943 -82.635)" fill="none"/>
    </clipPath>
    <linearGradient id="linear-gradient-38" x1="-2.501" y1="3.4" x2="-2.464" y2="3.4" xlink:href="#linear-gradient"/>
    <clipPath id="clip-path-46">
      <rect id="Rectángulo_73" data-name="Rectángulo 73" width="2.323" height="15.399" fill="none"/>
    </clipPath>
    <linearGradient id="linear-gradient-39" x1="-3.724" y1="4.523" x2="-3.678" y2="4.523" xlink:href="#linear-gradient"/>
    <clipPath id="clip-path-47">
      <path id="Trazado_38" data-name="Trazado 38" d="M101.672,98.443a3.672,3.672,0,0,1-3.688-3.674V86.361a3.681,3.681,0,1,1,7.362,0v1.758h-2.409V86.313a1.344,1.344,0,0,0-1.34-1.341,1.27,1.27,0,0,0-.94.394,1.3,1.3,0,0,0-.388.947v8.431a1.324,1.324,0,0,0,1.328,1.328,1.3,1.3,0,0,0,.947-.388,1.272,1.272,0,0,0,.394-.94V92.618h2.409v2.151a3.672,3.672,0,0,1-3.674,3.674" transform="translate(-97.984 -82.675)" fill="none"/>
    </clipPath>
    <linearGradient id="linear-gradient-40" x1="-3.311" y1="3.4" x2="-3.274" y2="3.4" xlink:href="#linear-gradient"/>
    <clipPath id="clip-path-48">
      <path id="Trazado_39" data-name="Trazado 39" d="M112.8,98.342V82.93h6.612v2.335H115.12v4.2h3.133V91.8H115.12v4.2h4.289v2.335Z" transform="translate(-112.797 -82.93)" fill="none"/>
    </clipPath>
    <linearGradient id="linear-gradient-41" x1="-4.027" y1="3.565" x2="-3.989" y2="3.565" xlink:href="#linear-gradient"/>
    <clipPath id="clip-path-49">
      <path id="Trazado_40" data-name="Trazado 40" d="M54.038,61.3l-.048-.384a3.2,3.2,0,0,1,1.164-1.993,13.475,13.475,0,0,1,2.7-1.871,17.643,17.643,0,0,1,5.183-1.488,22.8,22.8,0,0,1,3.373-.312,11.146,11.146,0,0,1,2.387.228,3.382,3.382,0,0,1,1.7.9,2.179,2.179,0,0,1,.672,1.6,2.5,2.5,0,0,1-.78,1.741,5.078,5.078,0,0,1-1.956,1.248,14.558,14.558,0,0,1-4.368.936q1.031.624,1.7,1.092a10.96,10.96,0,0,1,1.44,1.236,4.278,4.278,0,0,1,.983,1.319,2.772,2.772,0,0,1,.216.985,4.185,4.185,0,0,1-1.08,2.711,4.927,4.927,0,0,1-2,1.416,7.1,7.1,0,0,1-2.724.528q-3.072,0-3.36-2.16a.2.2,0,0,1-.048-.144q-.911,1.463-1.512,1.464a2.814,2.814,0,0,1-.54-.084c-.248-.056-.376-.116-.384-.18a4.052,4.052,0,0,1-.011-.408,6.109,6.109,0,0,1,.455-1.5q.455-1.188,1.032-2.34,1.129-2.16,2.232-4.175a1.81,1.81,0,0,0,.193-.648,1.842,1.842,0,0,0-.024-.336A3.766,3.766,0,0,1,61.8,58.912a2.935,2.935,0,0,1,1.932-1.093,2.026,2.026,0,0,1,.768.216.926.926,0,0,1,.576.6.694.694,0,0,1,.012.2c-.008.024-.053.021-.132-.011a.649.649,0,0,0-.144-.048,2.878,2.878,0,0,0-1.836,1.14,16.079,16.079,0,0,0-2.051,2.8A42.162,42.162,0,0,0,58,68.235a2.193,2.193,0,0,0-.193.744c0,.24.105.36.313.36s.487-.22.839-.659.6-.656.744-.648a.543.543,0,0,1,.348.131.649.649,0,0,1,.18.252,1.678,1.678,0,0,1,.072.372,1.733,1.733,0,0,0,.048.312,2.158,2.158,0,0,0,2.424,1.7h.1a5.077,5.077,0,0,0,2.833-.767A2.531,2.531,0,0,0,67,67.887a4.268,4.268,0,0,0-1.2-2.7,12.83,12.83,0,0,0-1.127-1.08q-1.585-1.368-1.633-1.752a.641.641,0,0,1,.324-.636,1.249,1.249,0,0,1,.684-.253,9.126,9.126,0,0,0,3.216-.84q3-1.225,3.216-2.712v-.144a1.154,1.154,0,0,0-.384-.816,3.833,3.833,0,0,0-2.737-.7,25.762,25.762,0,0,0-6.647,1.032,13.959,13.959,0,0,0-4.055,1.776q-1.921,1.272-1.92,2.712a1.117,1.117,0,0,0,.192.612,1.184,1.184,0,0,0,.444.432,6.354,6.354,0,0,0,.66.288q.408.157.588.241c.121.056.16.123.121.2s-.156.1-.349.073a2.885,2.885,0,0,1-1.583-.661,1.778,1.778,0,0,1-.793-1.428,1.21,1.21,0,0,1,.025-.24" transform="translate(-53.99 -55.252)" fill="none"/>
    </clipPath>
    <linearGradient id="linear-gradient-42" x1="-1.339" y1="3.139" x2="-1.312" y2="3.139" xlink:href="#linear-gradient"/>
    <clipPath id="clip-path-50">
      <path id="Trazado_41" data-name="Trazado 41" d="M85.306,66.76q1.3,0,1.3,1.248a1.539,1.539,0,0,1-.36,1.056A4.848,4.848,0,0,1,84.3,70.611a6.535,6.535,0,0,1-2.28.732q-.337.024-.359-.192-.025-.1.06-.12a.5.5,0,0,1,.132-.024,3.809,3.809,0,0,0,1.415-.528A7.749,7.749,0,0,0,85.618,68.7a1.432,1.432,0,0,0,.312-.827.346.346,0,0,0-.385-.4,2.043,2.043,0,0,0-.84.264,8.289,8.289,0,0,0-2.376,1.836A6.643,6.643,0,0,0,80.7,72.135a2.528,2.528,0,0,0-.119.756,1.031,1.031,0,0,0,.312.708,1.252,1.252,0,0,0,.96.336,4.454,4.454,0,0,0,1.655-.385,8.8,8.8,0,0,0,4.175-3.335c.1-.128.183-.151.264-.072.064.033.1.072.1.12a.29.29,0,0,1-.071.168,8.538,8.538,0,0,1-1.824,2.136,6.491,6.491,0,0,1-4.152,1.824,2.712,2.712,0,0,1-2.424-1.031,1.772,1.772,0,0,1-.263-.984,3.832,3.832,0,0,1,.312-1.368A7.537,7.537,0,0,1,82.186,68.2a6,6,0,0,1,3.119-1.44" transform="translate(-79.306 -66.76)" fill="none"/>
    </clipPath>
    <linearGradient id="linear-gradient-43" x1="-4.264" y1="5.553" x2="-4.209" y2="5.553" xlink:href="#linear-gradient"/>
    <clipPath id="clip-path-51">
      <path id="Trazado_42" data-name="Trazado 42" d="M92.1,72.92c-.209.24-.253.432-.133.576a.526.526,0,0,0,.409.216,1.61,1.61,0,0,0,.467-.073,5.072,5.072,0,0,0,2-1.236,2.638,2.638,0,0,0,.971-1.884q0-.527-1.176-1.152c-.368-.191-.575-.3-.624-.335a2.034,2.034,0,0,1-.815-.864q-.338.575-1.08,1.655c-.113.128-.216.156-.312.084s-.1-.171-.024-.3a9.1,9.1,0,0,0,1.3-2.255A3.461,3.461,0,0,1,95,64.977a6.3,6.3,0,0,1,3.191-1.056,1.978,1.978,0,0,1,1.284.323.891.891,0,0,1,.372.636,1.822,1.822,0,0,1-.18.72,1.882,1.882,0,0,1-.732.768.152.152,0,0,1-.24-.048c-.033-.1.036-.228.2-.4a1.224,1.224,0,0,0,.325-.684.42.42,0,0,0-.385-.529h-.143a5.558,5.558,0,0,0-2.341.7,5.806,5.806,0,0,0-2.2,1.8,1.356,1.356,0,0,0-.312.828q0,.419.576.755.239.145.815.457c.385.207.656.36.816.455a3.688,3.688,0,0,1,.576.456.974.974,0,0,1,.36.577,1.954,1.954,0,0,1-.672,1.583,6.246,6.246,0,0,1-3.36,1.752,4.425,4.425,0,0,1-1.02.12.719.719,0,0,1-.708-.384.508.508,0,0,1-.072-.3,1.344,1.344,0,0,1,.385-.659,3.675,3.675,0,0,1,1.151-.7.11.11,0,0,1,.144.144c-.016.048-.1.1-.252.167a1.311,1.311,0,0,0-.491.456" transform="translate(-91.158 -63.921)" fill="none"/>
    </clipPath>
    <linearGradient id="linear-gradient-44" x1="-4.071" y1="4.995" x2="-4.025" y2="4.995" xlink:href="#linear-gradient"/>
    <clipPath id="clip-path-52">
      <path id="Trazado_43" data-name="Trazado 43" d="M107.048,64.941q1.849-.168,2.244-.168t.4.119q0,.145-.564.3a23.718,23.718,0,0,1-2.747.4c-.081.143-.176.312-.288.5a3.639,3.639,0,0,0-.384.7,14.81,14.81,0,0,0-1.44,3.48,5.114,5.114,0,0,0-.024.552.8.8,0,0,0,.192.552q.335.383.959.048a10.068,10.068,0,0,0,1.741-1.344,12.943,12.943,0,0,0,1.812-1.968.177.177,0,0,1,.24-.048q.359.168-1.249,1.9A7.7,7.7,0,0,1,105.369,72a3.086,3.086,0,0,1-1.008.216,1.234,1.234,0,0,1-1.273-.912,1.482,1.482,0,0,1-.049-.409,7.06,7.06,0,0,1,.769-2.544,7.735,7.735,0,0,1-.935,1.2q-.217.241-.336,0a.284.284,0,0,1-.024-.132.351.351,0,0,1,.1-.2q1.175-1.464,1.847-2.472,0-.024.528-1.009a2.455,2.455,0,0,1-.492.048.438.438,0,0,1-.372-.156.343.343,0,0,1-.023-.372q.167-.384,1.272-.432a.1.1,0,0,1,.1-.048l1.2-2.232q.1-.192.216-.4t.18-.312c.039-.072.084-.148.133-.228a.908.908,0,0,1,.119-.168c.033-.031.064-.064.1-.1q.095-.145.564-.145a.7.7,0,0,1,.636.263.559.559,0,0,1,.072.325.994.994,0,0,1-.168.5,1.171,1.171,0,0,1-.36.4.681.681,0,0,0-.264.264l-1.152,2.015Z" transform="translate(-102.513 -61.197)" fill="none"/>
    </clipPath>
    <linearGradient id="linear-gradient-45" x1="-4.661" y1="5.385" x2="-4.613" y2="5.385" xlink:href="#linear-gradient"/>
    <clipPath id="clip-path-53">
      <path id="Trazado_44" data-name="Trazado 44" d="M34.508,35.636l.858-.855a.865.865,0,0,1,.785-.285,1.932,1.932,0,0,1,.957.606,2.33,2.33,0,0,1,.671,1.006.822.822,0,0,1-.284.811l-.861.851Zm1.542-1.722a1.423,1.423,0,0,0-.546.147,2.011,2.011,0,0,0-.553.4l-1.264,1.257,5.14,5.163.456-.453L37,38.137l.8-.8a1.992,1.992,0,0,0,.42-.588,1.4,1.4,0,0,0,.131-.572,1.558,1.558,0,0,0-.114-.552,2.308,2.308,0,0,0-.281-.516,3.938,3.938,0,0,0-.4-.47,3.292,3.292,0,0,0-.466-.393,2.034,2.034,0,0,0-.506-.253,1.478,1.478,0,0,0-.478-.081H36.05" transform="translate(-33.687 -33.913)" fill="none"/>
    </clipPath>
    <radialGradient id="radial-gradient-4" cx="-1.31" cy="0.058" r="9.449" gradientTransform="matrix(1.246, 0, 0, -1, 0.927, 23.743)" gradientUnits="objectBoundingBox">
      <stop offset="0" stop-color="#2c3c4f"/>
      <stop offset="0.059" stop-color="#2c3c4f"/>
      <stop offset="0.516" stop-color="#0d1d30"/>
      <stop offset="1" stop-color="#060d29"/>
    </radialGradient>
    <clipPath id="clip-path-54">
      <path id="Trazado_45" data-name="Trazado 45" d="M40.534,30.178l1.025-.791a.948.948,0,0,1,.35-.178.706.706,0,0,1,.328-.011.924.924,0,0,1,.312.137,1.744,1.744,0,0,1,.289.236,3.464,3.464,0,0,1,.275.317,2.832,2.832,0,0,1,.277.422,1.674,1.674,0,0,1,.155.417.689.689,0,0,1-.036.422.9.9,0,0,1-.3.372l-1.025.793Zm1.288-1.518a1.9,1.9,0,0,0-.574.315l-1.538,1.188,4.453,5.768.509-.394L42.5,32.722l.969-.748,3.013,2.165.544-.419-3.114-2.19a1.654,1.654,0,0,0-.275-2.018,3.805,3.805,0,0,0-.39-.44,2.169,2.169,0,0,0-.428-.316,1.279,1.279,0,0,0-.474-.16,1.09,1.09,0,0,0-.112-.006,1.342,1.342,0,0,0-.408.069" transform="translate(-39.709 -28.59)" fill="none"/>
    </clipPath>
    <radialGradient id="radial-gradient-5" cx="-1.517" cy="0.509" r="8.976" gradientTransform="matrix(1.004, 0, 0, -1, 0.012, 23.464)" xlink:href="#radial-gradient-4"/>
    <clipPath id="clip-path-55">
      <path id="Trazado_46" data-name="Trazado 46" d="M46.671,25.249l3.768,6.236,2.175-1.314-.268-.441-1.623.98-1.555-2.573,1.159-.7-.252-.416-1.159.7-1.428-2.362,1.624-.981-.267-.442Z" transform="translate(-46.671 -23.936)" fill="none"/>
    </clipPath>
    <radialGradient id="radial-gradient-6" cx="-2.6" cy="0.881" r="8.728" gradientTransform="matrix(1.27, 0, 0, -1, 1.328, 23.584)" xlink:href="#radial-gradient-4"/>
    <clipPath id="clip-path-56">
      <path id="Trazado_47" data-name="Trazado 47" d="M55.959,20.04q.327,1.47.654,3.28t.589,3.046l-3.816-5.2-.725.318,2.929,6.671.524-.23L53.772,22.6l3.574,4.792.512-.224-1.112-5.88,2.344,5.337.523-.229-2.929-6.671Z" transform="translate(-52.661 -19.722)" fill="none"/>
    </clipPath>
    <radialGradient id="radial-gradient-7" cx="-2.762" cy="1.1" r="7.809" gradientTransform="matrix(1.214, 0, 0, -1, 1.012, 21.728)" xlink:href="#radial-gradient-4"/>
    <clipPath id="clip-path-57">
      <rect id="Rectángulo_87" data-name="Rectángulo 87" width="0.643" height="7.286" transform="matrix(0.954, -0.3, 0.3, 0.954, 0, 0.193)" fill="none"/>
    </clipPath>
    <radialGradient id="radial-gradient-8" cx="-8.995" cy="1.415" r="9.225" gradientTransform="matrix(2.55, 0, 0, -1, 21.551, 25.896)" xlink:href="#radial-gradient-4"/>
    <clipPath id="clip-path-58">
      <path id="Trazado_48" data-name="Trazado 48" d="M69.13,16.429l1.164,5.521a1.374,1.374,0,0,1-.073.968,1.157,1.157,0,0,1-.823.489,1.251,1.251,0,0,1-1-.1,1.332,1.332,0,0,1-.47-.855l-1.166-5.522-.629.133,1.134,5.377a3.161,3.161,0,0,0,.173.572,1.823,1.823,0,0,0,.283.467,1.354,1.354,0,0,0,.421.34,1.574,1.574,0,0,0,.586.155,2.667,2.667,0,0,0,.773-.058,1.646,1.646,0,0,0,1.384-2.24L69.756,16.3Z" transform="translate(-66.136 -16.296)" fill="none"/>
    </clipPath>
    <radialGradient id="radial-gradient-9" cx="-5.507" cy="1.485" r="8.561" gradientTransform="matrix(1.534, 0, 0, -1, 4.405, 24.38)" xlink:href="#radial-gradient-4"/>
    <clipPath id="clip-path-59">
      <path id="Trazado_49" data-name="Trazado 49" d="M79.1,15.382q-.2,1.491-.517,3.3t-.5,3.061L76.3,15.555l-.791.048.449,7.272.569-.034-.358-5.815,1.7,5.731.559-.034.985-5.9.358,5.818.571-.035-.448-7.271Z" transform="translate(-75.507 -15.334)" fill="none"/>
    </clipPath>
    <radialGradient id="radial-gradient-10" cx="-6.929" cy="1.595" r="8.738" gradientTransform="matrix(1.56, 0, 0, -1, 5.472, 25.037)" xlink:href="#radial-gradient-4"/>
    <clipPath id="clip-path-60">
      <path id="Trazado_50" data-name="Trazado 50" d="M90.014,22.81q-1.2-.169-.985-1.72l.464-3.308q.218-1.546,1.421-1.378T91.9,18.12l-.464,3.307q-.2,1.4-1.194,1.4a1.607,1.607,0,0,1-.227-.017m.225-6.906a1.494,1.494,0,0,0-.567.233,1.637,1.637,0,0,0-.407.43,2.375,2.375,0,0,0-.275.575,4.205,4.205,0,0,0-.155.693l-.424,3.022q-.31,2.205,1.532,2.463a2.442,2.442,0,0,0,.587.014,3.753,3.753,0,0,0,.554.668,1.525,1.525,0,0,0,.618.356l.067-.478a1.08,1.08,0,0,1-.329-.164,1.8,1.8,0,0,1-.255-.212c-.062-.066-.14-.154-.232-.264q.927-.358,1.139-1.866l.424-3.023a4.1,4.1,0,0,0,.042-.708,2.406,2.406,0,0,0-.106-.629,1.618,1.618,0,0,0-.273-.526,1.477,1.477,0,0,0-.481-.382,2.232,2.232,0,0,0-.713-.215,2.451,2.451,0,0,0-.355-.027,1.938,1.938,0,0,0-.39.038" transform="translate(-88.367 -15.866)" fill="none"/>
    </clipPath>
    <radialGradient id="radial-gradient-11" cx="-9.489" cy="1.377" r="7.758" gradientTransform="matrix(1.948, 0, 0, -1, 11.979, 22.153)" xlink:href="#radial-gradient-4"/>
    <clipPath id="clip-path-61">
      <path id="Trazado_51" data-name="Trazado 51" d="M96.164,22.432a3.266,3.266,0,0,0-.113.586,1.806,1.806,0,0,0,.034.546,1.32,1.32,0,0,0,.214.5,1.571,1.571,0,0,0,.446.41,2.663,2.663,0,0,0,.712.307,1.647,1.647,0,0,0,2.267-1.338l1.5-5.288-.616-.173-1.538,5.43a1.381,1.381,0,0,1-.514.822,1.158,1.158,0,0,1-.956.051,1.262,1.262,0,0,1-.837-.557,1.335,1.335,0,0,1-.018-.975l1.537-5.43-.619-.174Z" transform="translate(-96.044 -17.146)" fill="none"/>
    </clipPath>
    <radialGradient id="radial-gradient-12" cx="-8.932" cy="1.368" r="8.275" gradientTransform="matrix(1.535, 0, 0, -1, 6.196, 23.43)" xlink:href="#radial-gradient-4"/>
    <clipPath id="clip-path-62">
      <path id="Trazado_52" data-name="Trazado 52" d="M104.308,25.019l2.385-3.648-.983,4.248Zm-1.922,1.706.6.255,1.089-1.6,1.544.661-.41,1.887.6.257,1.543-7.264-.771-.33Z" transform="translate(-102.386 -20.592)" fill="none"/>
    </clipPath>
    <radialGradient id="radial-gradient-13" cx="-10.143" cy="1.151" r="8.676" gradientTransform="matrix(1.531, 0, 0, -1, 6.86, 23.995)" xlink:href="#radial-gradient-4"/>
    <clipPath id="clip-path-63">
      <path id="Trazado_53" data-name="Trazado 53" d="M109.07,29.61l2.337,1.311.253-.451-1.776-1,3.311-5.9-.562-.315Z" transform="translate(-109.07 -23.254)" fill="none"/>
    </clipPath>
    <radialGradient id="radial-gradient-14" cx="-13.21" cy="0.923" r="8.593" gradientTransform="matrix(1.859, 0, 0, -1, 14.207, 23.334)" xlink:href="#radial-gradient-4"/>
    <clipPath id="clip-path-64">
      <rect id="Rectángulo_95" data-name="Rectángulo 95" width="7.285" height="0.643" transform="translate(0 6.072) rotate(-56.464)" fill="none"/>
    </clipPath>
    <radialGradient id="radial-gradient-15" cx="-12.56" cy="0.791" r="10.256" gradientTransform="matrix(1.406, 0, 0, -1, 6.329, 27.232)" xlink:href="#radial-gradient-4"/>
    <clipPath id="clip-path-65">
      <path id="Trazado_54" data-name="Trazado 54" d="M120.143,28.378l1.12.872-4.156,5.343.509.4,4.155-5.343,1.13.878.317-.408-2.757-2.144Z" transform="translate(-117.107 -27.971)" fill="none"/>
    </clipPath>
    <radialGradient id="radial-gradient-16" cx="-9.74" cy="0.588" r="9.388" gradientTransform="matrix(1.148, 0, 0, -1, 1.78, 24.654)" xlink:href="#radial-gradient-4"/>
    <clipPath id="clip-path-66">
      <path id="Trazado_55" data-name="Trazado 55" d="M123.036,36.805l-1.56,1.635.465.444,1.561-1.635,4.582-2.573-.457-.436q-.785.469-1.874,1.094t-1.971,1.16l.156-.312q.161-.316.409-.807t.521-1.02q.272-.531.538-1.044c.178-.342.317-.6.415-.791l-.472-.45Z" transform="translate(-121.476 -32.069)" fill="none"/>
    </clipPath>
    <radialGradient id="radial-gradient-17" cx="-9.42" cy="0.229" r="9.667" gradientTransform="matrix(1.031, 0, 0, -1, 0.36, 24.631)" xlink:href="#radial-gradient-4"/>
    <clipPath id="clip-path-67">
      <path id="Trazado_56" data-name="Trazado 56" d="M38.723,126.782l-.887-.813,2.018-2.212.888.81a.86.86,0,0,1,.322.765,1.921,1.921,0,0,1-.556.978,2.311,2.311,0,0,1-.965.716.759.759,0,0,1-.212.031.893.893,0,0,1-.608-.273M34.852,128.3l.472.43,2.168-2.377.831.76a1.93,1.93,0,0,0,.6.387,1.378,1.378,0,0,0,.576.1,1.534,1.534,0,0,0,.542-.14,2.31,2.31,0,0,0,.5-.3,4.147,4.147,0,0,0,.447-.424,3.268,3.268,0,0,0,.366-.482,1.988,1.988,0,0,0,.226-.513,1.475,1.475,0,0,0,.054-.532,1.413,1.413,0,0,0-.173-.535,2.069,2.069,0,0,0-.429-.529l-1.309-1.193Z" transform="translate(-34.852 -122.946)" fill="none"/>
    </clipPath>
    <radialGradient id="radial-gradient-18" cx="-1.185" cy="-9.689" r="11.4" gradientTransform="matrix(0.85, 0, 0, -1, -0.481, 9.372)" xlink:href="#radial-gradient-4"/>
    <clipPath id="clip-path-68">
      <path id="Trazado_57" data-name="Trazado 57" d="M45.112,131.147a.911.911,0,0,1-.44-.181l-1.045-.75,1.563-2.176,1.045.751a.944.944,0,0,1,.268.281.7.7,0,0,1,.1.31.923.923,0,0,1-.043.335,1.725,1.725,0,0,1-.142.342,3.232,3.232,0,0,1-.225.352,2.846,2.846,0,0,1-.321.384,1.633,1.633,0,0,1-.355.265.684.684,0,0,1-.339.091.7.7,0,0,1-.072,0m-4.363,1.982.519.372,2.061-2.869.987.709-1.2,3.484.554.4,1.2-3.586a1.643,1.643,0,0,0,1.842-.835,3.819,3.819,0,0,0,.307-.5,2.149,2.149,0,0,0,.18-.5,1.3,1.3,0,0,0,.016-.495,1.246,1.246,0,0,0-.209-.478,1.878,1.878,0,0,0-.464-.457L44.97,127.25Z" transform="translate(-40.749 -127.25)" fill="none"/>
    </clipPath>
    <radialGradient id="radial-gradient-19" cx="-1.81" cy="-7.361" r="8.264" gradientTransform="matrix(1.229, 0, 0, -1, 0.9, 6.118)" xlink:href="#radial-gradient-4"/>
    <clipPath id="clip-path-69">
      <path id="Trazado_58" data-name="Trazado 58" d="M47.476,137.465l2.192,1.249.253-.445-1.635-.933,1.477-2.593,1.17.666.239-.421L50,134.321l1.356-2.383,1.638.933.253-.446-2.192-1.248Z" transform="translate(-47.476 -131.177)" fill="none"/>
    </clipPath>
    <radialGradient id="radial-gradient-20" cx="-2.763" cy="-8.112" r="8.741" gradientTransform="matrix(1.305, 0, 0, -1, 1.572, 5.82)" xlink:href="#radial-gradient-4"/>
    <clipPath id="clip-path-70">
      <path id="Trazado_59" data-name="Trazado 59" d="M53.122,140.363l.524.22,2.24-5.335L54.879,141.1l.512.215,3.474-4.822-2.24,5.339.522.22,2.8-6.672-.724-.3q-.835,1.24-1.915,2.714T55.516,140.3l1.132-6.3-.724-.3Z" transform="translate(-53.122 -133.692)" fill="none"/>
    </clipPath>
    <radialGradient id="radial-gradient-21" cx="-2.855" cy="-7.5" r="7.879" gradientTransform="matrix(1.225, 0, 0, -1, 1.096, 4.869)" xlink:href="#radial-gradient-4"/>
    <clipPath id="clip-path-71">
      <rect id="Rectángulo_103" data-name="Rectángulo 103" width="7.237" height="0.639" transform="translate(0 6.923) rotate(-73.054)" fill="none"/>
    </clipPath>
    <radialGradient id="radial-gradient-22" cx="-9.288" cy="-9.101" r="9.269" gradientTransform="matrix(2.611, 0, 0, -1, 23.091, 5.171)" xlink:href="#radial-gradient-4"/>
    <clipPath id="clip-path-72">
      <path id="Trazado_60" data-name="Trazado 60" d="M66.465,143.011a3.088,3.088,0,0,0-.073.588,1.827,1.827,0,0,0,.071.539,1.328,1.328,0,0,0,.247.477,1.56,1.56,0,0,0,.47.375,2.568,2.568,0,0,0,.726.255,1.634,1.634,0,0,0,2.153-1.481l1.121-5.341-.623-.131-1.15,5.487a1.354,1.354,0,0,1-.452.849,1.143,1.143,0,0,1-.944.116,1.24,1.24,0,0,1-.867-.494,1.319,1.319,0,0,1-.086-.964l1.15-5.487-.626-.13Z" transform="translate(-66.393 -137.669)" fill="none"/>
    </clipPath>
    <radialGradient id="radial-gradient-23" cx="-5.799" cy="-8.335" r="8.422" gradientTransform="matrix(1.632, 0, 0, -1, 5.481, 4.569)" xlink:href="#radial-gradient-4"/>
    <clipPath id="clip-path-73">
      <path id="Trazado_61" data-name="Trazado 61" d="M74.729,146.344l.566.041.415-5.771.918,5.866.554.041,1.749-5.68-.415,5.775.567.039.519-7.217-.783-.057q-.4,1.443-.947,3.184t-.9,2.948l-.944-6.331-.784-.057Z" transform="translate(-74.729 -139.126)" fill="none"/>
    </clipPath>
    <radialGradient id="radial-gradient-24" cx="-6.773" cy="-8.78" r="8.75" gradientTransform="matrix(1.545, 0, 0, -1, 5.231, 4.504)" xlink:href="#radial-gradient-4"/>
    <clipPath id="clip-path-74">
      <path id="Trazado_62" data-name="Trazado 62" d="M88.075,144.476l-.375-3.3q-.176-1.543,1.024-1.679t1.373,1.406l.375,3.3c.116,1.031-.224,1.591-1.025,1.683a1.623,1.623,0,0,1-.187.011q-1.025,0-1.186-1.421m.591-5.484a2.183,2.183,0,0,0-.714.2,1.474,1.474,0,0,0-.488.367,1.552,1.552,0,0,0-.283.514,2.344,2.344,0,0,0-.123.622,4.068,4.068,0,0,0,.023.7l.342,3.012q.25,2.2,2.084,1.99a2.5,2.5,0,0,0,.569-.133,3.692,3.692,0,0,0,.7.5,1.534,1.534,0,0,0,.684.189l-.053-.476a1.113,1.113,0,0,1-.358-.076,1.648,1.648,0,0,1-.3-.142c-.076-.048-.172-.114-.288-.2a2.079,2.079,0,0,0,.631-2.077l-.342-3.012a4.053,4.053,0,0,0-.135-.691,2.422,2.422,0,0,0-.258-.578,1.607,1.607,0,0,0-.393-.439,1.489,1.489,0,0,0-.556-.248,1.942,1.942,0,0,0-.441-.048,2.766,2.766,0,0,0-.3.018" transform="translate(-87.051 -138.974)" fill="none"/>
    </clipPath>
    <radialGradient id="radial-gradient-25" cx="-9.225" cy="-8.271" r="8.254" gradientTransform="matrix(1.809, 0, 0, -1, 9.984, 4.273)" xlink:href="#radial-gradient-4"/>
    <clipPath id="clip-path-75">
      <path id="Trazado_63" data-name="Trazado 63" d="M96.8,137.365l1.331,5.445a1.373,1.373,0,0,1-.043.962,1.145,1.145,0,0,1-.8.512,1.245,1.245,0,0,1-.995-.072,1.317,1.317,0,0,1-.494-.833l-1.329-5.444-.623.151,1.3,5.3a3.073,3.073,0,0,0,.19.563,1.787,1.787,0,0,0,.3.455,1.354,1.354,0,0,0,.428.324,1.542,1.542,0,0,0,.587.135,2.59,2.59,0,0,0,.766-.083,1.633,1.633,0,0,0,1.3-2.265l-1.3-5.3Z" transform="translate(-93.849 -137.214)" fill="none"/>
    </clipPath>
    <radialGradient id="radial-gradient-26" cx="-8.707" cy="-8.47" r="8.596" gradientTransform="matrix(1.484, 0, 0, -1, 5.501, 4.737)" xlink:href="#radial-gradient-4"/>
    <clipPath id="clip-path-76">
      <path id="Trazado_64" data-name="Trazado 64" d="M103.246,136.433l2.208,3.726-1.416.531Zm-.619-.477,1.2,7.277.6-.225-.314-1.894,1.563-.585,1,1.636.607-.226-3.878-6.274Z" transform="translate(-102.627 -135.664)" fill="none"/>
    </clipPath>
    <radialGradient id="radial-gradient-27" cx="-10.832" cy="-8.448" r="8.704" gradientTransform="matrix(1.625, 0, 0, -1, 8.611, 5.053)" xlink:href="#radial-gradient-4"/>
    <clipPath id="clip-path-77">
      <path id="Trazado_65" data-name="Trazado 65" d="M107,134.193l3.194,6.495,2.389-1.176-.226-.46-1.814.893-2.968-6.034Z" transform="translate(-107.001 -133.911)" fill="none"/>
    </clipPath>
    <radialGradient id="radial-gradient-28" cx="-9.529" cy="-9.276" r="9.723" gradientTransform="matrix(1.214, 0, 0, -1, 2.564, 5.968)" xlink:href="#radial-gradient-4"/>
    <clipPath id="clip-path-78">
      <rect id="Rectángulo_111" data-name="Rectángulo 111" width="0.639" height="7.236" transform="translate(0 0.322) rotate(-30.227)" fill="none"/>
    </clipPath>
    <radialGradient id="radial-gradient-29" cx="-13.365" cy="-9.329" r="10.021" gradientTransform="matrix(1.567, 0, 0, -1, 9.442, 6.615)" xlink:href="#radial-gradient-4"/>
    <clipPath id="clip-path-79">
      <path id="Trazado_66" data-name="Trazado 66" d="M113.1,130l.288.425,1.166-.791,3.775,5.564.529-.36-3.776-5.562,1.176-.8-.289-.425Z" transform="translate(-113.104 -128.051)" fill="none"/>
    </clipPath>
    <radialGradient id="radial-gradient-30" cx="-9.902" cy="-8.284" r="9.222" gradientTransform="matrix(1.241, 0, 0, -1, 2.959, 6.687)" xlink:href="#radial-gradient-4"/>
    <clipPath id="clip-path-80">
      <path id="Trazado_67" data-name="Trazado 67" d="M119.8,124.879q.367.831.856,1.978t.91,2.081l-.29-.192-.746-.5q-.453-.3-.946-.634t-.964-.655q-.473-.324-.732-.5l-.5.411,4.393,2.847,1.428,1.732.493-.406-1.426-1.732-1.994-4.826Z" transform="translate(-117.39 -124.48)" fill="none"/>
    </clipPath>
    <radialGradient id="radial-gradient-31" cx="-9.455" cy="-8.178" r="9.46" gradientTransform="matrix(1.103, 0, 0, -1, 1.2, 7.501)" xlink:href="#radial-gradient-4"/>
    <clipPath id="clip-path-81">
      <path id="Trazado_68" data-name="Trazado 68" d="M18.52,78.678l-2.63.248,1.985,1.742L17.3,83.245,19.568,81.9l2.272,1.346-.579-2.576,1.982-1.746-2.629-.245-1.048-2.424Z" transform="translate(-15.89 -76.252)" fill="none"/>
    </clipPath>
    <radialGradient id="radial-gradient-32" cx="2.068" cy="-2.998" r="28.976" gradientTransform="matrix(0.951, 0, 0, -1, -0.066, 16.099)" xlink:href="#radial-gradient-4"/>
    <clipPath id="clip-path-82">
      <path id="Trazado_69" data-name="Trazado 69" d="M142.676,78.678l-2.63.248,1.985,1.742-.578,2.578,2.271-1.348L146,83.243l-.58-2.576,1.982-1.746-2.629-.245-1.047-2.424Z" transform="translate(-140.046 -76.252)" fill="none"/>
    </clipPath>
    <radialGradient id="radial-gradient-33" cx="-8.498" cy="-2.998" r="28.977" gradientTransform="matrix(0.951, 0, 0, -1, -0.582, 16.099)" xlink:href="#radial-gradient-4"/>
    <clipPath id="clip-path-83">
      <path id="Trazado_70" data-name="Trazado 70" d="M46.331,83.239a3.543,3.543,0,0,0-1.082,2.611v8.407a3.682,3.682,0,0,0,7.363,0V92.106H50.2v2.127a1.27,1.27,0,0,1-.394.94,1.3,1.3,0,0,1-.947.388,1.323,1.323,0,0,1-1.327-1.328V85.8a1.3,1.3,0,0,1,.387-.946,1.269,1.269,0,0,1,.94-.394A1.344,1.344,0,0,1,50.2,85.8v1.807h2.409V85.85a3.575,3.575,0,0,0-1.069-2.606,3.686,3.686,0,0,0-5.212-.006" transform="translate(-45.249 -82.163)" fill="none"/>
    </clipPath>
    <radialGradient id="radial-gradient-34" cx="-0.496" cy="-0.954" r="5.329" gradientTransform="matrix(2.142, 0, 0, -1, 4.389, 6.671)" xlink:href="#radial-gradient-4"/>
    <clipPath id="clip-path-84">
      <path id="Trazado_71" data-name="Trazado 71" d="M65.186,82.438v6.539h-2.8V82.438H60.061v15.4h2.322V91.311h2.8v6.527H67.51v-15.4Z" transform="translate(-60.061 -82.438)" fill="none"/>
    </clipPath>
    <radialGradient id="radial-gradient-35" cx="-1.734" cy="-0.988" r="5.457" gradientTransform="matrix(2.067, 0, 0, -1, 5.385, 6.808)" xlink:href="#radial-gradient-4"/>
    <clipPath id="clip-path-85">
      <path id="Trazado_72" data-name="Trazado 72" d="M77.914,95.134a1.268,1.268,0,0,1-.394-.941V85.762a1.266,1.266,0,0,1,.394-.94,1.3,1.3,0,0,1,.946-.387,1.32,1.32,0,0,1,1.326,1.328v8.431A1.318,1.318,0,0,1,78.86,95.52a1.3,1.3,0,0,1-.946-.386M76.327,83.2a3.549,3.549,0,0,0-1.08,2.611v8.407a3.573,3.573,0,0,0,1.068,2.605A3.527,3.527,0,0,0,78.921,97.9a3.682,3.682,0,0,0,3.688-3.686V85.81A3.681,3.681,0,0,0,76.327,83.2" transform="translate(-75.247 -82.123)" fill="none"/>
    </clipPath>
    <radialGradient id="radial-gradient-36" cx="-3.045" cy="-0.951" r="5.325" gradientTransform="matrix(2.144, 0, 0, -1, 7.313, 6.669)" xlink:href="#radial-gradient-4"/>
    <clipPath id="clip-path-86">
      <rect id="Rectángulo_120" data-name="Rectángulo 120" width="2.322" height="15.4" fill="none"/>
    </clipPath>
    <radialGradient id="radial-gradient-37" cx="-13.701" cy="-0.988" r="5.455" gradientTransform="matrix(6.631, 0, 0, -1, 136.978, 6.808)" xlink:href="#radial-gradient-4"/>
    <clipPath id="clip-path-87">
      <path id="Trazado_73" data-name="Trazado 73" d="M98.37,83.239a3.54,3.54,0,0,0-1.082,2.611v8.407a3.681,3.681,0,0,0,7.362,0V92.106h-2.409v2.127a1.268,1.268,0,0,1-.394.94,1.3,1.3,0,0,1-.946.388,1.323,1.323,0,0,1-1.328-1.328V85.8a1.3,1.3,0,0,1,.387-.946,1.269,1.269,0,0,1,.94-.394,1.344,1.344,0,0,1,1.339,1.339v1.807h2.409V85.85a3.575,3.575,0,0,0-1.069-2.606,3.685,3.685,0,0,0-5.211-.006" transform="translate(-97.288 -82.163)" fill="none"/>
    </clipPath>
    <radialGradient id="radial-gradient-38" cx="-4.918" cy="-0.954" r="5.329" gradientTransform="matrix(2.142, 0, 0, -1, 9.441, 6.671)" xlink:href="#radial-gradient-4"/>
    <clipPath id="clip-path-88">
      <path id="Trazado_74" data-name="Trazado 74" d="M112.1,82.419V97.831h6.611V95.5h-4.289v-4.2h3.134V88.958h-3.134v-4.2h4.289V82.419Z" transform="translate(-112.1 -82.419)" fill="none"/>
    </clipPath>
    <radialGradient id="radial-gradient-39" cx="-6.878" cy="-0.986" r="5.452" gradientTransform="matrix(2.331, 0, 0, -1, 14.122, 6.805)" xlink:href="#radial-gradient-4"/>
    <clipPath id="clip-path-89">
      <path id="Trazado_75" data-name="Trazado 75" d="M62.34,55.053a17.66,17.66,0,0,0-5.184,1.488,13.427,13.427,0,0,0-2.7,1.872,3.2,3.2,0,0,0-1.164,1.993l.048.383a1.164,1.164,0,0,0-.024.24,1.776,1.776,0,0,0,.793,1.428,2.879,2.879,0,0,0,1.583.66c.192.033.308.008.349-.072s0-.147-.12-.2-.317-.136-.589-.24a6.338,6.338,0,0,1-.659-.287,1.205,1.205,0,0,1-.444-.432,1.126,1.126,0,0,1-.191-.612q0-1.44,1.92-2.712a13.984,13.984,0,0,1,4.055-1.776,25.763,25.763,0,0,1,6.647-1.032,3.834,3.834,0,0,1,2.736.7,1.153,1.153,0,0,1,.385.816V57.4q-.218,1.489-3.216,2.712a9.137,9.137,0,0,1-3.215.841,1.247,1.247,0,0,0-.685.252.638.638,0,0,0-.323.636q.048.384,1.632,1.752A13.236,13.236,0,0,1,65.1,64.676a4.274,4.274,0,0,1,1.2,2.7A2.53,2.53,0,0,1,65,69.524a5.067,5.067,0,0,1-2.832.768h-.1a2.158,2.158,0,0,1-2.424-1.7,1.816,1.816,0,0,1-.048-.312,1.671,1.671,0,0,0-.072-.372.656.656,0,0,0-.18-.252A.547.547,0,0,0,59,67.52q-.216-.011-.744.648t-.84.659q-.313,0-.312-.36a2.189,2.189,0,0,1,.192-.744A42.009,42.009,0,0,1,60.229,62.2a16.08,16.08,0,0,1,2.051-2.8,2.879,2.879,0,0,1,1.836-1.14.676.676,0,0,1,.145.048c.08.032.123.035.132.012a.681.681,0,0,0-.013-.2.923.923,0,0,0-.576-.6,2.021,2.021,0,0,0-.768-.216A2.937,2.937,0,0,0,61.1,58.4a3.765,3.765,0,0,0-1.164,1.764,1.413,1.413,0,0,1-.168.984q-1.1,2.016-2.233,4.175-.575,1.152-1.031,2.341a6.143,6.143,0,0,0-.456,1.5,4.006,4.006,0,0,0,.012.409q.012.1.384.18a2.829,2.829,0,0,0,.541.084q.6,0,1.512-1.464a.2.2,0,0,0,.048.144q.289,2.16,3.36,2.16a7.1,7.1,0,0,0,2.724-.528,4.925,4.925,0,0,0,2-1.416,4.183,4.183,0,0,0,1.079-2.711,2.75,2.75,0,0,0-.216-.984,4.254,4.254,0,0,0-.984-1.319,10.974,10.974,0,0,0-1.44-1.236q-.673-.468-1.7-1.092a14.576,14.576,0,0,0,4.368-.935A5.067,5.067,0,0,0,69.7,59.2a2.5,2.5,0,0,0,.781-1.74,2.179,2.179,0,0,0-.673-1.6,3.378,3.378,0,0,0-1.7-.9,11.158,11.158,0,0,0-2.389-.228,22.786,22.786,0,0,0-3.372.312" transform="translate(-53.293 -54.741)" fill="none"/>
    </clipPath>
    <radialGradient id="radial-gradient-40" cx="-0.505" cy="0.133" r="5.273" gradientTransform="matrix(0.927, 0, 0, -1, -0.141, 8.755)" xlink:href="#radial-gradient-4"/>
    <clipPath id="clip-path-90">
      <path id="Trazado_76" data-name="Trazado 76" d="M81.488,67.689A7.524,7.524,0,0,0,78.921,70.5a3.834,3.834,0,0,0-.312,1.368,1.77,1.77,0,0,0,.264.985A2.71,2.71,0,0,0,81.3,73.881a6.5,6.5,0,0,0,4.152-1.824,8.58,8.58,0,0,0,1.824-2.137.3.3,0,0,0,.072-.168c0-.048-.033-.088-.1-.12-.08-.079-.167-.056-.263.072a8.8,8.8,0,0,1-4.175,3.335,4.439,4.439,0,0,1-1.656.385,1.249,1.249,0,0,1-.96-.336,1.03,1.03,0,0,1-.311-.708A2.54,2.54,0,0,1,80,71.624a6.662,6.662,0,0,1,1.633-2.556,8.3,8.3,0,0,1,2.376-1.836,2.048,2.048,0,0,1,.84-.264.346.346,0,0,1,.385.4,1.426,1.426,0,0,1-.312.828,7.735,7.735,0,0,1-2.352,1.776,3.788,3.788,0,0,1-1.416.528.506.506,0,0,0-.132.024c-.056.016-.076.056-.059.119.015.145.135.209.36.192A6.527,6.527,0,0,0,83.6,70.1a4.849,4.849,0,0,0,1.944-1.548A1.541,1.541,0,0,0,85.9,67.5q0-1.249-1.3-1.248a6.007,6.007,0,0,0-3.121,1.44" transform="translate(-78.609 -66.249)" fill="none"/>
    </clipPath>
    <radialGradient id="radial-gradient-41" cx="-2.807" cy="-0.666" r="11.011" gradientTransform="matrix(0.874, 0, 0, -1, -0.712, 16.393)" xlink:href="#radial-gradient-4"/>
    <clipPath id="clip-path-91">
      <path id="Trazado_77" data-name="Trazado 77" d="M94.3,64.466a3.458,3.458,0,0,0-1.92,2.376,9.139,9.139,0,0,1-1.3,2.256q-.12.192.024.3c.1.073.2.044.312-.084q.743-1.08,1.08-1.656a2.03,2.03,0,0,0,.815.864c.049.033.257.145.625.336q1.176.624,1.176,1.152a2.641,2.641,0,0,1-.972,1.884,5.094,5.094,0,0,1-2,1.236,1.636,1.636,0,0,1-.467.072.525.525,0,0,1-.409-.216q-.181-.217.132-.577a1.326,1.326,0,0,1,.492-.456c.151-.063.236-.119.251-.167A.109.109,0,0,0,92,71.642a3.684,3.684,0,0,0-1.152.7,1.346,1.346,0,0,0-.383.659.506.506,0,0,0,.071.3.72.72,0,0,0,.709.384,4.436,4.436,0,0,0,1.02-.119,6.245,6.245,0,0,0,3.358-1.752,1.953,1.953,0,0,0,.673-1.583.968.968,0,0,0-.36-.576,3.708,3.708,0,0,0-.576-.456q-.24-.144-.816-.457c-.384-.207-.656-.36-.816-.455q-.576-.336-.576-.756a1.349,1.349,0,0,1,.313-.828,5.8,5.8,0,0,1,2.194-1.8A5.565,5.565,0,0,1,98,64.2h.144a.419.419,0,0,1,.385.527,1.225,1.225,0,0,1-.325.684c-.167.168-.235.3-.2.4a.153.153,0,0,0,.24.048,1.877,1.877,0,0,0,.733-.768,1.83,1.83,0,0,0,.18-.72.891.891,0,0,0-.372-.636,1.97,1.97,0,0,0-1.284-.323A6.3,6.3,0,0,0,94.3,64.466" transform="translate(-90.463 -63.411)" fill="none"/>
    </clipPath>
    <radialGradient id="radial-gradient-42" cx="-3.676" cy="-0.322" r="8.18" gradientTransform="matrix(1.182, 0, 0, -1, 1.188, 12.526)" xlink:href="#radial-gradient-4"/>
    <clipPath id="clip-path-92">
      <path id="Trazado_78" data-name="Trazado 78" d="M106.712,60.831l-.1.1a.892.892,0,0,0-.12.168c-.048.081-.093.156-.132.228s-.1.176-.18.312-.152.268-.215.4l-1.2,2.232a.1.1,0,0,0-.1.048q-1.1.049-1.272.432a.342.342,0,0,0,.024.373.436.436,0,0,0,.372.155,2.5,2.5,0,0,0,.491-.048q-.526.984-.527,1.008-.674,1.007-1.849,2.472a.358.358,0,0,0-.1.2.288.288,0,0,0,.024.133c.079.161.192.161.335,0a7.652,7.652,0,0,0,.936-1.2,7.056,7.056,0,0,0-.767,2.544,1.533,1.533,0,0,0,.048.409,1.234,1.234,0,0,0,1.272.912,3.083,3.083,0,0,0,1.009-.216,7.688,7.688,0,0,0,2.567-2.04q1.609-1.728,1.249-1.9a.177.177,0,0,0-.241.048,12.873,12.873,0,0,1-1.811,1.968,10.124,10.124,0,0,1-1.74,1.344q-.624.336-.96-.049a.8.8,0,0,1-.191-.552,5.1,5.1,0,0,1,.024-.552,14.753,14.753,0,0,1,1.439-3.48,3.806,3.806,0,0,1,.384-.7q.168-.288.288-.5a23.617,23.617,0,0,0,2.748-.4q.563-.156.564-.3c0-.079-.132-.12-.4-.12s-1.012.056-2.244.168l-.313.024,1.152-2.016a.677.677,0,0,1,.264-.264,1.172,1.172,0,0,0,.36-.4.991.991,0,0,0,.168-.5.562.562,0,0,0-.071-.324.7.7,0,0,0-.637-.263q-.468,0-.563.144" transform="translate(-101.816 -60.687)" fill="none"/>
    </clipPath>
    <radialGradient id="radial-gradient-43" cx="-5.44" cy="-0.146" r="7.628" gradientTransform="matrix(1.535, 0, 0, -1, 4.75, 11.99)" xlink:href="#radial-gradient-4"/>
  </defs>
  <g id="Grupo_191" data-name="Grupo 191" clip-path="url(#clip-path)">
    <g id="Grupo_8" data-name="Grupo 8" transform="translate(0)">
      <g id="Grupo_7" data-name="Grupo 7" clip-path="url(#clip-path-2)">
        <rect id="Rectángulo_26" data-name="Rectángulo 26" width="105.782" height="105.406" transform="translate(-0.891 -0.514)" fill="url(#linear-gradient)"/>
      </g>
    </g>
    <g id="Grupo_10" data-name="Grupo 10" transform="translate(3.3 3.301)">
      <g id="Grupo_9" data-name="Grupo 9" clip-path="url(#clip-path-3)">
        <rect id="Rectángulo_27" data-name="Rectángulo 27" width="137.742" height="137.742" transform="translate(-48.699 48.699) rotate(-45)" fill="url(#linear-gradient-2)"/>
      </g>
    </g>
    <g id="Grupo_12" data-name="Grupo 12" transform="translate(4.033 4.035)">
      <g id="Grupo_11" data-name="Grupo 11" clip-path="url(#clip-path-4)">
        <rect id="Rectángulo_28" data-name="Rectángulo 28" width="95.933" height="95.932" transform="translate(0 0)" fill="url(#radial-gradient)"/>
      </g>
    </g>
    <g id="Grupo_14" data-name="Grupo 14" transform="translate(5.777 5.778)">
      <g id="Grupo_13" data-name="Grupo 13" clip-path="url(#clip-path-5)">
        <rect id="Rectángulo_29" data-name="Rectángulo 29" width="130.188" height="130.188" transform="matrix(0.639, -0.769, 0.769, 0.639, -45.448, 54.647)" fill="url(#linear-gradient-3)"/>
      </g>
    </g>
    <g id="Grupo_16" data-name="Grupo 16" transform="translate(6.709 6.709)">
      <g id="Grupo_15" data-name="Grupo 15" clip-path="url(#clip-path-6)">
        <rect id="Rectángulo_30" data-name="Rectángulo 30" width="125.701" height="125.701" transform="translate(-41.926 28.159) rotate(-33.887)" fill="url(#linear-gradient-4)"/>
      </g>
    </g>
    <g id="Grupo_18" data-name="Grupo 18" transform="translate(19.905 19.907)">
      <g id="Grupo_17" data-name="Grupo 17" clip-path="url(#clip-path-7)">
        <rect id="Rectángulo_31" data-name="Rectángulo 31" width="64.189" height="64.187" transform="translate(0 0)" fill="url(#radial-gradient-2)"/>
      </g>
    </g>
    <g id="Grupo_20" data-name="Grupo 20" transform="translate(21.273 21.273)">
      <g id="Grupo_19" data-name="Grupo 19" clip-path="url(#clip-path-8)">
        <rect id="Rectángulo_32" data-name="Rectángulo 32" width="85.037" height="85.037" transform="translate(-28.107 18.311) rotate(-33.083)" fill="url(#linear-gradient-5)"/>
      </g>
    </g>
    <g id="Grupo_110" data-name="Grupo 110">
      <g id="Grupo_109" data-name="Grupo 109" clip-path="url(#clip-path)">
        <g id="Grupo_25" data-name="Grupo 25" transform="translate(21.273 21.273)" style="mix-blend-mode: screen;isolation: isolate">
          <g id="Grupo_24" data-name="Grupo 24">
            <g id="Grupo_23" data-name="Grupo 23" clip-path="url(#clip-path-10)">
              <g id="Grupo_22" data-name="Grupo 22" transform="translate(0 0)">
                <g id="Grupo_21" data-name="Grupo 21" clip-path="url(#clip-path-11)">
                  <rect id="Rectángulo_33" data-name="Rectángulo 33" width="54.831" height="54.786" transform="translate(0 0)" fill="url(#radial-gradient-3)"/>
                </g>
              </g>
            </g>
          </g>
        </g>
        <g id="Grupo_108" data-name="Grupo 108" transform="translate(10.378 9.913)" opacity="0.6" style="mix-blend-mode: screen;isolation: isolate">
          <g id="Grupo_107" data-name="Grupo 107">
            <g id="Grupo_106" data-name="Grupo 106" clip-path="url(#clip-path-12)">
              <g id="Grupo_27" data-name="Grupo 27" transform="translate(11.134 11.624)">
                <g id="Grupo_26" data-name="Grupo 26" clip-path="url(#clip-path-13)">
                  <rect id="Rectángulo_35" data-name="Rectángulo 35" width="8.939" height="8.652" transform="matrix(0.596, -0.803, 0.803, 0.596, -3.339, 4.497)" fill="url(#linear-gradient-6)"/>
                </g>
              </g>
              <g id="Grupo_29" data-name="Grupo 29" transform="translate(14.9 8.294)">
                <g id="Grupo_28" data-name="Grupo 28" clip-path="url(#clip-path-14)">
                  <rect id="Rectángulo_36" data-name="Rectángulo 36" width="10.262" height="10.254" transform="translate(-3.517 4.732) rotate(-53.442)" fill="url(#linear-gradient-7)"/>
                </g>
              </g>
              <g id="Grupo_31" data-name="Grupo 31" transform="translate(19.257 5.382)">
                <g id="Grupo_30" data-name="Grupo 30" clip-path="url(#clip-path-15)">
                  <rect id="Rectángulo_37" data-name="Rectángulo 37" width="9.604" height="9.27" transform="matrix(0.596, -0.803, 0.803, 0.596, -3.612, 4.871)" fill="url(#linear-gradient-8)"/>
                </g>
              </g>
              <g id="Grupo_33" data-name="Grupo 33" transform="translate(23.004 2.745)">
                <g id="Grupo_32" data-name="Grupo 32" clip-path="url(#clip-path-16)">
                  <rect id="Rectángulo_38" data-name="Rectángulo 38" width="10.919" height="10.61" transform="translate(-4.037 5.444) rotate(-53.442)" fill="url(#linear-gradient-9)"/>
                </g>
              </g>
              <g id="Grupo_35" data-name="Grupo 35" transform="translate(28.999 1.921)">
                <g id="Grupo_34" data-name="Grupo 34" transform="translate(0 0)" clip-path="url(#clip-path-17)">
                  <rect id="Rectángulo_39" data-name="Rectángulo 39" width="7.405" height="6.504" transform="translate(-3.417 4.609) rotate(-53.442)" fill="url(#linear-gradient-10)"/>
                </g>
              </g>
              <g id="Grupo_37" data-name="Grupo 37" transform="translate(31.434 0.602)">
                <g id="Grupo_36" data-name="Grupo 36" clip-path="url(#clip-path-18)">
                  <rect id="Rectángulo_41" data-name="Rectángulo 41" width="9.168" height="8.612" transform="matrix(0.596, -0.803, 0.803, 0.596, -3.681, 4.964)" fill="url(#linear-gradient-11)"/>
                </g>
              </g>
              <g id="Grupo_39" data-name="Grupo 39" transform="translate(37.298 0)">
                <g id="Grupo_38" data-name="Grupo 38" clip-path="url(#clip-path-19)">
                  <rect id="Rectángulo_42" data-name="Rectángulo 42" width="8.937" height="8.375" transform="translate(-3.608 4.866) rotate(-53.442)" fill="url(#linear-gradient-12)"/>
                </g>
              </g>
              <g id="Grupo_41" data-name="Grupo 41" transform="translate(45.343 0.333)">
                <g id="Grupo_40" data-name="Grupo 40" clip-path="url(#clip-path-20)">
                  <rect id="Rectángulo_43" data-name="Rectángulo 43" width="9.43" height="8.569" transform="translate(-4.232 5.475) rotate(-53.442)" fill="url(#linear-gradient-13)"/>
                </g>
              </g>
              <g id="Grupo_43" data-name="Grupo 43" transform="translate(50.146 1.134)">
                <g id="Grupo_42" data-name="Grupo 42" clip-path="url(#clip-path-21)">
                  <rect id="Rectángulo_44" data-name="Rectángulo 44" width="9.485" height="8.909" transform="matrix(0.596, -0.803, 0.803, 0.596, -3.819, 5.137)" fill="url(#linear-gradient-14)"/>
                </g>
              </g>
              <g id="Grupo_45" data-name="Grupo 45" transform="translate(54.114 3.29)">
                <g id="Grupo_44" data-name="Grupo 44" clip-path="url(#clip-path-22)">
                  <rect id="Rectángulo_45" data-name="Rectángulo 45" width="9.054" height="8.507" transform="matrix(0.596, -0.803, 0.803, 0.596, -3.633, 4.9)" fill="url(#linear-gradient-15)"/>
                </g>
              </g>
              <g id="Grupo_47" data-name="Grupo 47" transform="translate(58.296 4.956)">
                <g id="Grupo_46" data-name="Grupo 46" clip-path="url(#clip-path-23)">
                  <rect id="Rectángulo_46" data-name="Rectángulo 46" width="8.614" height="7.878" transform="translate(-3.667 4.946) rotate(-53.442)" fill="url(#linear-gradient-16)"/>
                </g>
              </g>
              <g id="Grupo_49" data-name="Grupo 49" transform="translate(61.178 6.945)">
                <g id="Grupo_48" data-name="Grupo 48" transform="translate(0 0)" clip-path="url(#clip-path-24)">
                  <rect id="Rectángulo_47" data-name="Rectángulo 47" width="7.88" height="7.495" transform="matrix(0.596, -0.803, 0.803, 0.596, -3.073, 4.145)" fill="url(#linear-gradient-17)"/>
                </g>
              </g>
              <g id="Grupo_51" data-name="Grupo 51" transform="translate(63.324 7.906)">
                <g id="Grupo_50" data-name="Grupo 50" clip-path="url(#clip-path-25)">
                  <rect id="Rectángulo_49" data-name="Rectángulo 49" width="9.276" height="9.088" transform="matrix(0.596, -0.803, 0.803, 0.596, -3.357, 4.528)" fill="url(#linear-gradient-18)"/>
                </g>
              </g>
              <g id="Grupo_53" data-name="Grupo 53" transform="translate(66.057 10.47)">
                <g id="Grupo_52" data-name="Grupo 52" clip-path="url(#clip-path-26)">
                  <rect id="Rectángulo_50" data-name="Rectángulo 50" width="9.411" height="9.368" transform="translate(-3.261 4.398) rotate(-53.442)" fill="url(#linear-gradient-19)"/>
                </g>
              </g>
              <g id="Grupo_55" data-name="Grupo 55" transform="translate(11.862 67.326)">
                <g id="Grupo_54" data-name="Grupo 54" clip-path="url(#clip-path-27)">
                  <rect id="Rectángulo_51" data-name="Rectángulo 51" width="8.692" height="8.904" transform="translate(-2.765 3.729) rotate(-53.442)" fill="url(#linear-gradient-20)"/>
                </g>
              </g>
              <g id="Grupo_57" data-name="Grupo 57" transform="translate(15.552 70.019)">
                <g id="Grupo_56" data-name="Grupo 56" clip-path="url(#clip-path-28)">
                  <rect id="Rectángulo_52" data-name="Rectángulo 52" width="10.269" height="9.96" transform="matrix(0.596, -0.803, 0.803, 0.596, -3.815, 5.144)" fill="url(#linear-gradient-21)"/>
                </g>
              </g>
              <g id="Grupo_59" data-name="Grupo 59" transform="translate(19.761 72.475)">
                <g id="Grupo_58" data-name="Grupo 58" clip-path="url(#clip-path-29)">
                  <rect id="Rectángulo_53" data-name="Rectángulo 53" width="9.493" height="9.127" transform="translate(-3.606 4.863) rotate(-53.442)" fill="url(#linear-gradient-22)"/>
                </g>
              </g>
              <g id="Grupo_61" data-name="Grupo 61" transform="translate(23.294 74.048)">
                <g id="Grupo_60" data-name="Grupo 60" clip-path="url(#clip-path-30)">
                  <rect id="Rectángulo_54" data-name="Rectángulo 54" width="10.781" height="10.462" transform="matrix(0.596, -0.803, 0.803, 0.596, -4.001, 5.395)" fill="url(#linear-gradient-23)"/>
                </g>
              </g>
              <g id="Grupo_63" data-name="Grupo 63" transform="translate(29.091 76.028)">
                <g id="Grupo_62" data-name="Grupo 62" transform="translate(0 0)" clip-path="url(#clip-path-31)">
                  <rect id="Rectángulo_55" data-name="Rectángulo 55" width="7.331" height="6.42" transform="translate(-3.401 4.586) rotate(-53.442)" fill="url(#linear-gradient-24)"/>
                </g>
              </g>
              <g id="Grupo_65" data-name="Grupo 65" transform="translate(31.596 76.536)">
                <g id="Grupo_64" data-name="Grupo 64" clip-path="url(#clip-path-32)">
                  <rect id="Rectángulo_57" data-name="Rectángulo 57" width="9.139" height="8.51" transform="translate(-3.747 5.048) rotate(-53.442)" fill="url(#linear-gradient-25)"/>
                </g>
              </g>
              <g id="Grupo_67" data-name="Grupo 67" transform="translate(36.811 77.449)">
                <g id="Grupo_66" data-name="Grupo 66" clip-path="url(#clip-path-33)">
                  <rect id="Rectángulo_58" data-name="Rectángulo 58" width="8.951" height="8.399" transform="matrix(0.596, -0.803, 0.803, 0.596, -3.603, 4.859)" fill="url(#linear-gradient-26)"/>
                </g>
              </g>
              <g id="Grupo_69" data-name="Grupo 69" transform="translate(44.519 77.354)">
                <g id="Grupo_68" data-name="Grupo 68" clip-path="url(#clip-path-34)">
                  <rect id="Rectángulo_59" data-name="Rectángulo 59" width="9.052" height="8.308" transform="translate(-3.833 5.146) rotate(-53.442)" fill="url(#linear-gradient-27)"/>
                </g>
              </g>
              <g id="Grupo_71" data-name="Grupo 71" transform="translate(48.774 76.252)">
                <g id="Grupo_70" data-name="Grupo 70" clip-path="url(#clip-path-35)">
                  <rect id="Rectángulo_60" data-name="Rectángulo 60" width="9.232" height="8.713" transform="translate(-3.667 4.945) rotate(-53.442)" fill="url(#linear-gradient-28)"/>
                </g>
              </g>
              <g id="Grupo_73" data-name="Grupo 73" transform="translate(54.265 75.282)">
                <g id="Grupo_72" data-name="Grupo 72" clip-path="url(#clip-path-36)">
                  <rect id="Rectángulo_61" data-name="Rectángulo 61" width="8.855" height="8.25" transform="translate(-3.622 4.884) rotate(-53.442)" fill="url(#linear-gradient-29)"/>
                </g>
              </g>
              <g id="Grupo_75" data-name="Grupo 75" transform="translate(57.001 74.186)">
                <g id="Grupo_74" data-name="Grupo 74" clip-path="url(#clip-path-37)">
                  <rect id="Rectángulo_62" data-name="Rectángulo 62" width="8.768" height="8.52" transform="matrix(0.596, -0.803, 0.803, 0.596, -3.242, 4.372)" fill="url(#linear-gradient-30)"/>
                </g>
              </g>
              <g id="Grupo_77" data-name="Grupo 77" transform="translate(59.87 72.66)">
                <g id="Grupo_76" data-name="Grupo 76" transform="translate(0 0)" clip-path="url(#clip-path-38)">
                  <rect id="Rectángulo_63" data-name="Rectángulo 63" width="7.78" height="7.286" transform="matrix(0.596, -0.803, 0.803, 0.596, -3.146, 4.242)" fill="url(#linear-gradient-31)"/>
                </g>
              </g>
              <g id="Grupo_79" data-name="Grupo 79" transform="translate(60.82 70.52)">
                <g id="Grupo_78" data-name="Grupo 78" clip-path="url(#clip-path-39)">
                  <rect id="Rectángulo_65" data-name="Rectángulo 65" width="9.169" height="8.881" transform="translate(-3.418 4.61) rotate(-53.442)" fill="url(#linear-gradient-32)"/>
                </g>
              </g>
              <g id="Grupo_81" data-name="Grupo 81" transform="translate(63.5 68.286)">
                <g id="Grupo_80" data-name="Grupo 80" clip-path="url(#clip-path-40)">
                  <rect id="Rectángulo_66" data-name="Rectángulo 66" width="9.355" height="9.22" transform="matrix(0.596, -0.803, 0.803, 0.596, -3.332, 4.494)" fill="url(#linear-gradient-33)"/>
                </g>
              </g>
              <g id="Grupo_83" data-name="Grupo 83" transform="translate(0 38.112)">
                <g id="Grupo_82" data-name="Grupo 82" clip-path="url(#clip-path-41)">
                  <rect id="Rectángulo_67" data-name="Rectángulo 67" width="9.996" height="10.071" transform="matrix(0.596, -0.803, 0.803, 0.596, -3.346, 4.512)" fill="url(#linear-gradient-34)"/>
                </g>
              </g>
              <g id="Grupo_85" data-name="Grupo 85" transform="translate(77.677 38.112)">
                <g id="Grupo_84" data-name="Grupo 84" clip-path="url(#clip-path-42)">
                  <rect id="Rectángulo_68" data-name="Rectángulo 68" width="9.996" height="10.071" transform="matrix(0.596, -0.803, 0.803, 0.596, -3.346, 4.512)" fill="url(#linear-gradient-35)"/>
                </g>
              </g>
              <g id="Grupo_87" data-name="Grupo 87" transform="translate(18.368 41.811)">
                <g id="Grupo_86" data-name="Grupo 86" clip-path="url(#clip-path-43)">
                  <rect id="Rectángulo_69" data-name="Rectángulo 69" width="17.051" height="15.305" transform="translate(-7.544 10.174) rotate(-53.442)" fill="url(#linear-gradient-36)"/>
                </g>
              </g>
              <g id="Grupo_89" data-name="Grupo 89" transform="translate(27.634 41.983)">
                <g id="Grupo_88" data-name="Grupo 88" clip-path="url(#clip-path-44)">
                  <rect id="Rectángulo_70" data-name="Rectángulo 70" width="16.806" height="15.156" transform="matrix(0.596, -0.803, 0.803, 0.596, -7.368, 9.936)" fill="url(#linear-gradient-37)"/>
                </g>
              </g>
              <g id="Grupo_91" data-name="Grupo 91" transform="translate(37.134 41.786)">
                <g id="Grupo_90" data-name="Grupo 90" clip-path="url(#clip-path-45)">
                  <rect id="Rectángulo_71" data-name="Rectángulo 71" width="17.061" height="15.313" transform="matrix(0.596, -0.803, 0.803, 0.596, -7.55, 10.182)" fill="url(#linear-gradient-38)"/>
                </g>
              </g>
              <g id="Grupo_93" data-name="Grupo 93" transform="translate(46.549 41.983)">
                <g id="Grupo_92" data-name="Grupo 92" clip-path="url(#clip-path-46)">
                  <rect id="Rectángulo_72" data-name="Rectángulo 72" width="13.753" height="11.038" transform="matrix(0.596, -0.803, 0.803, 0.596, -7.368, 9.936)" fill="url(#linear-gradient-39)"/>
                </g>
              </g>
              <g id="Grupo_95" data-name="Grupo 95" transform="translate(50.924 41.811)">
                <g id="Grupo_94" data-name="Grupo 94" clip-path="url(#clip-path-47)">
                  <rect id="Rectángulo_74" data-name="Rectángulo 74" width="17.051" height="15.306" transform="matrix(0.596, -0.803, 0.803, 0.596, -7.544, 10.174)" fill="url(#linear-gradient-40)"/>
                </g>
              </g>
              <g id="Grupo_97" data-name="Grupo 97" transform="translate(60.191 41.971)">
                <g id="Grupo_96" data-name="Grupo 96" clip-path="url(#clip-path-48)">
                  <rect id="Rectángulo_75" data-name="Rectángulo 75" width="16.318" height="14.491" transform="translate(-7.374 9.944) rotate(-53.442)" fill="url(#linear-gradient-41)"/>
                </g>
              </g>
              <g id="Grupo_99" data-name="Grupo 99" transform="translate(23.4 24.654)">
                <g id="Grupo_98" data-name="Grupo 98" clip-path="url(#clip-path-49)">
                  <rect id="Rectángulo_76" data-name="Rectángulo 76" width="23.035" height="23.294" transform="translate(-7.624 10.282) rotate(-53.442)" fill="url(#linear-gradient-42)"/>
                </g>
              </g>
              <g id="Grupo_101" data-name="Grupo 101" transform="translate(39.238 31.854)">
                <g id="Grupo_100" data-name="Grupo 100" clip-path="url(#clip-path-50)">
                  <rect id="Rectángulo_77" data-name="Rectángulo 77" width="11.332" height="11.561" transform="matrix(0.596, -0.803, 0.803, 0.596, -3.651, 4.924)" fill="url(#linear-gradient-43)"/>
                </g>
              </g>
              <g id="Grupo_103" data-name="Grupo 103" transform="translate(46.653 30.078)">
                <g id="Grupo_102" data-name="Grupo 102" clip-path="url(#clip-path-51)">
                  <rect id="Rectángulo_78" data-name="Rectángulo 78" width="13.426" height="13.097" transform="matrix(0.596, -0.803, 0.803, 0.596, -4.914, 6.627)" fill="url(#linear-gradient-44)"/>
                </g>
              </g>
              <g id="Grupo_105" data-name="Grupo 105" transform="translate(53.757 28.374)">
                <g id="Grupo_104" data-name="Grupo 104" clip-path="url(#clip-path-52)">
                  <rect id="Rectángulo_79" data-name="Rectángulo 79" width="13.122" height="12.325" transform="matrix(0.596, -0.803, 0.803, 0.596, -5.27, 7.107)" fill="url(#linear-gradient-45)"/>
                </g>
              </g>
            </g>
          </g>
        </g>
      </g>
    </g>
    <g id="Grupo_112" data-name="Grupo 112" transform="translate(21.076 21.217)">
      <g id="Grupo_111" data-name="Grupo 111" clip-path="url(#clip-path-53)">
        <rect id="Rectángulo_82" data-name="Rectángulo 82" width="5.596" height="6.973" transform="translate(0 0)" fill="url(#radial-gradient-4)"/>
      </g>
    </g>
    <g id="Grupo_114" data-name="Grupo 114" transform="translate(24.843 17.887)">
      <g id="Grupo_113" data-name="Grupo 113" clip-path="url(#clip-path-54)">
        <rect id="Rectángulo_83" data-name="Rectángulo 83" width="7.314" height="7.34" transform="translate(0 0)" fill="url(#radial-gradient-5)"/>
      </g>
    </g>
    <g id="Grupo_116" data-name="Grupo 116" transform="translate(29.199 14.975)">
      <g id="Grupo_115" data-name="Grupo 115" clip-path="url(#clip-path-55)">
        <rect id="Rectángulo_84" data-name="Rectángulo 84" width="5.943" height="7.55" transform="translate(0 0)" fill="url(#radial-gradient-6)"/>
      </g>
    </g>
    <g id="Grupo_118" data-name="Grupo 118" transform="translate(32.947 12.339)">
      <g id="Grupo_117" data-name="Grupo 117" clip-path="url(#clip-path-56)">
        <rect id="Rectángulo_85" data-name="Rectángulo 85" width="6.952" height="8.437" fill="url(#radial-gradient-7)"/>
      </g>
    </g>
    <g id="Grupo_120" data-name="Grupo 120" transform="translate(38.941 11.515)">
      <g id="Grupo_119" data-name="Grupo 119" transform="translate(0 0)" clip-path="url(#clip-path-57)">
        <rect id="Rectángulo_86" data-name="Rectángulo 86" width="2.801" height="7.143" transform="translate(0 0.001)" fill="url(#radial-gradient-8)"/>
      </g>
    </g>
    <g id="Grupo_122" data-name="Grupo 122" transform="translate(41.377 10.195)">
      <g id="Grupo_121" data-name="Grupo 121" clip-path="url(#clip-path-58)">
        <rect id="Rectángulo_88" data-name="Rectángulo 88" width="5.016" height="7.695" transform="translate(0 0)" fill="url(#radial-gradient-9)"/>
      </g>
    </g>
    <g id="Grupo_124" data-name="Grupo 124" transform="translate(47.24 9.593)">
      <g id="Grupo_123" data-name="Grupo 123" clip-path="url(#clip-path-59)">
        <rect id="Rectángulo_89" data-name="Rectángulo 89" width="4.834" height="7.541" transform="translate(0 0)" fill="url(#radial-gradient-10)"/>
      </g>
    </g>
    <g id="Grupo_126" data-name="Grupo 126" transform="translate(55.285 9.926)">
      <g id="Grupo_125" data-name="Grupo 125" clip-path="url(#clip-path-60)">
        <rect id="Rectángulo_90" data-name="Rectángulo 90" width="4.361" height="8.493" transform="translate(-0.162 0)" fill="url(#radial-gradient-11)"/>
      </g>
    </g>
    <g id="Grupo_128" data-name="Grupo 128" transform="translate(60.089 10.727)">
      <g id="Grupo_127" data-name="Grupo 127" clip-path="url(#clip-path-61)">
        <rect id="Rectángulo_91" data-name="Rectángulo 91" width="5.187" height="7.962" transform="translate(-0.01 0)" fill="url(#radial-gradient-12)"/>
      </g>
    </g>
    <g id="Grupo_130" data-name="Grupo 130" transform="translate(64.056 12.883)">
      <g id="Grupo_129" data-name="Grupo 129" clip-path="url(#clip-path-62)">
        <rect id="Rectángulo_92" data-name="Rectángulo 92" width="4.96" height="7.595" transform="translate(0 0)" fill="url(#radial-gradient-13)"/>
      </g>
    </g>
    <g id="Grupo_132" data-name="Grupo 132" transform="translate(68.238 14.549)">
      <g id="Grupo_131" data-name="Grupo 131" clip-path="url(#clip-path-63)">
        <rect id="Rectángulo_93" data-name="Rectángulo 93" width="4.125" height="7.667" transform="translate(0)" fill="url(#radial-gradient-14)"/>
      </g>
    </g>
    <g id="Grupo_134" data-name="Grupo 134" transform="translate(71.123 16.537)">
      <g id="Grupo_133" data-name="Grupo 133" transform="translate(0 0)" clip-path="url(#clip-path-64)">
        <rect id="Rectángulo_94" data-name="Rectángulo 94" width="4.567" height="6.423" transform="translate(-0.004 0.002)" fill="url(#radial-gradient-15)"/>
      </g>
    </g>
    <g id="Grupo_136" data-name="Grupo 136" transform="translate(73.266 17.5)">
      <g id="Grupo_135" data-name="Grupo 135" clip-path="url(#clip-path-65)">
        <rect id="Rectángulo_96" data-name="Rectángulo 96" width="6.11" height="7.017" transform="translate(0)" fill="url(#radial-gradient-16)"/>
      </g>
    </g>
    <g id="Grupo_138" data-name="Grupo 138" transform="translate(76 20.064)">
      <g id="Grupo_137" data-name="Grupo 137" clip-path="url(#clip-path-66)">
        <rect id="Rectángulo_97" data-name="Rectángulo 97" width="6.609" height="6.816" transform="translate(0 0)" fill="url(#radial-gradient-17)"/>
      </g>
    </g>
    <g id="Grupo_140" data-name="Grupo 140" transform="translate(21.805 76.919)">
      <g id="Grupo_139" data-name="Grupo 139" clip-path="url(#clip-path-67)">
        <rect id="Rectángulo_98" data-name="Rectángulo 98" width="6.799" height="5.779" transform="translate(0)" fill="url(#radial-gradient-18)"/>
      </g>
    </g>
    <g id="Grupo_142" data-name="Grupo 142" transform="translate(25.494 79.612)">
      <g id="Grupo_141" data-name="Grupo 141" clip-path="url(#clip-path-68)">
        <rect id="Rectángulo_99" data-name="Rectángulo 99" width="6.488" height="7.973" transform="translate(0 0)" fill="url(#radial-gradient-19)"/>
      </g>
    </g>
    <g id="Grupo_144" data-name="Grupo 144" transform="translate(29.703 82.069)">
      <g id="Grupo_143" data-name="Grupo 143" clip-path="url(#clip-path-69)">
        <rect id="Rectángulo_100" data-name="Rectángulo 100" width="5.773" height="7.537" fill="url(#radial-gradient-20)"/>
      </g>
    </g>
    <g id="Grupo_146" data-name="Grupo 146" transform="translate(33.235 83.642)">
      <g id="Grupo_145" data-name="Grupo 145" clip-path="url(#clip-path-70)">
        <rect id="Rectángulo_101" data-name="Rectángulo 101" width="6.825" height="8.362" transform="translate(0 0)" fill="url(#radial-gradient-21)"/>
      </g>
    </g>
    <g id="Grupo_148" data-name="Grupo 148" transform="translate(39.034 85.622)">
      <g id="Grupo_147" data-name="Grupo 147" transform="translate(0)" clip-path="url(#clip-path-71)">
        <rect id="Rectángulo_102" data-name="Rectángulo 102" width="2.723" height="7.108" transform="translate(-0.001 0)" fill="url(#radial-gradient-22)"/>
      </g>
    </g>
    <g id="Grupo_150" data-name="Grupo 150" transform="translate(41.538 86.131)">
      <g id="Grupo_149" data-name="Grupo 149" clip-path="url(#clip-path-72)">
        <rect id="Rectángulo_104" data-name="Rectángulo 104" width="4.792" height="7.823" transform="translate(-0.003)" fill="url(#radial-gradient-23)"/>
      </g>
    </g>
    <g id="Grupo_152" data-name="Grupo 152" transform="translate(46.753 87.042)">
      <g id="Grupo_151" data-name="Grupo 151" clip-path="url(#clip-path-73)">
        <rect id="Rectángulo_105" data-name="Rectángulo 105" width="4.873" height="7.53" fill="url(#radial-gradient-24)"/>
      </g>
    </g>
    <g id="Grupo_154" data-name="Grupo 154" transform="translate(54.462 86.947)">
      <g id="Grupo_153" data-name="Grupo 153" clip-path="url(#clip-path-74)">
        <rect id="Rectángulo_106" data-name="Rectángulo 106" width="4.413" height="7.982" transform="translate(-0.007)" fill="url(#radial-gradient-25)"/>
      </g>
    </g>
    <g id="Grupo_156" data-name="Grupo 156" transform="translate(58.715 85.846)">
      <g id="Grupo_155" data-name="Grupo 155" clip-path="url(#clip-path-75)">
        <rect id="Rectángulo_107" data-name="Rectángulo 107" width="5.165" height="7.665" transform="translate(0)" fill="url(#radial-gradient-26)"/>
      </g>
    </g>
    <g id="Grupo_158" data-name="Grupo 158" transform="translate(64.207 84.876)">
      <g id="Grupo_157" data-name="Grupo 157" clip-path="url(#clip-path-76)">
        <rect id="Rectángulo_108" data-name="Rectángulo 108" width="4.658" height="7.569" transform="translate(0)" fill="url(#radial-gradient-27)"/>
      </g>
    </g>
    <g id="Grupo_160" data-name="Grupo 160" transform="translate(66.944 83.779)">
      <g id="Grupo_159" data-name="Grupo 159" clip-path="url(#clip-path-77)">
        <rect id="Rectángulo_109" data-name="Rectángulo 109" width="5.583" height="6.776" transform="translate(0 0)" fill="url(#radial-gradient-28)"/>
      </g>
    </g>
    <g id="Grupo_162" data-name="Grupo 162" transform="translate(69.813 82.254)">
      <g id="Grupo_161" data-name="Grupo 161" transform="translate(0 0)" clip-path="url(#clip-path-78)">
        <rect id="Rectángulo_110" data-name="Rectángulo 110" width="4.195" height="6.575" transform="translate(0 0)" fill="url(#radial-gradient-29)"/>
      </g>
    </g>
    <g id="Grupo_164" data-name="Grupo 164" transform="translate(70.762 80.113)">
      <g id="Grupo_163" data-name="Grupo 163" clip-path="url(#clip-path-79)">
        <rect id="Rectángulo_112" data-name="Rectángulo 112" width="5.758" height="7.145" transform="translate(0)" fill="url(#radial-gradient-30)"/>
      </g>
    </g>
    <g id="Grupo_166" data-name="Grupo 166" transform="translate(73.443 77.879)">
      <g id="Grupo_165" data-name="Grupo 165" clip-path="url(#clip-path-80)">
        <rect id="Rectángulo_113" data-name="Rectángulo 113" width="6.313" height="6.965" transform="translate(0 0)" fill="url(#radial-gradient-31)"/>
      </g>
    </g>
    <g id="Grupo_168" data-name="Grupo 168" transform="translate(9.941 47.706)">
      <g id="Grupo_167" data-name="Grupo 167" clip-path="url(#clip-path-81)">
        <rect id="Rectángulo_114" data-name="Rectángulo 114" width="7.353" height="6.993" transform="translate(0)" fill="url(#radial-gradient-32)"/>
      </g>
    </g>
    <g id="Grupo_170" data-name="Grupo 170" transform="translate(87.618 47.706)">
      <g id="Grupo_169" data-name="Grupo 169" clip-path="url(#clip-path-82)">
        <rect id="Rectángulo_115" data-name="Rectángulo 115" width="7.352" height="6.993" transform="translate(0)" fill="url(#radial-gradient-33)"/>
      </g>
    </g>
    <g id="Grupo_172" data-name="Grupo 172" transform="translate(28.309 51.404)">
      <g id="Grupo_171" data-name="Grupo 171" clip-path="url(#clip-path-83)">
        <rect id="Rectángulo_116" data-name="Rectángulo 116" width="7.363" height="15.769" transform="translate(0 0)" fill="url(#radial-gradient-34)"/>
      </g>
    </g>
    <g id="Grupo_174" data-name="Grupo 174" transform="translate(37.576 51.576)">
      <g id="Grupo_173" data-name="Grupo 173" clip-path="url(#clip-path-84)">
        <rect id="Rectángulo_117" data-name="Rectángulo 117" width="7.449" height="15.4" transform="translate(0 0)" fill="url(#radial-gradient-35)"/>
      </g>
    </g>
    <g id="Grupo_176" data-name="Grupo 176" transform="translate(47.077 51.379)">
      <g id="Grupo_175" data-name="Grupo 175" clip-path="url(#clip-path-85)">
        <rect id="Rectángulo_118" data-name="Rectángulo 118" width="7.362" height="15.781" transform="translate(0 0)" fill="url(#radial-gradient-36)"/>
      </g>
    </g>
    <g id="Grupo_178" data-name="Grupo 178" transform="translate(56.491 51.576)">
      <g id="Grupo_177" data-name="Grupo 177" clip-path="url(#clip-path-86)">
        <rect id="Rectángulo_119" data-name="Rectángulo 119" width="2.322" height="15.4" transform="translate(0 0)" fill="url(#radial-gradient-37)"/>
      </g>
    </g>
    <g id="Grupo_180" data-name="Grupo 180" transform="translate(60.867 51.404)">
      <g id="Grupo_179" data-name="Grupo 179" clip-path="url(#clip-path-87)">
        <rect id="Rectángulo_121" data-name="Rectángulo 121" width="7.362" height="15.769" fill="url(#radial-gradient-38)"/>
      </g>
    </g>
    <g id="Grupo_182" data-name="Grupo 182" transform="translate(70.134 51.564)">
      <g id="Grupo_181" data-name="Grupo 181" clip-path="url(#clip-path-88)">
        <rect id="Rectángulo_122" data-name="Rectángulo 122" width="6.611" height="15.412" transform="translate(0 0)" fill="url(#radial-gradient-39)"/>
      </g>
    </g>
    <g id="Grupo_184" data-name="Grupo 184" transform="translate(33.342 34.248)">
      <g id="Grupo_183" data-name="Grupo 183" clip-path="url(#clip-path-89)">
        <rect id="Rectángulo_123" data-name="Rectángulo 123" width="17.184" height="15.935" transform="translate(0 0)" fill="url(#radial-gradient-40)"/>
      </g>
    </g>
    <g id="Grupo_186" data-name="Grupo 186" transform="translate(49.181 41.448)">
      <g id="Grupo_185" data-name="Grupo 185" clip-path="url(#clip-path-90)">
        <rect id="Rectángulo_124" data-name="Rectángulo 124" width="8.736" height="7.631" transform="translate(0 0)" fill="url(#radial-gradient-41)"/>
      </g>
    </g>
    <g id="Grupo_188" data-name="Grupo 188" transform="translate(56.597 39.672)">
      <g id="Grupo_187" data-name="Grupo 187" clip-path="url(#clip-path-91)">
        <rect id="Rectángulo_125" data-name="Rectángulo 125" width="8.687" height="10.271" transform="translate(0 0)" fill="url(#radial-gradient-42)"/>
      </g>
    </g>
    <g id="Grupo_190" data-name="Grupo 190" transform="translate(63.7 37.968)">
      <g id="Grupo_189" data-name="Grupo 189" clip-path="url(#clip-path-92)">
        <rect id="Rectángulo_126" data-name="Rectángulo 126" width="7.175" height="11.015" transform="translate(0 0)" fill="url(#radial-gradient-43)"/>
      </g>
    </g>
  </g>
</svg>
