<svg id="Grupo_328" data-name="Grupo 328" xmlns="http://www.w3.org/2000/svg" xmlns:xlink="http://www.w3.org/1999/xlink" width="28.5" height="12.771" viewBox="0 0 28.5 12.771">
  <defs>
    <clipPath id="clip-path">
      <rect id="Rectángulo_221" data-name="Rectángulo 221" width="28.5" height="12.771" fill="#686868"/>
    </clipPath>
  </defs>
  <g id="Grupo_323" data-name="Grupo 323" clip-path="url(#clip-path)">
    <path id="Trazado_170" data-name="Trazado 170" d="M28.5,6.448c0,.747,0,1.495,0,2.242a1.447,1.447,0,0,1-.825,1.365c-.415.221-.843.416-1.255.64a.8.8,0,0,0-.3.283,3.444,3.444,0,0,1-6.029.027.332.332,0,0,0-.331-.2q-5.512.007-11.023,0a.332.332,0,0,0-.329.2A3.306,3.306,0,0,1,5.325,12.77a3.335,3.335,0,0,1-2.947-1.793.781.781,0,0,0-.3-.282c-.552-.29-1.109-.571-1.672-.838A.63.63,0,0,1,0,9.213C.013,8.149,0,7.084.006,6.019A2.425,2.425,0,0,1,1.9,3.643c1.128-.239,2.259-.488,3.4-.628a13.775,13.775,0,0,1,2.635-.047,2.814,2.814,0,0,0,2.225-.744C10.7,1.74,11.313,1.341,11.9.907A4.49,4.49,0,0,1,14.668,0q4.744.012,9.488,0a2.554,2.554,0,0,1,1.9.785q.834.838,1.672,1.672A2.5,2.5,0,0,1,28.5,4.329c-.009.706,0,1.413,0,2.119M1.942,9.5a3.49,3.49,0,0,1,3.41-3.633,3.342,3.342,0,0,1,2.191.746,3.506,3.506,0,0,1,1.295,3.2H19.673a3.5,3.5,0,0,1,.817-2.749,3.341,3.341,0,0,1,2.592-1.2A3.475,3.475,0,0,1,26.553,9.5c.176-.084.336-.17.5-.238a.7.7,0,0,0,.467-.738c-.015-1.382-.008-2.764,0-4.145a1.643,1.643,0,0,0-.509-1.238c-.491-.479-1-.941-1.448-1.46a2.176,2.176,0,0,0-2.13-.67c.045.1.084.191.128.28.288.576.554,1.164.871,1.723s.027.931-.568.929c-5.823-.019-11.646-.012-17.469-.01a4.486,4.486,0,0,0-.765.035c-1.176.205-2.352.413-3.522.649A1.43,1.43,0,0,0,.99,6.021C.975,6.963.983,7.9.99,8.846a.3.3,0,0,0,.1.227c.273.153.56.284.853.428m3.476-2.62A2.457,2.457,0,1,0,7.864,9.324,2.48,2.48,0,0,0,5.417,6.881m15.22,2.456A2.456,2.456,0,1,0,23.1,6.881a2.482,2.482,0,0,0-2.465,2.456M10.921,2.951h.293q2.377,0,4.754,0c.284,0,.641.085.832-.052s.222-.5.314-.772c.126-.37.243-.742.371-1.134-1.071,0-2.092,0-3.114,0a2.791,2.791,0,0,0-.573.092c-1.179.263-1.94,1.187-2.877,1.863m12.349-.01C22.951,2.3,22.655,1.7,22.346,1.1A.286.286,0,0,0,22.13.989q-1.7-.011-3.408,0a.272.272,0,0,0-.214.112c-.212.6-.408,1.212-.615,1.84Z" transform="translate(0 0)" fill="#686868"/>
    <rect id="Rectángulo_219" data-name="Rectángulo 219" width="1.924" height="0.942" transform="translate(14.278 4.939)" fill="#686868"/>
    <rect id="Rectángulo_220" data-name="Rectángulo 220" width="1.923" height="0.948" transform="translate(18.205 4.936)" fill="#686868"/>
    <path id="Trazado_171" data-name="Trazado 171" d="M49.45,98.837a1.473,1.473,0,1,1,1.478-1.475,1.463,1.463,0,0,1-1.478,1.475m.495-1.47a.489.489,0,1,0-.492.486.514.514,0,0,0,.492-.486" transform="translate(-44.048 -88.026)" fill="#686868"/>
    <path id="Trazado_172" data-name="Trazado 172" d="M266.549,97.361a1.472,1.472,0,1,1-1.451-1.469,1.464,1.464,0,0,1,1.451,1.469m-1.449-.486a.49.49,0,1,0,.465.513.517.517,0,0,0-.465-.513" transform="translate(-241.982 -88.026)" fill="#686868"/>
  </g>
</svg>
