<svg xmlns="http://www.w3.org/2000/svg" xmlns:xlink="http://www.w3.org/1999/xlink" width="31.492" height="42" viewBox="0 0 31.492 42">
  <defs>
    <clipPath id="clip-path">
      <rect id="Rectángulo_187" data-name="Rectángulo 187" width="31.492" height="42" fill="#fff"/>
    </clipPath>
  </defs>
  <g id="Grupo_309" data-name="Grupo 309" clip-path="url(#clip-path)">
    <path id="Trazado_156" data-name="Trazado 156" d="M16.24,0a13.372,13.372,0,0,1,1.414.487,4.118,4.118,0,0,1,1.981,1.995.557.557,0,0,0,.4.231c.434.041.877,0,1.308.054A2.647,2.647,0,0,1,23.787,5.5c0,.108,0,.216,0,.383h.462c1.23,0,2.462-.033,3.69.016a3.6,3.6,0,0,1,3.55,3.609c0,.068,0,.137,0,.205q0,14.27,0,28.54a3.458,3.458,0,0,1-2.036,3.368,3.71,3.71,0,0,1-1.535.355q-12.158.032-24.317.011A3.564,3.564,0,0,1,.007,38.317c-.013-2.324,0-4.647,0-6.971Q0,20.561,0,9.776A3.564,3.564,0,0,1,2.057,6.284a4.67,4.67,0,0,1,1.777-.369C5.1,5.861,6.373,5.9,7.679,5.9c.011-.138.027-.254.029-.371a2.62,2.62,0,0,1,2.733-2.78,1.681,1.681,0,0,0,1.8-.94A3.687,3.687,0,0,1,14.825.088C14.916.067,15,.03,15.092,0ZM7.709,7.634H7.265c-1.121,0-2.242.026-3.362-.007A1.987,1.987,0,0,0,1.768,9.762q.033,14.229.014,28.459a2.7,2.7,0,0,0,.066.688,1.793,1.793,0,0,0,1.967,1.314q11.933,0,23.866,0a2.773,2.773,0,0,0,.728-.075,1.805,1.805,0,0,0,1.306-1.974q0-10.99,0-21.98c0-2.173.006-4.347,0-6.52A1.875,1.875,0,0,0,27.67,7.635c-1.176,0-2.351,0-3.527,0-.106,0-.211.012-.355.021,0,.636,0,1.248,0,1.859,0,.8-.281,1.094-1.077,1.1q-6.992.007-13.983,0c-.733,0-1.014-.292-1.017-1.02,0-.638,0-1.277,0-1.956m14.313,1.2c0-.181,0-.342,0-.5-.01-1.024,0-2.049-.041-3.072a.845.845,0,0,0-.917-.757c-.519-.014-1.038,0-1.558-.005-.937,0-1.085-.107-1.382-.993a2.539,2.539,0,0,0-2.669-1.729A2.5,2.5,0,0,0,13.22,3.656c-.23.68-.452.844-1.163.846-.478,0-.957,0-1.435,0-.841,0-1.157.311-1.163,1.161-.007.956,0,1.913,0,2.87a2.718,2.718,0,0,0,.034.305Z" transform="translate(0)" fill="#fff"/>
    <path id="Trazado_157" data-name="Trazado 157" d="M39.827,122.259c1.08,0,2.159.005,3.239,0a3.378,3.378,0,0,1,3.1,1.719q.736,1.206,1.507,2.39a1.179,1.179,0,0,0,.445.387c.524.261,1.065.49,1.6.734a2.732,2.732,0,0,1,1.71,2.652c0,.451,0,.9,0,1.353a2.747,2.747,0,0,1-2.745,2.943.5.5,0,0,0-.493.312,3.279,3.279,0,0,1-5.951-.013.449.449,0,0,0-.465-.3q-3.444.013-6.888,0a.444.444,0,0,0-.467.283,3.217,3.217,0,0,1-3.007,1.92,3.284,3.284,0,0,1-2.981-1.91.71.71,0,0,0-.449-.318,2.743,2.743,0,0,1-2.455-2.843c0-.41,0-.82,0-1.23a2.716,2.716,0,0,1,2.118-2.758c1.116-.309,2.239-.593,3.349-.921a1.375,1.375,0,0,0,.643-.434c.659-.82,1.294-1.658,1.919-2.5a3.444,3.444,0,0,1,2.955-1.467c1.107.007,2.214,0,3.321,0M28.183,132.59c.038-.11.08-.223.117-.338a3.287,3.287,0,0,1,3.16-2.223,3.2,3.2,0,0,1,3.1,2.286c.079.265.181.362.472.36,2.2-.014,4.4-.007,6.6-.009.118,0,.235-.015.342-.022.044-.136.079-.239.111-.344a3.3,3.3,0,0,1,6.251-.055c.147.453.337.537.773.319a.935.935,0,0,0,.531-.9c0-.506-.016-1.012,0-1.517a1.045,1.045,0,0,0-.7-1.083c-.625-.272-1.257-.531-1.86-.847a2.018,2.018,0,0,1-.719-.626c-.594-.883-1.153-1.79-1.708-2.7a1.673,1.673,0,0,0-1.557-.863q-3.32.023-6.641,0a1.733,1.733,0,0,0-1.5.755c-.719.963-1.463,1.907-2.187,2.866a1.553,1.553,0,0,1-.894.6c-1.265.329-2.524.683-3.784,1.036-.5.14-.757.405-.772.831-.02.559-.025,1.121,0,1.68a.8.8,0,0,0,.866.793m3.244-.833a1.551,1.551,0,1,0,1.55,1.54,1.584,1.584,0,0,0-1.55-1.54m15.336,1.564a1.54,1.54,0,1,0-1.544,1.539,1.564,1.564,0,0,0,1.544-1.539" transform="translate(-22.725 -108.872)" fill="#fff"/>
    <path id="Trazado_158" data-name="Trazado 158" d="M50.281,276.6c-1.175,0-2.351,0-3.526,0-.8,0-1.1-.3-1.1-1.08q0-3.423,0-6.846c0-.745.327-1.086,1.065-1.088q3.567-.009,7.133,0c.73,0,1.067.356,1.068,1.094q0,3.423,0,6.846c0,.752-.32,1.071-1.074,1.074-1.189,0-2.378,0-3.567,0m-2.856-1.77h5.693v-5.444H47.425Z" transform="translate(-40.655 -238.287)" fill="#fff"/>
    <path id="Trazado_159" data-name="Trazado 159" d="M148.5,318.862c-1.406,0-2.812,0-4.219,0a2.065,2.065,0,0,1-.6-.08.816.816,0,0,1-.557-.86.8.8,0,0,1,.625-.767,2.282,2.282,0,0,1,.565-.066q4.218-.006,8.437,0c.068,0,.137,0,.2,0a.93.93,0,0,1,.984.926.909.909,0,0,1-1.014.849c-1.474.008-2.949,0-4.423,0" transform="translate(-127.446 -282.367)" fill="#fff"/>
    <path id="Trazado_160" data-name="Trazado 160" d="M146.662,285.4c-.848,0-1.7,0-2.543,0-.612,0-.994-.323-1.011-.837a.872.872,0,0,1,.982-.908q2.6-.019,5.208,0a.878.878,0,0,1,.975.878c0,.527-.4.864-1.028.866-.861,0-1.722,0-2.584,0" transform="translate(-127.439 -252.592)" fill="#fff"/>
    <path id="Trazado_161" data-name="Trazado 161" d="M69.791,293.655c.332-.374.653-.744.983-1.105a.891.891,0,1,1,1.321,1.169c-.467.553-.938,1.1-1.42,1.642a.91.91,0,0,1-1.4.142c-.294-.222-.584-.451-.863-.691a.922.922,0,0,1-.219-1.3.906.906,0,0,1,1.316-.064l.285.21" transform="translate(-60.562 -260.166)" fill="#fff"/>
  </g>
</svg>
