<svg id="Grupo_288" data-name="Grupo 288" xmlns="http://www.w3.org/2000/svg" xmlns:xlink="http://www.w3.org/1999/xlink" width="40" height="34.978" viewBox="0 0 40 34.978">
  <defs>
    <clipPath id="clip-path">
      <rect id="Rectángulo_176" data-name="Rectángulo 176" width="40" height="34.978" fill="#b2092a"/>
    </clipPath>
  </defs>
  <g id="Grupo_287" data-name="Grupo 287" clip-path="url(#clip-path)">
    <path id="Trazado_150" data-name="Trazado 150" d="M35.305,13.625H4.712v.606q0,9.342,0,18.684a1.288,1.288,0,0,1-.1.695,1.033,1.033,0,0,1-.666.426c-1.052.045-2.108.03-3.161.017C.271,34.046.041,33.8.006,33.28c-.01-.143,0-.287,0-.431Q0,20.967,0,9.086c0-.917.03-.963.869-1.31Q10.1,3.963,19.334.142A1.53,1.53,0,0,1,20.607.136q9.314,3.853,18.639,7.68c.668.275.753.408.753,1.154q0,12,0,24c0,.892-.2,1.085-1.1,1.086-.879,0-1.757,0-2.635,0-.746,0-.957-.218-.957-.976q0-9.414,0-18.828v-.629M3.233,32.58v-.673q0-10.586,0-21.172c0-.917.211-1.126,1.129-1.126H35.645c.894,0,1.1.205,1.1,1.091q0,10.658,0,21.315v.554h1.8v-.552q0-11.184.01-22.369a.694.694,0,0,0-.517-.76Q29.195,5.269,20.356,1.633a1.085,1.085,0,0,0-.747-.005C13.716,4.045,7.833,6.483,1.939,8.9a.655.655,0,0,0-.481.73q.016,11.208.008,22.417v.535ZM4.74,12.1H35.278v-1H4.74Z" transform="translate(0 0)" fill="#b2092a"/>
    <path id="Trazado_151" data-name="Trazado 151" d="M72.792,130.882H59.3c0,.372,0,.733,0,1.094a1.449,1.449,0,0,1-1.547,1.569q-.958.024-1.917,0a1.435,1.435,0,0,1-1.52-1.535c-.076-1.405-.189-2.809-.3-4.212-.1-1.16-.216-2.318-.324-3.477a3.16,3.16,0,0,1,.593-2.165c.352-.5.681-1.024,1.02-1.535a11.37,11.37,0,0,1-1.365-.29,1.572,1.572,0,0,1-1.13-1.453,1.548,1.548,0,0,1,1.185-1.4,2.119,2.119,0,0,1,2.5.49,21.935,21.935,0,0,0,1.169-2.457,3.283,3.283,0,0,1,3.269-2.245,61.118,61.118,0,0,1,10.19.007,7.745,7.745,0,0,1,1.5.293,2.231,2.231,0,0,1,1.465,1.275c.468,1.029.977,2.038,1.491,3.1a2.194,2.194,0,0,1,2.651-.4,1.46,1.46,0,0,1,1.046,1.4,1.477,1.477,0,0,1-1.093,1.368,9.606,9.606,0,0,1-1.364.318,6.852,6.852,0,0,0,.588.963,4.114,4.114,0,0,1,.9,3.524c-.186,1.192-.136,2.419-.25,3.625-.112,1.182-.3,2.352-.321,3.547a1.3,1.3,0,0,1-1.379,1.255c-.717.031-1.438.032-2.156,0a1.377,1.377,0,0,1-1.4-1.4c-.024-.409,0-.821,0-1.254m-16.418-9.2a2.26,2.26,0,0,1,1.89-.519c1.48.148,2.752,1.932,2.873,3.2.075.79-.247,1.186-1.046,1.172a7.974,7.974,0,0,1-3.4-.873,1.241,1.241,0,0,1-.734-1.238c.01-.37.039-.74.059-1.115a2.278,2.278,0,0,0-.838,2.212c.12,1.493.2,2.99.3,4.485.007.107.025.213.038.327.953.132,1.84.16,2.414-.789a2.415,2.415,0,0,1,.324-.351,2.78,2.78,0,0,1,2.133-.912q5.654,0,11.307,0a2.73,2.73,0,0,1,2.1.883c.315.339.637.672.968,1a.65.65,0,0,0,.355.208c.472.024.946.01,1.471.01,0-.232-.01-.4,0-.575.09-1.384.089-2.784.308-4.148a2.87,2.87,0,0,0-.911-2.476c.062.324.122.57.155.82a1.445,1.445,0,0,1-.758,1.659,7.564,7.564,0,0,1-3.442.874.924.924,0,0,1-1-1.219,4.3,4.3,0,0,1,1.215-2.285,2.892,2.892,0,0,1,1.712-.869,2.1,2.1,0,0,1,1.806.5c-.2-.481-.448-.924-.628-1.394a.569.569,0,0,0-.644-.4q-6.779.015-13.559.007c-1.086,0-2.172-.009-3.258.01a.6.6,0,0,0-.448.218c-.281.513-.513,1.051-.763,1.581m17.809-3.264c-.461-.957-.92-1.863-1.333-2.791a1.133,1.133,0,0,0-.873-.728,15.7,15.7,0,0,0-2.176-.284c-1.867-.051-3.736-.082-5.6-.038-1.35.032-2.7.181-4.044.321a1.032,1.032,0,0,0-.721.4c-.541,1-1.015,2.045-1.535,3.12Zm-1.366,10.939.058-.188a3.2,3.2,0,0,0-1.016-.386c-3.876-.028-7.753-.017-11.63-.019a1.251,1.251,0,0,0-1.028.593Zm-15,1.542H55.8v1.15h2.011Zm18.467,0H74.292v1.14h1.987ZM59.43,124.063l.083-.153c-.382-.635-.749-1.3-1.639-1.3a.556.556,0,0,0-.424.312c-.046.167.027.507.136.551.6.236,1.226.4,1.844.6m13.119.03c.7-.217,1.343-.387,1.954-.627.107-.042.16-.391.122-.575a.519.519,0,0,0-.395-.288c-.676-.032-1.349.55-1.682,1.49m-18.08-5.233L54.46,119l.812.086.02-.194c-.235-.322-.539-.1-.823-.035m23.152.132-.019-.161c-.289-.03-.618-.273-.833.09l.029.178.823-.107" transform="translate(-46.044 -98.584)" fill="#b2092a"/>
    <path id="Trazado_152" data-name="Trazado 152" d="M123.427,193.251c-1.277,0-2.555,0-3.832,0-.609,0-.918-.263-.9-.737.013-.452.326-.707.894-.708q3.928,0,7.856,0c.68,0,1.051.525.778,1.068a.784.784,0,0,1-.815.378q-1.988,0-3.976,0" transform="translate(-103.498 -167.252)" fill="#b2092a"/>
    <path id="Trazado_153" data-name="Trazado 153" d="M130.035,208.249c-.989,0-1.978.006-2.967,0-.574,0-.879-.266-.877-.72s.319-.728.876-.73q2.967-.007,5.934,0c.564,0,.868.268.868.73s-.28.715-.868.72c-.989.009-1.978,0-2.967,0" transform="translate(-110.039 -180.325)" fill="#b2092a"/>
  </g>
</svg>
