<svg id="Grupo_251" data-name="Grupo 251" xmlns="http://www.w3.org/2000/svg" xmlns:xlink="http://www.w3.org/1999/xlink" width="20" height="20" viewBox="0 0 20 20">
  <defs>
    <clipPath id="clip-path">
      <rect id="Rectángulo_147" data-name="Rectángulo 147" width="20" height="20" fill="#686868"/>
    </clipPath>
  </defs>
  <g id="Grupo_222" data-name="Grupo 222" clip-path="url(#clip-path)">
    <path id="Trazado_96" data-name="Trazado 96" d="M19.818,175.239a.723.723,0,0,1-.764.428c-.477-.019-.955,0-1.432-.007a.169.169,0,0,0-.191.134,2.248,2.248,0,0,1-4.266-.008.16.16,0,0,0-.179-.126q-3.087,0-6.174,0c-.1,0-.14.035-.175.13a2.249,2.249,0,0,1-4.267,0,.169.169,0,0,0-.2-.13c-.51,0-1.019,0-1.529,0a.591.591,0,0,1-.644-.65q0-2.254.008-4.509a.622.622,0,0,1,.711-.711c.555,0,1.11-.005,1.664,0a.324.324,0,0,0,.324-.175c.64-1.043,1.295-2.078,1.932-3.123a.748.748,0,0,1,.711-.4q3.358.013,6.716,0a.708.708,0,0,1,.622.314c.8,1.086,1.6,2.165,2.4,3.25a.364.364,0,0,0,.3.166q1.08.079,2.158.179a2.439,2.439,0,0,1,2.236,2.063.28.28,0,0,0,.033.067ZM1.178,174.5c.355,0,.708,0,1.061-.006.044,0,.1-.079.125-.134A2.273,2.273,0,0,1,4.5,172.821a2.246,2.246,0,0,1,2.132,1.527.193.193,0,0,0,.222.151q3.047,0,6.095,0a.2.2,0,0,0,.229-.166,2.233,2.233,0,0,1,2.6-1.455,2.2,2.2,0,0,1,1.649,1.454c.024.062.084.153.13.155.359.013.719.007,1.076.007a.315.315,0,0,0,.022-.071c0-.671.014-1.341,0-2.012a1.272,1.272,0,0,0-.921-1.186,2.559,2.559,0,0,0-.5-.07c-.829-.065-1.657-.176-2.487-.179-4.45-.018-8.9-.008-13.35-.008-.068,0-.136.007-.22.011Zm7.849-7.23v2.514h4.684a.9.9,0,0,0-.046-.081c-.579-.781-1.156-1.564-1.741-2.34a.294.294,0,0,0-.208-.089c-.606-.007-1.211,0-1.817,0H9.027m-1.2,0c-.714,0-1.416,0-2.117,0a.262.262,0,0,0-.261.144c-.454.741-.915,1.477-1.373,2.215-.029.047-.053.1-.085.156H7.828Zm8.553,7.816a1.07,1.07,0,0,0-1.066-1.088,1.088,1.088,0,0,0-1.1,1.077,1.106,1.106,0,0,0,1.094,1.1,1.088,1.088,0,0,0,1.077-1.086m-10.8-.008a1.068,1.068,0,0,0-1.093-1.08,1.084,1.084,0,0,0-1.077,1.084A1.1,1.1,0,0,0,4.5,176.168a1.088,1.088,0,0,0,1.088-1.093" transform="translate(0 -157.514)" fill="#686868"/>
    <path id="Trazado_97" data-name="Trazado 97" d="M81.793,0a5.151,5.151,0,0,1,.946.406,2.16,2.16,0,0,1,.483,3.1c-.027.036-.052.072-.058.081a11.372,11.372,0,0,1,.884.813,3.312,3.312,0,0,1,.8,2.507.565.565,0,0,1-.533.518c-.051,0-.1,0-.155,0H73.229c-.481,0-.684-.209-.691-.7a3.352,3.352,0,0,1,1.638-3.048,1.011,1.011,0,0,0,.08-.065,2.262,2.262,0,0,1-.525-1.248A2.194,2.194,0,0,1,75.475.041,1.076,1.076,0,0,0,75.6,0h.619a1.054,1.054,0,0,0,.124.041,2.166,2.166,0,0,1,1.69,2.6,6.607,6.607,0,0,1-.4.985l1.065.976L79.807,3.59s-.021-.033-.044-.063A2.155,2.155,0,0,1,80.215.422,5.18,5.18,0,0,1,81.174,0ZM73.745,6.264h4.321a2.18,2.18,0,0,0-4.321,0m9.906,0a2.178,2.178,0,0,0-4.318,0ZM76.922,2.18A1.014,1.014,0,1,0,75.913,3.21,1.021,1.021,0,0,0,76.922,2.18m5.577.011A1.014,1.014,0,1,0,81.479,3.21,1.021,1.021,0,0,0,82.5,2.191" transform="translate(-68.788 -0.001)" fill="#686868"/>
    <path id="Trazado_98" data-name="Trazado 98" d="M169.088,283.536c-.2,0-.4,0-.6,0a.59.59,0,1,1,.015-1.175q.59-.006,1.18,0a.59.59,0,1,1,0,1.176c-.2,0-.4,0-.6,0" transform="translate(-159.178 -267.759)" fill="#686868"/>
  </g>
</svg>
