<svg id="Grupo_268" data-name="Grupo 268" xmlns="http://www.w3.org/2000/svg" xmlns:xlink="http://www.w3.org/1999/xlink" width="32.86" height="10.491" viewBox="0 0 32.86 10.491">
  <defs>
    <clipPath id="clip-path">
      <rect id="Rectángulo_158" data-name="Rectángulo 158" width="32.86" height="10.491" fill="#2e2e2e"/>
    </clipPath>
  </defs>
  <g id="Grupo_268-2" data-name="Grupo 268" clip-path="url(#clip-path)">
    <path id="Trazado_130" data-name="Trazado 130" d="M22.267,1.921V0H10.514V1.936H9.8c-2.05,0-4.1.01-6.149-.009a.7.7,0,0,0-.748.469C2.073,4.167,1.214,5.925.365,7.688c-.107.223-.211.447-.365.776H10.549v2.027H22.32V8.426c2.3,0,4.5-.015,6.7.012.043,0,.084,0,.123,0H29.6l.191-.394c.025-.043.049-.089.072-.139.408-.877.859-1.734,1.293-2.6.55-1.095,1.1-2.189,1.7-3.383Zm5.4,4.5c-2.093.013-4.185.008-6.278.008h-.82v1.96H12.394V6.458H3.126c.429-.9.79-1.7,1.209-2.474.066-.121.4-.137.6-.138,2.181-.01,4.362-.007,6.542-.007h.86V1.988h8.235c0,.414.031.829-.008,1.236-.049.511.165.63.644.626,2.555-.02,5.111-.01,7.666-.01h.7c-.455.868-.835,1.648-1.278,2.391-.084.141-.415.188-.633.19" fill="#2e2e2e"/>
  </g>
</svg>
