<svg id="Grupo_284" data-name="Grupo 284" xmlns="http://www.w3.org/2000/svg" xmlns:xlink="http://www.w3.org/1999/xlink" width="46.133" height="35" viewBox="0 0 46.133 35">
  <defs>
    <clipPath id="clip-path">
      <rect id="Rectángulo_174" data-name="Rectángulo 174" width="46.133" height="35" fill="#b2092a"/>
    </clipPath>
  </defs>
  <g id="Grupo_283" data-name="Grupo 283" clip-path="url(#clip-path)">
    <path id="Trazado_140" data-name="Trazado 140" d="M119.757,72.977a2.831,2.831,0,0,1,3.441-.4,1.661,1.661,0,0,1,.068,3.038,10.432,10.432,0,0,1-2,.635c.273.431.563.968.929,1.447a4.394,4.394,0,0,1,.9,3.392c-.217,1.77-.122,3.584-.42,5.336-.227,1.333-.224,2.655-.332,3.981a1.434,1.434,0,0,1-1.311,1.273,23.5,23.5,0,0,1-3.277,0,1.582,1.582,0,0,1-1.366-1.671c-.015-.476,0-.952,0-1.457H100.132c0,.492.013.949,0,1.4a1.7,1.7,0,0,1-1.809,1.808q-1.182.032-2.366,0a1.7,1.7,0,0,1-1.812-1.639C94,88.414,93.9,86.7,93.766,84.989c-.1-1.339-.205-2.679-.343-4.015a4.118,4.118,0,0,1,.759-3.048c.41-.544.758-1.135,1.172-1.763a8.173,8.173,0,0,1-1.282-.2,3.379,3.379,0,0,1-1.113-.567,1.625,1.625,0,0,1,.178-2.692,2.934,2.934,0,0,1,3.649.254c.537-1.113,1.13-2.188,1.581-3.319a3.226,3.226,0,0,1,2.982-2.173c2.663-.172,5.332-.319,8-.336,1.935-.012,3.875.163,5.807.326a3.266,3.266,0,0,1,3,2.157c.453,1.137,1.052,2.217,1.606,3.363m.543,5.2a2.128,2.128,0,0,0,.015.25,1.731,1.731,0,0,1,.064.221c.058.822.251,1.732-.613,2.246a8.327,8.327,0,0,1-4.618,1.19,1,1,0,0,1-.99-1.165,4.742,4.742,0,0,1,1.365-2.913,3.535,3.535,0,0,1,2.122-1.167,2.506,2.506,0,0,1,2.263.649c-.266-.617-.575-1.189-.818-1.788a.611.611,0,0,0-.694-.424c-1.134.022-2.27.008-3.4.008q-8.4,0-16.792,0c-.2,0-.511.011-.574.125-.358.649-.657,1.33-1.035,2.126a3.028,3.028,0,0,1,3.841-.076,5.085,5.085,0,0,1,1.938,3.173,1.116,1.116,0,0,1-1.208,1.468,9.367,9.367,0,0,1-4.2-1.075,1.312,1.312,0,0,1-.805-1.177c-.012-.565,0-1.131,0-1.65a4.7,4.7,0,0,0-.675.974,3.789,3.789,0,0,0-.3,1.478c.04,1.053.212,2.1.29,3.152.071.953.091,1.91.134,2.876,1.127.159,2.169.182,2.862-.919a3.737,3.737,0,0,1,.475-.5,3.239,3.239,0,0,1,2.471-1.049q6.838,0,13.676,0a3.3,3.3,0,0,1,2.523,1.067,6.286,6.286,0,0,1,.663.721c.709,1.049,1.723.705,2.721.7,0-.4-.017-.73,0-1.055.091-1.476.087-2.968.323-4.421a3.207,3.207,0,0,0-1.025-3.049M98.473,73.519h19.6c-.528-1.095-1.065-2.113-1.511-3.169a1.715,1.715,0,0,0-1.4-1.126,8.177,8.177,0,0,0-1.137-.171c-2.768-.063-5.536-.161-8.3-.137a42.857,42.857,0,0,0-4.583.388,1.3,1.3,0,0,0-.886.549c-.633,1.18-1.182,2.406-1.786,3.666m1.571,13.18H116.5a1.565,1.565,0,0,0-1.359-.707q-6.859.016-13.718,0a1.578,1.578,0,0,0-1.379.708m18.139,3.253h2.435V88.565h-2.435Zm-19.837-1.39H95.954v1.405h2.392Zm17.784-8.394.077.171c.7-.212,1.406-.436,2.115-.63.419-.115.4-.4.338-.717-.069-.344-.274-.458-.625-.427-1.038.091-1.458.858-1.905,1.6m-15.8.175.077-.192c-.47-.762-.921-1.561-1.988-1.574-.17,0-.468.2-.487.334-.034.238.037.667.181.725.718.288,1.474.481,2.217.708m-6-6.261c0,.058-.006.115-.008.173l1,.092.017-.21c-.3-.4-.66-.17-1.009-.056m26.878.285,1.153-.157c-.792-.408-.988-.381-1.153.157" transform="translate(-78.091 -56.78)" fill="#b2092a"/>
    <path id="Trazado_141" data-name="Trazado 141" d="M6.141,27.1H8.268q5.425,0,10.85,0c.244,0,.571-.016.713.123a1.3,1.3,0,0,1,.464.873c-.038.27-.409.529-.687.713-.15.1-.412.037-.623.037-4.309,0-8.619.014-12.928-.014a.924.924,0,0,0-1.05.7c-.167.482-.44.926-.644,1.435A2.743,2.743,0,0,1,7,30.488,3.438,3.438,0,0,1,9.173,32.18a8.936,8.936,0,0,1,.884,2.218.955.955,0,0,1-.839,1.216A3.9,3.9,0,0,1,7.846,35.6a19.845,19.845,0,0,1-2.757-.8,1.88,1.88,0,0,1-1.279-2.437c.045-.236.111-.467.175-.736a3.489,3.489,0,0,0-1.08,3.255,41.669,41.669,0,0,1,.312,4.885c.018.425.153.518.568.565a2.381,2.381,0,0,0,2.382-1.017A3.734,3.734,0,0,1,9.64,37.783c1.265.082,2.538.012,3.808.02.692,0,1.055.313,1.052.866s-.381.872-1.054.874c-1.462.006-2.924.01-4.386,0a1.51,1.51,0,0,0-1.339.739c.253.013.438.031.622.032q2.337,0,4.675,0c.135,0,.27,0,.4,0,.727.025,1.1.342,1.077.914-.021.538-.4.844-1.088.846-1.635,0-3.27,0-4.906,0H7.8c0,.531.007,1.024,0,1.517A1.654,1.654,0,0,1,6.15,45.308c-.884.028-1.77.025-2.655,0A1.663,1.663,0,0,1,1.83,43.777c-.142-1.767-.239-3.538-.372-5.306-.1-1.378-.209-2.758-.361-4.131a3.937,3.937,0,0,1,.776-2.869c.4-.551.755-1.138,1.16-1.755a7.509,7.509,0,0,1-1.386-.226A3.292,3.292,0,0,1,.481,28.8a1.581,1.581,0,0,1,.19-2.424,2.887,2.887,0,0,1,3.789.167l.926-1.915a12.773,12.773,0,0,0,.644-1.351,3.445,3.445,0,0,1,3.211-2.3,65.727,65.727,0,0,1,10.254-.238,34.913,34.913,0,0,1,3.78.366,2.894,2.894,0,0,1,2.447,1.85c.287.71.669,1.381.99,2.079a.885.885,0,0,1-.371,1.229.849.849,0,0,1-1.2-.463c-.332-.649-.668-1.3-.94-1.975a1.5,1.5,0,0,0-1.281-1.011,29.1,29.1,0,0,0-3.146-.328q-3.808-.071-7.617,0a28.877,28.877,0,0,0-3.2.334,1.5,1.5,0,0,0-1.242.976C7.243,24.877,6.7,25.933,6.141,27.1M3.584,43.535H6.032V42.122H3.584Zm4.539-9.593c-.454-1.194-1.218-1.808-2.041-1.809-.348,0-.466.161-.521.465-.052.287-.072.535.278.641.722.22,1.442.443,2.284.7M1.983,27.65q0,.081,0,.163l1.011.086c-.288-.576-.654-.365-1.009-.249" transform="translate(0 -17.464)" fill="#b2092a"/>
    <path id="Trazado_142" data-name="Trazado 142" d="M144.967,8.188a.848.848,0,0,1-.638.944.8.8,0,0,1-.978-.42c-.17-.321-.3-.663-.44-1-.634-1.522-1.279-3.039-1.89-4.57A1.352,1.352,0,0,0,139.9,2.2a35.936,35.936,0,0,0-3.6-.412A63.753,63.753,0,0,0,125.94,2.2c-.646.087-1.1-.212-1.17-.738s.257-.916.933-1a62.607,62.607,0,0,1,8.973-.451,25.189,25.189,0,0,1,5.67.489,3.054,3.054,0,0,1,2.27,1.919c.7,1.763,1.456,3.506,2.184,5.259.08.192.131.4.167.51" transform="translate(-105.523 0)" fill="#b2092a"/>
    <path id="Trazado_143" data-name="Trazado 143" d="M163.968,147.287q-2.366,0-4.732,0c-.459,0-.847-.11-.991-.606a.864.864,0,0,1,.922-1.134c1.481-.014,2.962,0,4.443,0,1.693,0,3.385,0,5.078,0,.715,0,1.1.328,1.09.9-.012.546-.375.84-1.079.844-1.577.007-3.154,0-4.732,0" transform="translate(-133.809 -123.099)" fill="#b2092a"/>
    <path id="Trazado_144" data-name="Trazado 144" d="M170.444,162.3c-1.192,0-2.383.006-3.575,0-.748-.005-1.1-.3-1.092-.881s.38-.867,1.116-.868c2.364,0,4.728,0,7.092,0,.437,0,.853.107.957.562a1.165,1.165,0,0,1-.166.885,1.185,1.185,0,0,1-.816.293c-1.172.031-2.344.013-3.517.013" transform="translate(-140.216 -135.794)" fill="#b2092a"/>
  </g>
</svg>
