<svg id="Grupo_257" data-name="Grupo 257" xmlns="http://www.w3.org/2000/svg" xmlns:xlink="http://www.w3.org/1999/xlink" width="20" height="14.665" viewBox="0 0 20 14.665">
  <defs>
    <clipPath id="clip-path">
      <rect id="Rectángulo_150" data-name="Rectángulo 150" width="20" height="14.665" fill="#fff"/>
    </clipPath>
  </defs>
  <g id="Grupo_228" data-name="Grupo 228" clip-path="url(#clip-path)">
    <path id="Trazado_102" data-name="Trazado 102" d="M0,12.451V2.217c.021-.08.044-.16.063-.241A2.539,2.539,0,0,1,2.615,0c.859,0,1.719,0,2.578,0q6.083,0,12.166,0a2.527,2.527,0,0,1,2.635,2.468q.015,4.863,0,9.725a2.373,2.373,0,0,1-.638,1.614,2.553,2.553,0,0,1-2,.855H11.344q-4.345,0-8.69,0a2.548,2.548,0,0,1-2.544-1.8c-.041-.135-.073-.273-.11-.41M18.364,2.716c-.086.062-.138.1-.188.136L10.606,8.7a.849.849,0,0,1-1.215,0L1.821,2.85c-.052-.04-.107-.077-.185-.134v.239c0,3.014.008,6.028-.007,9.042a.966.966,0,0,0,1.04,1.038q7.333-.01,14.667,0a.966.966,0,0,0,1.036-1.041c-.015-3.014-.007-6.028-.007-9.042Zm-1.3-1.066H2.939L10,7.105,17.061,1.65" transform="translate(0 -0.001)" fill="#fff"/>
  </g>
</svg>
