<svg xmlns="http://www.w3.org/2000/svg" width="5.973" height="11.067" viewBox="0 0 5.973 11.067">
  <path id="Trazado_26" data-name="Trazado 26" d="M1.668,209.98H1.508c-.4,0-.793,0-1.19,0-.236,0-.315-.075-.316-.3q0-.831,0-1.663c0-.224.081-.3.307-.3H1.668c0-.055,0-.1,0-.15,0-.442-.016-.884.009-1.325a2.472,2.472,0,0,1,1.231-2.164,2.763,2.763,0,0,1,1.4-.347c.451,0,.9,0,1.352,0,.249,0,.312.065.313.312q0,.764,0,1.528c0,.217-.074.293-.292.3-.338.006-.676,0-1.014.008a1.66,1.66,0,0,0-.282.026.388.388,0,0,0-.352.359c-.019.471-.006.943-.006,1.428h.145c.478,0,.955,0,1.433,0,.232,0,.312.079.313.306q0,.838,0,1.676c0,.22-.061.286-.278.287-.487,0-.973,0-1.46,0H4.019c0,.069-.008.125-.008.182q0,2.1,0,4.2c0,.407-.042.449-.447.449H2.01c-.274,0-.341-.067-.341-.344q0-2.15,0-4.3v-.173" transform="translate(0 -203.73)" fill="#d2d2d2"/>
</svg>
