<svg xmlns="http://www.w3.org/2000/svg" xmlns:xlink="http://www.w3.org/1999/xlink" width="18" height="18" viewBox="0 0 18 18">
  <defs>
    <clipPath id="clip-path">
      <rect id="Rectángulo_155" data-name="Rectángulo 155" width="18" height="18" transform="translate(-0.116)" fill="#fff"/>
    </clipPath>
  </defs>
  <g id="Grupo_243" data-name="Grupo 243" transform="translate(0.116)" clip-path="url(#clip-path)">
    <path id="Trazado_119" data-name="Trazado 119" d="M17.183,14.845q-2.888-2.889-5.778-5.777a1.282,1.282,0,0,0-.145-.113.649.649,0,0,1,.018-.072c.019-.041.038-.083.058-.123a5.944,5.944,0,0,0,.537-4A5.844,5.844,0,0,0,10.26,1.772,5.774,5.774,0,0,0,7.616.225c-.393-.1-.8-.152-1.2-.225H5.6c-.416.078-.84.13-1.248.241A5.735,5.735,0,0,0,1.7,1.828,5.9,5.9,0,0,0,.129,4.793c-.055.265-.086.536-.129.8v.819a1.157,1.157,0,0,1,.029.132,5.771,5.771,0,0,0,1.934,3.885,5.861,5.861,0,0,0,6.108,1.209c.293-.1.571-.241.876-.372.037.044.074.095.118.139l5.8,5.8a.649.649,0,0,0,1.048,0l1.266-1.266a.662.662,0,0,0,0-1.1m-11.339-4.1A4.738,4.738,0,1,1,10.737,6.1a4.731,4.731,0,0,1-4.894,4.643m9.51,5.168-1.475-1.528-3.856-3.857.5-.5,4.205,4.206h0l.948.949.007-.007.2.213-.377.378-.151.151" transform="translate(-0.164 0.262)" fill="#fff"/>
  </g>
</svg>
