<svg id="Grupo_376" data-name="Grupo 376" xmlns="http://www.w3.org/2000/svg" xmlns:xlink="http://www.w3.org/1999/xlink" width="28" height="22.396" viewBox="0 0 28 22.396">
  <defs>
    <clipPath id="clip-path">
      <rect id="Rectángulo_236" data-name="Rectángulo 236" width="28" height="22.396" fill="#b2092a"/>
    </clipPath>
  </defs>
  <g id="Grupo_375" data-name="Grupo 375" clip-path="url(#clip-path)">
    <path id="Trazado_174" data-name="Trazado 174" d="M124.616,7.559a3.89,3.89,0,0,1-2.737-4.609,3.838,3.838,0,0,1,7.487.085,3.887,3.887,0,0,1-2.752,4.519v.4q0,6.685,0,13.37a.985.985,0,0,1-.7,1.021.932.932,0,0,1-1.1-.376,1.427,1.427,0,0,1-.189-.7q-.016-6.669-.008-13.339V7.559m1-1.9a1.8,1.8,0,0,0,1.815-1.818,1.818,1.818,0,1,0-3.637.007,1.8,1.8,0,0,0,1.822,1.812" transform="translate(-111.615 0)" fill="#b2092a"/>
    <path id="Trazado_175" data-name="Trazado 175" d="M4.818,4.336c0,1.041,0,2.083,0,3.124a.288.288,0,0,0,.238.327A3.809,3.809,0,0,1,5.062,15a.305.305,0,0,0-.247.352q.009,3.015,0,6.03a1.74,1.74,0,0,1-.057.522.99.99,0,0,1-1.1.666,1.014,1.014,0,0,1-.838-1.019c0-2.041-.006-4.082,0-6.123a.4.4,0,0,0-.32-.461A3.8,3.8,0,0,1,2.549,7.8a.342.342,0,0,0,.27-.4q-.01-3.077,0-6.155A1.011,1.011,0,0,1,3.644.223.991.991,0,0,1,4.755.878a1.436,1.436,0,0,1,.06.459c.005,1,0,2,0,3M5.644,11.4A1.8,1.8,0,0,0,3.832,9.578a1.819,1.819,0,1,0-.005,3.637A1.8,1.8,0,0,0,5.644,11.4" transform="translate(0 -0.189)" fill="#b2092a"/>
    <path id="Trazado_176" data-name="Trazado 176" d="M248.632,18.529c0,1.046.006,2.076,0,3.107a1,1,0,0,1-.846.98,1,1,0,0,1-1.089-.648,1.4,1.4,0,0,1-.063-.458c-.006-.906-.009-1.812,0-2.718a.309.309,0,0,0-.25-.352,3.8,3.8,0,0,1-.013-7.193c.236-.081.261-.2.261-.408q-.006-4.734,0-9.468a1,1,0,1,1,2-.1c.007,1.166,0,2.333,0,3.5q0,3.047,0,6.093c0,.185.028.287.236.36a3.81,3.81,0,0,1-.031,7.224c-.059.021-.116.046-.2.08m-1-1.885a1.806,1.806,0,0,0,1.815-1.823,1.819,1.819,0,1,0-3.638.014,1.792,1.792,0,0,0,1.823,1.808" transform="translate(-223.448 -0.232)" fill="#b2092a"/>
  </g>
</svg>
