<svg xmlns="http://www.w3.org/2000/svg" xmlns:xlink="http://www.w3.org/1999/xlink" width="20" height="19.997" viewBox="0 0 20 19.997">
  <defs>
    <clipPath id="clip-path">
      <rect id="Rectángulo_153" data-name="Rectángulo 153" width="20" height="19.997" fill="#686868"/>
    </clipPath>
  </defs>
  <g id="Grupo_234" data-name="Grupo 234" clip-path="url(#clip-path)">
    <path id="Trazado_108" data-name="Trazado 108" d="M0,19.256a.7.7,0,0,1,.746-.434c.551.02,1.1.005,1.665.005V1.173h-.63A.585.585,0,0,1,1.133.578.583.583,0,0,1,1.78,0H15.254a.583.583,0,0,1,.641.582.582.582,0,0,1-.635.588h-.639V14.5a1.51,1.51,0,0,0,1.858-1.455c.012-.6,0-1.2,0-1.8q0-3.329,0-6.658a.6.6,0,0,1,.672-.675h.432V3.538c0-.534,0-1.067,0-1.6a.791.791,0,0,1,.25-.61c.374-.362.737-.735,1.107-1.1a.6.6,0,0,1,.884-.054.6.6,0,0,1-.046.884c-.3.3-.6.6-.895.9a.331.331,0,0,0-.1.194c-.008.566,0,1.132,0,1.7a.348.348,0,0,0,.023.075c.184,0,.371,0,.558,0a.593.593,0,0,1,.637.65c0,.853-.008,1.705,0,2.558a.77.77,0,0,1-.309.655c-.639.523-1.269,1.059-1.908,1.582a.337.337,0,0,0-.133.3q.006,1.679,0,3.359A2.637,2.637,0,0,1,14.968,15.7h-.347v3.126h1.744a.589.589,0,0,1,.259,1.144c-.011.005-.017.018-.026.027H.43a.828.828,0,0,1-.43-.43Zm3.6-.443H13.42V10.166H3.6Zm0-9.842H13.42V1.183H3.6Zm14.06-1.035c.321-.266.6-.52.9-.743a.578.578,0,0,0,.264-.572c-.022-.252,0-.507,0-.761V5.123H17.661Z" transform="translate(0 -0.001)" fill="#686868"/>
    <path id="Trazado_109" data-name="Trazado 109" d="M124.683,220.859a2.133,2.133,0,0,1-1.691,2.187,2.256,2.256,0,0,1-2.559-1.139,2.669,2.669,0,0,1-.111-1.886,7.111,7.111,0,0,1,1.689-2.97.56.56,0,0,1,.863-.006,6.738,6.738,0,0,1,1.775,3.387c.022.141.023.285.034.427m-2.229-2.5a5.465,5.465,0,0,0-.944,1.777,3.176,3.176,0,0,0-.115.765,1.052,1.052,0,0,0,2.1.006,4.709,4.709,0,0,0-1.045-2.548" transform="translate(-113.932 -205.531)" fill="#686868"/>
    <path id="Trazado_110" data-name="Trazado 110" d="M95.088,44.941h3.083a.586.586,0,0,1,.655.645q0,2.088,0,4.176a.584.584,0,0,1-.636.644H91.965a.581.581,0,0,1-.635-.626q0-2.108,0-4.215a.58.58,0,0,1,.636-.624h3.122m2.554,1.186H92.51v3.1h5.132Z" transform="translate(-86.564 -42.596)" fill="#686868"/>
  </g>
</svg>
