<svg id="Grupo_282" data-name="Grupo 282" xmlns="http://www.w3.org/2000/svg" xmlns:xlink="http://www.w3.org/1999/xlink" width="40" height="39.457" viewBox="0 0 40 39.457">
  <defs>
    <clipPath id="clip-path">
      <rect id="Rectángulo_173" data-name="Rectángulo 173" width="40" height="39.457" fill="#b2092a"/>
    </clipPath>
  </defs>
  <g id="Grupo_281" data-name="Grupo 281" clip-path="url(#clip-path)">
    <path id="Trazado_135" data-name="Trazado 135" d="M0,108.281q3.745-4.643,7.491-9.286a.807.807,0,0,1,1.225-.2c1.308.826,2.591,1.693,3.927,2.47a8.058,8.058,0,0,0,1.779.633c.945.28,1.9.532,2.852.778a1.138,1.138,0,0,0,.563,0c1.263-.35,2.519-.724,3.781-1.076a3.1,3.1,0,0,1,.8-.113c1.666-.01,3.331,0,5-.013a1.237,1.237,0,0,0,.614-.176c1.291-.8,2.569-1.628,3.853-2.444.623-.4.944-.339,1.392.243l6.4,8.317c.459.6.428.932-.149,1.432-1.131.979-2.27,1.95-3.4,2.933a1.471,1.471,0,0,0-.355.451c-.769,1.59-1.522,3.187-2.29,4.777a.539.539,0,0,0,0,.537,2.751,2.751,0,0,1-2.329,4.022,1.383,1.383,0,0,0-.139.027,2.854,2.854,0,0,1-2.8,2.825,2.877,2.877,0,0,1-2.83,2.807,2.819,2.819,0,0,1-4.906,1.861,2.9,2.9,0,0,1-3.036,1.152,2.749,2.749,0,0,1-2.125-2.361,2.906,2.906,0,0,1-3.234-2.82,2.9,2.9,0,0,1-2.076-.979,2.8,2.8,0,0,1-.655-2.2c-.1-.029-.194-.063-.291-.084A2.759,2.759,0,0,1,7.386,117.5a.459.459,0,0,0-.006-.661c-1.02-1.348-2.013-2.716-3.032-4.066a4.9,4.9,0,0,0-.712-.716c-1.03-.9-2.072-1.781-3.1-2.677-.193-.167-.356-.369-.533-.554v-.547m19.5,15.532a.272.272,0,0,0,.064.044,2.757,2.757,0,0,1,2.02,3.853.339.339,0,0,0,.016.247,1.324,1.324,0,0,0,1.221.452,1.192,1.192,0,0,0,.607-2.015c-.59-.641-1.226-1.24-1.831-1.868a.77.77,0,0,1-.038-1.12.793.793,0,0,1,1.151,0c.116.1.222.22.331.331.5.509,1,1.027,1.512,1.524a1.163,1.163,0,0,0,1.435.2,1.121,1.121,0,0,0,.554-1.3,1.874,1.874,0,0,0-.46-.746c-1.031-1.067-2.084-2.112-3.127-3.167-.423-.428-.464-.89-.118-1.236s.808-.314,1.233.114q1.5,1.509,2.994,3.025c.11.111.217.226.334.328a1.158,1.158,0,0,0,1.406.164,1.121,1.121,0,0,0,.551-1.3,1.765,1.765,0,0,0-.438-.714c-1.6-1.637-3.219-3.259-4.83-4.888-.421-.426-.464-.889-.127-1.235s.827-.3,1.261.134q.469.469.935.943,1.936,1.957,3.871,3.915a1.288,1.288,0,0,0,1.213.471,1.116,1.116,0,0,0,.916-.809,1.259,1.259,0,0,0-.38-1.312q-4.507-4.494-9.01-8.991a1,1,0,0,0-.575-.252c-.933-.082-1.869-.117-2.8-.2a.451.451,0,0,0-.514.279Q18,110.274,17.09,111.84a2.771,2.771,0,0,1-4.831-2.714c.9-1.653,1.851-3.282,2.779-4.922.075-.132.144-.267.228-.424-.679-.187-1.32-.352-1.953-.543a.453.453,0,0,0-.56.182q-2.787,3.419-5.593,6.822c-.475.579-.948,1.161-1.424,1.744l3,4.039a2.845,2.845,0,0,1,4.645,1.655,2.85,2.85,0,0,1,2.338.574,2.79,2.79,0,0,1,1.018,2.174,2.842,2.842,0,0,1,2.766,3.386m12.7-7.778c.661-1.385,1.287-2.726,1.943-4.052a.606.606,0,0,0-.086-.755q-3.139-3.96-6.251-7.941a.58.58,0,0,0-.522-.246c-1.561.009-3.123,0-4.685.009a2.447,2.447,0,0,0-.65.087q-2.563.729-5.12,1.481a.6.6,0,0,0-.335.226c-.969,1.691-1.941,3.381-2.869,5.094a1.444,1.444,0,0,0-.052.933,1.016,1.016,0,0,0,.93.772,1.161,1.161,0,0,0,1.237-.629c.7-1.23,1.4-2.46,2.09-3.7a.934.934,0,0,1,.986-.531c1.309.1,2.62.182,3.931.263a1.311,1.311,0,0,1,.884.428q4.1,4.121,8.223,8.229c.1.1.2.2.345.331M4.633,110.827l6.882-8.385-3.156-2.006L1.883,108.46l2.751,2.367m30.736-.485,2.749-2.373-5.793-7.523-3.155,2.01,6.2,7.886M12.251,123.453a1.662,1.662,0,0,0,.577-.259c.709-.666,1.411-1.343,2.063-2.064a1.18,1.18,0,0,0-1.723-1.6c-.668.634-1.324,1.283-1.953,1.955a1.1,1.1,0,0,0-.165,1.3,1.226,1.226,0,0,0,1.2.666m2.69,2.873a2.352,2.352,0,0,0,.691-.309c.7-.658,1.394-1.33,2.044-2.039a1.181,1.181,0,0,0-1.7-1.634q-1.01.948-1.961,1.958a1.107,1.107,0,0,0-.185,1.274,1.278,1.278,0,0,0,1.108.75m1.979,1.161a1.145,1.145,0,0,0,.6,1.1,1.049,1.049,0,0,0,1.241-.068,10.172,10.172,0,0,0,1.257-1.266,1.127,1.127,0,0,0-.015-1.378,1.065,1.065,0,0,0-1.27-.416,4,4,0,0,0-1.768,1.728.76.76,0,0,0-.049.3m-7.254-7.175a2.234,2.234,0,0,0,.668-.269,10.139,10.139,0,0,0,1.21-1.2,1.169,1.169,0,0,0-.147-1.615,1.194,1.194,0,0,0-1.624.054c-.349.329-.694.665-1.014,1.021a1.122,1.122,0,0,0-.186,1.269,1.245,1.245,0,0,0,1.094.745" transform="translate(0 -90.866)" fill="#b2092a"/>
    <path id="Trazado_136" data-name="Trazado 136" d="M128.589,35.006a1.83,1.83,0,0,1-.45-.272q-2.647-2.625-5.274-5.269a.789.789,0,1,1,1.1-1.128q2.659,2.64,5.3,5.3a.75.75,0,0,1,.192.891.823.823,0,0,1-.867.48" transform="translate(-112.973 -25.868)" fill="#b2092a"/>
    <path id="Trazado_137" data-name="Trazado 137" d="M299.776,35.154a.855.855,0,0,1-.743-1.234,1.472,1.472,0,0,1,.247-.3q2.551-2.555,5.1-5.108a.846.846,0,0,1,.934-.314.776.776,0,0,1,.393,1.2,2.072,2.072,0,0,1-.236.259q-2.525,2.526-5.055,5.047a4.367,4.367,0,0,1-.644.446" transform="translate(-275.494 -25.945)" fill="#b2092a"/>
    <path id="Trazado_138" data-name="Trazado 138" d="M246.591,42.965c0,.7,0,1.4,0,2.107a.783.783,0,1,1-1.561.016q-.007-2.146,0-4.292a.784.784,0,1,1,1.561-.016c.006.728,0,1.457,0,2.185" transform="translate(-225.815 -36.797)" fill="#b2092a"/>
    <path id="Trazado_139" data-name="Trazado 139" d="M246.64.79a.779.779,0,0,1-1.558,0,.779.779,0,1,1,1.558,0" transform="translate(-225.867 -0.001)" fill="#b2092a"/>
  </g>
</svg>
