<svg id="Grupo_274" data-name="Grupo 274" xmlns="http://www.w3.org/2000/svg" xmlns:xlink="http://www.w3.org/1999/xlink" width="26.53" height="21.548" viewBox="0 0 26.53 21.548">
  <defs>
    <clipPath id="clip-path">
      <rect id="Rectángulo_130" data-name="Rectángulo 130" width="26.53" height="21.548" fill="#2e2e2e"/>
    </clipPath>
  </defs>
  <g id="Grupo_199" data-name="Grupo 199" clip-path="url(#clip-path)">
    <path id="Trazado_80" data-name="Trazado 80" d="M26.526,8.281c-.017-.715-.027-1.43-.064-2.145a10.05,10.05,0,0,0-.277-2.159,4.23,4.23,0,0,0-1.863-2.592A6.743,6.743,0,0,0,22.035.557a28.23,28.23,0,0,0-3.589-.4Q17.237.072,16.024.042c-1.43-.037-2.86-.056-4.292-.03C10.5.035,9.271.075,8.042.155c-.8.052-1.6.119-2.4.219A12.011,12.011,0,0,0,3.388.837,4.5,4.5,0,0,0,1.033,2.451a5.309,5.309,0,0,0-.91,2.576A23.221,23.221,0,0,0,0,7.523c-.009,1.2.027,2.395.115,3.59.056.768.137,1.533.215,2.3S.52,14.92.657,15.668a13.47,13.47,0,0,0,.628,2.358,4.335,4.335,0,0,0,2.7,2.657,12.294,12.294,0,0,0,3.006.625c.872.087,1.746.138,2.621.173q1.859.074,3.719.065c.368,0,.736,0,1.1,0a51,51,0,0,0,5.8-.314,11.069,11.069,0,0,0,2.172-.486,4.522,4.522,0,0,0,2.17-1.48,5.789,5.789,0,0,0,.869-1.78,15.6,15.6,0,0,0,.517-2.3c.172-.992.27-1.993.37-2.994.06-.6.107-1.2.136-1.809.034-.7.073-1.4.056-2.106m-1.371,1.1c-.016.969-.079,1.936-.169,2.9a29.251,29.251,0,0,1-.582,4.048,8.813,8.813,0,0,1-.518,1.56,3.716,3.716,0,0,1-2.32,2.074,9.182,9.182,0,0,1-1.793.381,54.659,54.659,0,0,1-6.512.313q-1.924.008-3.846-.087c-.959-.048-1.917-.109-2.867-.251a7.765,7.765,0,0,1-2.065-.538A3.748,3.748,0,0,1,2.51,17.631,11.651,11.651,0,0,1,1.9,15.386c-.18-.982-.288-1.973-.378-2.966a41.236,41.236,0,0,1-.176-4.691c.018-.766.045-1.531.123-2.293A6.7,6.7,0,0,1,1.809,3.8,3.492,3.492,0,0,1,4.07,1.65a9.607,9.607,0,0,1,1.853-.4q1.067-.153,2.144-.226C8.818.968,9.57.921,10.323.9c1.413-.048,2.826-.077,4.24-.052,1.168.021,2.335.068,3.5.15a27.978,27.978,0,0,1,3.4.4A5.755,5.755,0,0,1,23,1.914a3.514,3.514,0,0,1,1.832,2.373,8.957,8.957,0,0,1,.233,1.59c.087,1.166.105,2.333.085,3.5" transform="translate(0 0)" fill="#2e2e2e"/>
    <path id="Trazado_81" data-name="Trazado 81" d="M224.954,71.9c-.53-.057-1.062-.09-1.6-.106-.1,0-.137.029-.158.125-.5,2.31-1,4.622-1.6,6.91a20.608,20.608,0,0,1-.758,2.534,3.1,3.1,0,0,1-1.081,1.455,3.362,3.362,0,0,1-1.762.532,11.483,11.483,0,0,1-2.192-.044,2.758,2.758,0,0,1-2.257-1.556,9.963,9.963,0,0,1-.688-1.983c-.675-2.6-1.259-5.219-1.827-7.844-.021-.1-.054-.131-.155-.128-.533.016-1.065.048-1.6.106-.069.008-.1.027-.1.11.04.557.076,1.114.111,1.672q.107,1.678.211,3.357h0c.023.342.048.684.07,1.026.038.587.072,1.174.111,1.761.046.688.1,1.376.143,2.064.054.776.1,1.553.161,2.329.062.844.128,1.687.194,2.53.076.966.154,1.931.227,2.9.006.078.037.1.105.109.807.1,1.619.129,2.431.158.112,0,.14-.042.164-.135.166-.641.332-1.283.509-1.922a10.939,10.939,0,0,1,.667-1.9A1.632,1.632,0,0,1,215.53,85a8.959,8.959,0,0,1,3.143-.016,1.65,1.65,0,0,1,1.226.851,6.363,6.363,0,0,1,.433,1.026c.327.96.564,1.946.811,2.928.022.088.057.12.152.118.8-.019,1.605-.076,2.406-.157.082-.008.115-.04.121-.124.038-.515.082-1.029.123-1.543.066-.831.134-1.661.2-2.492.056-.751.107-1.5.16-2.253.065-.92.133-1.839.2-2.759.056-.831.105-1.663.16-2.495.064-.979.132-1.958.2-2.938.068-1.043.132-2.086.2-3.128.005-.082-.016-.113-.1-.121" transform="translate(-203.877 -69.97)" fill="#2e2e2e"/>
  </g>
</svg>
