<svg xmlns="http://www.w3.org/2000/svg" width="11.049" height="11.067" viewBox="0 0 11.049 11.067">
  <path id="Unión_3" data-name="Unión 3" d="M4.095,11.059a8.039,8.039,0,0,1-1.665-.127A2.89,2.89,0,0,1,.11,8.516a9.022,9.022,0,0,1-.1-1.528C0,6.02-.006,5.051.01,4.083A11.881,11.881,0,0,1,.121,2.535,2.791,2.791,0,0,1,1.216.677,3.333,3.333,0,0,1,3.044.045c.24-.019.48-.03.721-.045H7.287c.1.008.2.012.3.023A10.53,10.53,0,0,1,8.719.159a2.768,2.768,0,0,1,2,1.6,4.173,4.173,0,0,1,.331,1.789c0,1.293.009,2.585,0,3.878a6.058,6.058,0,0,1-.11,1.179,2.834,2.834,0,0,1-2.32,2.335,7.815,7.815,0,0,1-1.644.123q-.716.008-1.432.007T4.095,11.059ZM4.377,1.014A9.4,9.4,0,0,0,2.741,1.1a1.829,1.829,0,0,0-1.6,1.472,5.749,5.749,0,0,0-.118,1.178c-.015,1.192-.012,2.384,0,3.576a6.986,6.986,0,0,0,.087,1.042A1.832,1.832,0,0,0,1.978,9.7a2.39,2.39,0,0,0,1.183.325c.791.03,1.584.041,2.375.061v-.019c.4,0,.8.008,1.2,0a9.448,9.448,0,0,0,1.657-.1,1.864,1.864,0,0,0,1.532-1.4,4.368,4.368,0,0,0,.125-1.134c.013-.911.026-1.822.016-2.733-.007-.626-.024-1.253-.084-1.875A1.856,1.856,0,0,0,8.506,1.137a5.837,5.837,0,0,0-1.384-.119Q6.416,1.01,5.71,1.011ZM5.52,8.379a2.838,2.838,0,1,1,.024,0ZM3.7,5.528A1.839,1.839,0,1,0,5.548,3.693H5.542A1.833,1.833,0,0,0,3.7,5.528ZM7.827,2.58a.664.664,0,1,1,.664.661h0A.656.656,0,0,1,7.827,2.58Z" fill="#d2d2d2"/>
</svg>
