<svg id="Grupo_267" data-name="Grupo 267" xmlns="http://www.w3.org/2000/svg" xmlns:xlink="http://www.w3.org/1999/xlink" width="33.808" height="8" viewBox="0 0 33.808 8">
  <defs>
    <clipPath id="clip-path">
      <rect id="Rectángulo_157" data-name="Rectángulo 157" width="33.808" height="8" fill="#2e2e2e"/>
    </clipPath>
  </defs>
  <g id="Grupo_267-2" data-name="Grupo 267" clip-path="url(#clip-path)">
    <path id="Trazado_129" data-name="Trazado 129" d="M0,2.462a1.717,1.717,0,0,1,.893-.9C1.692,1.091,2.48.606,3.274.131,3.348.086,3.432.058,3.56,0V6.06a2.128,2.128,0,0,0,.243-.1q4.081-2.453,8.16-4.908c.419-.252.829-.522,1.263-.745a1.684,1.684,0,0,1,.724-.192C15.614.1,17.278.106,18.943.106c.469,0,.661.189.661.653q0,3.063,0,6.127a1.035,1.035,0,0,0,.054.231.917.917,0,0,0,.217-.073q2.5-1.618,5-3.242Q27.546,2.067,30.213.329A1.374,1.374,0,0,1,31.021.1c.708.013,1.416,0,2.124.005.458,0,.66.2.66.663,0,1.469,0,2.939,0,4.409a1.169,1.169,0,0,1-.617,1.1c-.907.534-1.806,1.081-2.709,1.622-.056.033-.117.057-.214.1-.008-.119-.019-.2-.019-.289q0-2.4,0-4.793c0-.1-.021-.2-.039-.348-.392.251-.733.466-1.071.686L23.307,7.042c-.252.164-.512.318-.755.5a1.5,1.5,0,0,1-.952.276c-1.6-.012-3.209,0-4.813-.005-.487,0-.677-.193-.677-.686q0-3.007,0-6.014c0-.1-.013-.205-.022-.345a2.088,2.088,0,0,0-.246.1Q13.471,2.291,11.1,3.718c-.315.19-.312.192-.046.457Q12.727,5.844,14.4,7.514c.066.066.12.144.217.261-.131.015-.208.031-.284.031-1.077,0-2.154,0-3.231,0a.777.777,0,0,1-.585-.242C9.856,6.9,9.19,6.248,8.538,5.58a.3.3,0,0,0-.443-.061c-1.161.709-2.327,1.413-3.5,2.1a1.407,1.407,0,0,1-.657.182c-1.047.019-2.094,0-3.141.014A.757.757,0,0,1,0,7.437Z" fill="#2e2e2e"/>
  </g>
</svg>
