<svg xmlns="http://www.w3.org/2000/svg" xmlns:xlink="http://www.w3.org/1999/xlink" width="27.453" height="22.956" viewBox="0 0 27.453 22.956">
  <defs>
    <clipPath id="clip-path">
      <rect id="Rectángulo_156" data-name="Rectángulo 156" width="27.453" height="22.956" transform="translate(0 0)" fill="#2e2e2e"/>
    </clipPath>
  </defs>
  <g id="Grupo_266" data-name="Grupo 266" clip-path="url(#clip-path)">
    <path id="Trazado_121" data-name="Trazado 121" d="M38.036,8.109h2.752c.065,0,.119,0,.148-.083A10.153,10.153,0,0,1,41.663,6.4,10.325,10.325,0,0,1,43.27,4.24a10.579,10.579,0,0,1,2.644-1.961,10.415,10.415,0,0,1,2.681-.95,10.645,10.645,0,0,1,1.935-.216,8.638,8.638,0,0,1,1.826.143c.454.088.906.188,1.351.314a8.806,8.806,0,0,1,2.236.984c.423.262.835.545,1.23.847a7.012,7.012,0,0,1,1.149,1.081c.293.353.6.7.856,1.077A10.811,10.811,0,0,1,59.9,6.775c.2.386.345.8.51,1.2.037.091.077.141.19.139.475-.007.949,0,1.424,0h1.318c.25,0,.25,0,.248-.254,0-.152,0-.151-.149-.168-.424-.049-.85-.09-1.273-.151a1.083,1.083,0,0,1-.817-.456,4.943,4.943,0,0,1-.272-.5,10.419,10.419,0,0,0-.957-1.648c-.306-.414-.624-.821-.963-1.206a8.843,8.843,0,0,0-1.34-1.251c-.412-.308-.843-.592-1.275-.871A8.892,8.892,0,0,0,55.092.866,11.793,11.793,0,0,0,52.883.2,10.609,10.609,0,0,0,50.8,0a13.282,13.282,0,0,0-1.354.072c-.434.046-.867.122-1.295.211A10.3,10.3,0,0,0,45.99.994a11.52,11.52,0,0,0-1.774.994,10.167,10.167,0,0,0-1.264.994c-.369.35-.715.725-1.053,1.105a9.44,9.44,0,0,0-.644.826,11.766,11.766,0,0,0-.985,1.718,2.762,2.762,0,0,1-.32.535,1.266,1.266,0,0,1-.9.4c-.378.047-.758.085-1.137.125-.1.01-.145.044-.141.158.009.263,0,.264.264.264" transform="translate(-36.97 0.005)" fill="#2e2e2e"/>
    <path id="Trazado_122" data-name="Trazado 122" d="M63.029,698.081q-1.429.006-2.859,0c-.117,0-.157.052-.2.146-.166.406-.319.818-.513,1.21a8.176,8.176,0,0,1-1,1.582c-.256.311-.514.62-.783.919a5.469,5.469,0,0,1-.483.461,9.465,9.465,0,0,1-.75.621c-.378.266-.769.513-1.166.75a8.452,8.452,0,0,1-1.462.675,9.186,9.186,0,0,1-1.936.5c-.448.059-.9.11-1.348.134A9.193,9.193,0,0,1,49.021,705a9.984,9.984,0,0,1-1.772-.369,10.1,10.1,0,0,1-1.971-.83,10.3,10.3,0,0,1-2.553-1.976,10.6,10.6,0,0,1-1-1.242,10.062,10.062,0,0,1-1.212-2.4.135.135,0,0,0-.152-.109c-.482,0-.964,0-1.445,0H37.446c-.056,0-.122,0-.1.079.028.107-.091.247.072.322l.01,0c.224.028.449.055.673.084.28.037.562.063.838.12a.951.951,0,0,1,.652.433c.11.181.2.372.306.558.234.424.454.857.707,1.269a8.354,8.354,0,0,0,1.087,1.418,14.846,14.846,0,0,0,1.08,1.063,14.217,14.217,0,0,0,1.311.966,10.527,10.527,0,0,0,2.487,1.2,11.571,11.571,0,0,0,1.995.481,10.31,10.31,0,0,0,1.594.123,12.417,12.417,0,0,0,2.794-.318,11.036,11.036,0,0,0,2.68-1.015,11.661,11.661,0,0,0,2-1.345,11.974,11.974,0,0,0,1.273-1.245,10.691,10.691,0,0,0,1.058-1.414,11.812,11.812,0,0,0,.763-1.419,1.166,1.166,0,0,1,.907-.763c.45-.065.9-.118,1.355-.172.175-.021.175-.017.174-.187a.8.8,0,0,1,0-.106c.013-.1-.026-.132-.13-.132" transform="translate(-36.535 -683.242)" fill="#2e2e2e"/>
    <path id="Trazado_123" data-name="Trazado 123" d="M357.822,467.285c.507,0,1.013,0,1.52,0h.755c.251,0,.5,0,.754-.006a.757.757,0,0,0,.516-.218,1.023,1.023,0,0,0,.3-.969.9.9,0,0,0-.9-.769c-.638,0-1.275,0-1.913,0a2.2,2.2,0,0,1-.253-.017.262.262,0,0,1-.247-.287.267.267,0,0,1,.271-.258c.11,0,.22,0,.329,0h2.37c.143,0,.143,0,.143-.147s0-.291,0-.436c0-.073-.025-.1-.1-.1-.974.008-1.948.011-2.921.022a.779.779,0,0,0-.6.283.955.955,0,0,0-.16,1.061.886.886,0,0,0,.867.552c.6,0,1.2,0,1.8,0,.092,0,.185,0,.276,0a.3.3,0,0,1,.259.479.315.315,0,0,1-.293.137c-.3,0-.6,0-.9,0-.624,0-1.247,0-1.87,0-.095,0-.134.025-.128.126a4.028,4.028,0,0,1,0,.425c-.005.1.03.126.127.126" transform="translate(-349.996 -454.207)" fill="#2e2e2e"/>
    <path id="Trazado_124" data-name="Trazado 124" d="M607.443,467.266c.506,0,1.013,0,1.519,0v-.006c.5,0,1.006,0,1.509,0a.758.758,0,0,0,.53-.236,1,1,0,0,0,.295-.715.942.942,0,0,0-1-1.011c-.64.023-1.282.006-1.923,0a.949.949,0,0,1-.21-.025.267.267,0,0,1-.188-.347.291.291,0,0,1,.289-.19l1.881,0c.276,0,.552,0,.829,0,.088,0,.118-.032.115-.118-.005-.149-.007-.3,0-.446,0-.1-.035-.119-.124-.118-.875,0-1.75,0-2.624,0a2.414,2.414,0,0,0-.349.022.874.874,0,0,0-.464.218.951.951,0,0,0-.287.92.863.863,0,0,0,.343.566,1.025,1.025,0,0,0,.648.19c.659,0,1.318,0,1.976,0a.321.321,0,0,1,.335.222.31.31,0,0,1-.317.4c-.351,0-.7,0-1.052,0-.581,0-1.162,0-1.743,0-.095,0-.124.028-.119.121a3.977,3.977,0,0,1,0,.425c-.006.1.029.132.131.132" transform="translate(-594.314 -454.188)" fill="#2e2e2e"/>
    <path id="Trazado_125" data-name="Trazado 125" d="M1106.536,467.247a.1.1,0,0,0,0-.039c0-1.027,0-2.054,0-3.081,0-.069.06-.083,0-.082-.167,0-.422,0-.589,0-.14,0-.14,0-.14.14q0,1.031,0,2.061c0,.039-.006.077-.01.122a.225.225,0,0,1-.036-.018q-1.116-1.122-2.234-2.242a.232.232,0,0,0-.145-.06c-.234-.006-.468,0-.7,0-.109,0-.136.033-.136.139,0,.981,0,1.962,0,2.943,0,.038,0,.076.005.127.2,0,.4-.006.592,0,.107,0,.129-.035.129-.134,0-.659,0-1.318,0-1.976v-.221l.027-.013c.028.025.057.05.083.077.2.2.391.409.589.61q.785.792,1.576,1.579a.283.283,0,0,0,.175.072c.237.008.576,0,.814,0,.031,0-.029,0,0-.007" transform="translate(-1079.11 -454.18)" fill="#2e2e2e"/>
    <path id="Trazado_126" data-name="Trazado 126" d="M.733,464.922l.057-.037a.56.56,0,0,0,.067.108Q1.925,466.078,3,467.16a.236.236,0,0,0,.145.067c.251.007.5,0,.754,0,.067,0,.094-.02.093-.092q0-1.509,0-3.018c0-.072-.023-.1-.1-.1-.163,0-.326.008-.489,0-.107-.006-.14.025-.139.135,0,.691,0,1.381,0,2.072v.12l-.057.038a.317.317,0,0,0-.044-.1Q2.092,465.2,1.014,464.1a.247.247,0,0,0-.2-.081c-.2,0-.4,0-.6,0-.218,0-.219,0-.219.224q0,1.44,0,2.88c0,.078.02.108.1.105.166,0,.333-.009.5,0,.111.006.137-.033.136-.138,0-.687,0-1.374,0-2.061v-.112" transform="translate(0 -454.158)" fill="#2e2e2e"/>
    <path id="Trazado_127" data-name="Trazado 127" d="M839.061,464.085a.154.154,0,0,0-.108-.062c-.209-.006-.418-.006-.626,0a.178.178,0,0,0-.125.071c-.252.4-.5.8-.746,1.195q-.528.844-1.058,1.687c-.046.073-.085.151-.142.253.3,0,.571,0,.839,0,.026,0,.059-.035.076-.061.093-.142.178-.288.274-.428a.167.167,0,0,1,.117-.066q1.068-.006,2.135,0a.208.208,0,0,1,.138.087c.089.127.162.266.251.392a.2.2,0,0,0,.135.077c.226.008.453,0,.68,0,.1,0,.106-.022.054-.106l-.465-.747q-.714-1.147-1.43-2.292m-1.206,1.954.779-1.254.778,1.254Z" transform="translate(-818.481 -454.155)" fill="#2e2e2e"/>
    <path id="Trazado_128" data-name="Trazado 128" d="M259.968,467.266c.17,0,.34-.007.51,0,.1,0,.127-.027.126-.126,0-.492,0-.984,0-1.476s0-1,0-1.5c0-.079-.018-.116-.106-.113-.173.005-.347,0-.52,0-.071,0-.1.019-.1.1q0,1.514,0,3.027c0,.071.027.092.094.091" transform="translate(-254.35 -454.189)" fill="#2e2e2e"/>
  </g>
</svg>
