<svg id="Grupo_255" data-name="Grupo 255" xmlns="http://www.w3.org/2000/svg" xmlns:xlink="http://www.w3.org/1999/xlink" width="13.188" height="22" viewBox="0 0 13.188 22">
  <defs>
    <clipPath id="clip-path">
      <rect id="Rectángulo_145" data-name="Rectángulo 145" width="13.188" height="22" fill="#fff"/>
    </clipPath>
  </defs>
  <g id="Grupo_218" data-name="Grupo 218" clip-path="url(#clip-path)">
    <path id="Trazado_92" data-name="Trazado 92" d="M11.236,0a2.8,2.8,0,0,1,1.094.508,2.221,2.221,0,0,1,.847,1.666c0,.093.008.186.008.279q0,8.549,0,17.1a2.374,2.374,0,0,1-.555,1.646,2.2,2.2,0,0,1-1.711.8q-2.932,0-5.865,0c-.917,0-1.833,0-2.75,0a2.268,2.268,0,0,1-2.3-2.169C.006,19.738,0,19.645,0,19.552Q0,11,0,2.454A2.4,2.4,0,0,1,.566.791,2.306,2.306,0,0,1,1.815.047c.047-.011.092-.03.138-.046ZM1.492,16.647H11.7V4.467H1.492Zm-.018,1.492c0,.45,0,.878,0,1.307a2.351,2.351,0,0,0,.018.449.833.833,0,0,0,.914.644h8.226c.093,0,.187,0,.279,0a.809.809,0,0,0,.8-.857c0-.322,0-.644,0-.966v-.574Zm0-15.178h10.23c0-.272.018-.53,0-.785a.826.826,0,0,0-.921-.71q-4.19,0-8.38,0a1.487,1.487,0,0,0-.319.034.775.775,0,0,0-.6.676c-.018.255,0,.513,0,.785" transform="translate(0 -0.001)" fill="#fff"/>
    <path id="Trazado_93" data-name="Trazado 93" d="M48.508,150.934a.748.748,0,1,1-.74.758.749.749,0,0,1,.74-.758" transform="translate(-41.918 -132.453)" fill="#fff"/>
  </g>
</svg>
