<svg id="Grupo_292" data-name="Grupo 292" xmlns="http://www.w3.org/2000/svg" xmlns:xlink="http://www.w3.org/1999/xlink" width="10" height="7.87" viewBox="0 0 10 7.87">
  <defs>
    <clipPath id="clip-path">
      <rect id="Rectángulo_148" data-name="Rectángulo 148" width="10" height="7.869" fill="#b2092a"/>
    </clipPath>
  </defs>
  <g id="Grupo_224" data-name="Grupo 224" clip-path="url(#clip-path)">
    <path id="Trazado_99" data-name="Trazado 99" d="M10,1.725c-.023.09-.043.181-.07.27a1.587,1.587,0,0,1-.413.664Q7.156,5.02,4.794,7.38a1.538,1.538,0,0,1-2.254,0Q1.511,6.348.483,5.319A1.564,1.564,0,0,1,0,4.117a1.543,1.543,0,0,1,2.655-.985q.467.465.932.932c.025.025.051.048.1.1a.666.666,0,0,1,.073-.11Q5.541,2.273,7.319.5A1.587,1.587,0,0,1,8.6,0,1.552,1.552,0,0,1,9.979,1.281.524.524,0,0,0,10,1.354Zm-6.323,5.1a.546.546,0,0,0,.405-.2q2.34-2.342,4.681-4.683c.03-.03.059-.061.086-.093A.5.5,0,0,0,8.7,1.1a.51.51,0,0,0-.644.127L4.088,5.2a.529.529,0,0,1-.835,0c-.447-.446-.892-.894-1.34-1.339a.5.5,0,0,0-.725-.021.5.5,0,0,0,.007.725Q2.242,5.619,3.3,6.668a.491.491,0,0,0,.377.158" transform="translate(0.001 0)" fill="#b2092a"/>
  </g>
</svg>
