<svg id="Grupo_227" data-name="Grupo 227" xmlns="http://www.w3.org/2000/svg" xmlns:xlink="http://www.w3.org/1999/xlink" width="20" height="19.989" viewBox="0 0 20 19.989">
  <defs>
    <clipPath id="clip-path">
      <rect id="Rectángulo_149" data-name="Rectángulo 149" width="20" height="19.989" fill="#d2d2d2"/>
    </clipPath>
  </defs>
  <g id="Grupo_226" data-name="Grupo 226" clip-path="url(#clip-path)">
    <path id="Trazado_100" data-name="Trazado 100" d="M0,10.655V9.328c.031-.237.058-.474.093-.71A9.662,9.662,0,0,1,2.458,3.445,9.731,9.731,0,0,1,11.365.1a9.565,9.565,0,0,1,6.482,3.716A9.723,9.723,0,0,1,19.9,11.368a9.619,9.619,0,0,1-2.4,5.219,9.862,9.862,0,0,1-6,3.287c-.281.045-.563.078-.845.116H9.336c-.236-.03-.473-.057-.709-.091A10.038,10.038,0,0,1,.114,11.479C.072,11.205.038,10.93,0,10.655M10.013,2.1a7.892,7.892,0,1,0,7.88,7.915A7.923,7.923,0,0,0,10.013,2.1" transform="translate(0 -0.001)" fill="#d2d2d2"/>
    <path id="Trazado_101" data-name="Trazado 101" d="M47.39,35.9h.26c1.257,0,2.513,0,3.769,0a1.05,1.05,0,0,1,.274,2.076,1.723,1.723,0,0,1-.33.029c-1.634,0-3.268-.009-4.9.006a1.118,1.118,0,0,1-1.186-1.174c.021-1.477,0-2.955.008-4.432a1.054,1.054,0,1,1,2.1-.007c0,1.081,0,2.161,0,3.241V35.9" transform="translate(-37.316 -25.791)" fill="#d2d2d2"/>
  </g>
</svg>
