<svg id="Grupo_271" data-name="Grupo 271" xmlns="http://www.w3.org/2000/svg" xmlns:xlink="http://www.w3.org/1999/xlink" width="22" height="18.564" viewBox="0 0 22 18.564">
  <defs>
    <clipPath id="clip-path">
      <rect id="Rectángulo_151" data-name="Rectángulo 151" width="22" height="18.564" fill="#d2d2d2"/>
    </clipPath>
  </defs>
  <g id="Grupo_230" data-name="Grupo 230" transform="translate(0 0)" clip-path="url(#clip-path)">
    <path id="Trazado_103" data-name="Trazado 103" d="M22,2.666V15.9a.429.429,0,0,0-.041.095,3.017,3.017,0,0,1-2.987,2.565q-7.978.008-15.957,0A3.014,3.014,0,0,1,.006,15.554q-.012-6.271,0-12.542A3.014,3.014,0,0,1,3.015.007Q11,0,18.993.011a2.879,2.879,0,0,1,2.7,1.728A6.566,6.566,0,0,1,22,2.666M1.971,5.689v.232q0,4.747,0,9.494A1.079,1.079,0,0,0,3.159,16.6c5.226,0,10.453-.005,15.68.008a1.158,1.158,0,0,0,1.2-1.208c-.018-3.157-.008-6.315-.008-9.472,0-.076-.007-.152-.01-.235ZM1.952,3.7h18.06A5.8,5.8,0,0,0,20,2.83a1.1,1.1,0,0,0-1.185-.865Q11,1.981,3.184,1.971c-.057,0-.114,0-.172,0a1.02,1.02,0,0,0-.988.775,6.511,6.511,0,0,0-.072.948" transform="translate(0 0)" fill="#d2d2d2"/>
    <path id="Trazado_104" data-name="Trazado 104" d="M35.126,49.437q0-1.267,0-2.535a.983.983,0,0,1,1.06-1.077q1.3-.007,2.6,0a.982.982,0,0,1,1.058,1.06q0,2.567,0,5.134a.99.99,0,0,1-1.074,1.067q-1.3,0-2.6,0a.981.981,0,0,1-1.045-1.051c0-.866,0-1.733,0-2.6m2.738-1.631h-.753v3.3h.753Z" transform="translate(-29.365 -38.306)" fill="#d2d2d2"/>
    <path id="Trazado_105" data-name="Trazado 105" d="M71.408,50.807c-.583,0-1.139,0-1.7,0a.988.988,0,0,1-1.026-.772,1.006,1.006,0,0,1-.027-.233c0-.995,0-1.99,0-2.985a.97.97,0,0,1,.683-.94.919.919,0,0,1,1.066.34,1.441,1.441,0,0,1,.209.678c.028.636.01,1.273.01,1.928h.781V48.6c0-.58,0-1.16,0-1.739a.984.984,0,1,1,1.966-.017q.007,2.62,0,5.24a.943.943,0,0,1-.608.928.93.93,0,0,1-1.037-.183.957.957,0,0,1-.32-.745c0-.415,0-.829,0-1.279" transform="translate(-57.397 -38.31)" fill="#d2d2d2"/>
  </g>
</svg>
