<svg xmlns="http://www.w3.org/2000/svg" xmlns:xlink="http://www.w3.org/1999/xlink" width="42" height="41.696" viewBox="0 0 42 41.696">
  <defs>
    <clipPath id="clip-path">
      <rect id="Rectángulo_188" data-name="Rectángulo 188" width="42" height="41.696" fill="#fff"/>
    </clipPath>
  </defs>
  <g id="Grupo_311" data-name="Grupo 311" clip-path="url(#clip-path)">
    <path id="Trazado_162" data-name="Trazado 162" d="M15.892,18.874c-1.542-1.522-3.059-3.027-4.593-4.513a.63.63,0,0,0-.506-.06,4.39,4.39,0,0,1-4.018-.769,3.059,3.059,0,0,1-.662-.726Q3.636,9.045,1.182,5.268C.745,4.6.775,4.332,1.348,3.759Q2.839,2.267,4.331.776A.864.864,0,0,1,5.646.638c2.575,1.673,5.176,3.308,7.712,5.039a3.947,3.947,0,0,1,1.584,3.857,1.017,1.017,0,0,1-.072.4c-.331.586-.008.931.392,1.319,1.395,1.353,2.761,2.735,4.177,4.145.4-.409.795-.825,1.2-1.233,1.255-1.26,2.5-2.53,3.779-3.767a1.516,1.516,0,0,0,.4-.992c.227-1.622.41-3.252.7-4.862a3.277,3.277,0,0,1,.749-1.394A8.273,8.273,0,0,1,29.769.881a9.99,9.99,0,0,1,6.259-.62,7.028,7.028,0,0,1,1.492.58.821.821,0,0,1,.026,1.528C36.382,3.1,35.214,3.831,34.06,4.58a3.443,3.443,0,0,0-.7.631,1.651,1.651,0,0,0-.312,1.7,4.5,4.5,0,0,0,1.419,2.094,2.165,2.165,0,0,0,2.67.176c1.042-.619,2.082-1.24,3.126-1.853.743-.437,1.354-.092,1.37.765a.688.688,0,0,0,0,.083,4.479,4.479,0,0,1-1.287,3.939c-1.011,1.068-1.9,2.252-2.856,3.374a2.275,2.275,0,0,1-1.917.839c-1.417-.033-2.837.054-4.256.108a.759.759,0,0,0-.468.191q-2.492,2.48-4.962,4.982a.612.612,0,0,0-.071.093l2.159,2.178c.528-.53,1.089-1.094,1.652-1.655a.887.887,0,0,1,1.488.007q4.648,4.652,9.292,9.308a5.638,5.638,0,0,1,.1,7.749,6.3,6.3,0,0,1-3.334,2.093,5.309,5.309,0,0,1-5.045-1.37c-3.206-3.129-6.352-6.321-9.518-9.492a.817.817,0,0,1,.015-1.275c.489-.5.993-1,1.489-1.494.1-.1.185-.2.226-.242l-2.114-2.221c-.11.1-.2.18-.29.265-1.76,1.75-3.523,3.5-5.27,5.259a1.037,1.037,0,0,0-.272.637c-.051,1.557-.078,3.115-.1,4.673a1.58,1.58,0,0,1-.594,1.14c-.75.71-1.513,1.409-2.311,2.064-.883.726-1.8,1.412-2.725,2.083a1.59,1.59,0,0,1-.8.263c-.59.039-1.185.016-1.777.011-.876-.008-1.228-.638-.779-1.4.636-1.08,1.261-2.166,1.925-3.229a1.889,1.889,0,0,0,.16-1.816A3.741,3.741,0,0,0,6.56,33.023a1.826,1.826,0,0,0-1.938.99c-.752,1.136-1.475,2.292-2.2,3.449-.206.331-.409.621-.852.608a.946.946,0,0,1-.826-.65,7.535,7.535,0,0,1-.716-4.1,12.177,12.177,0,0,1,2.059-5.854c.069-.1.147-.2.222-.3A4.153,4.153,0,0,1,5.47,25.388c1.438-.112,2.864-.375,4.292-.588a.882.882,0,0,0,.464-.225q2.76-2.739,5.5-5.5c.037-.038.067-.083.163-.206m3.662,3.819a2.167,2.167,0,0,1-.243.355q-2.64,2.652-5.288,5.295a3.336,3.336,0,0,1-.333.309.811.811,0,0,1-1.131-1.144,3.075,3.075,0,0,1,.282-.3q2.658-2.663,5.32-5.322a1.568,1.568,0,0,1,.315-.209l-1.536-1.532c-.067.079-.156.2-.263.31-1.819,1.826-3.635,3.655-5.467,5.467a1.541,1.541,0,0,1-.763.435c-1.425.232-2.856.428-4.288.61a3.121,3.121,0,0,0-2.466,1.088,10.05,10.05,0,0,0-2.02,6.893,1.542,1.542,0,0,0,.087.293c.561-.814,1.077-1.61,1.64-2.371a3.451,3.451,0,0,1,4.286-1.219,7.4,7.4,0,0,1,1.921,1.179,3.866,3.866,0,0,1,.843,5.374c-.355.6-.706,1.2-1.117,1.9.264-.061.455-.05.564-.138q2.283-1.841,4.537-3.715a.807.807,0,0,0,.194-.539q.1-2.416.157-4.834a1.306,1.306,0,0,1,.435-.939q2.754-2.742,5.49-5.5c.1-.1.2-.214.291-.307l-1.445-1.431m4.714,7.218c1.224,1.214,2.421,2.393,3.609,3.58q2.558,2.556,5.105,5.124a4.014,4.014,0,0,0,3.192,1.269,4.3,4.3,0,0,0,2.9-1.474,4.012,4.012,0,0,0-.023-5.919q-4.188-4.2-8.385-8.39c-.094-.094-.195-.18-.324-.3C29.162,25,28,26.17,26.834,27.341c-.835.839-1.672,1.675-2.566,2.57M40.011,9.53l-.091-.06c-.706.416-1.424.815-2.116,1.254a3.316,3.316,0,0,1-2.7.379,5.113,5.113,0,0,1-3.483-3.312,3.473,3.473,0,0,1,1.225-4.358c.684-.509,1.41-.96,2.117-1.44.082-.055.157-.12.281-.215a7.8,7.8,0,0,0-3.255.121A10.211,10.211,0,0,0,28.02,3.747a2.143,2.143,0,0,0-.942,1.4c-.189,1.446-.44,2.885-.593,4.335a3.4,3.4,0,0,1-1.094,2.295c-1.54,1.439-3,2.968-4.493,4.454a1.544,1.544,0,0,1-.355.213l1.6,1.606a2.032,2.032,0,0,1,.251-.393q2.39-2.405,4.793-4.8a2.852,2.852,0,0,1,.3-.281.809.809,0,0,1,1.144,1.12,2.928,2.928,0,0,1-.306.335L23.52,18.868c-.1.1-.2.211-.237.25l1.4,1.4c.052-.062.133-.174.23-.271,1.67-1.663,3.345-3.321,5.009-4.991a1.286,1.286,0,0,1,.908-.417c1.57-.052,3.139-.126,4.709-.15a1,1,0,0,0,.856-.367c1.15-1.426,2.311-2.843,3.453-4.275a1.513,1.513,0,0,0,.158-.513M5.21,2.31,2.8,4.72a1.715,1.715,0,0,0,.082.152q2.3,3.53,4.6,7.057a1.323,1.323,0,0,0,.242.278,2.753,2.753,0,0,0,3.532,0,15.29,15.29,0,0,0,1.4-1.4A2.648,2.648,0,0,0,12.1,6.816a4.977,4.977,0,0,1-.589-.381L5.21,2.31m7.408,10.927L25.561,26.187l1.1-1.1L13.718,12.125l-1.1,1.113" transform="translate(0 0)" fill="#fff"/>
    <path id="Trazado_163" data-name="Trazado 163" d="M266.389,261.175c-.2.271-.322.575-.539.683a1.444,1.444,0,0,1-.808.008c-.128-.021-.239-.176-.345-.282q-3.319-3.317-6.635-6.638a2.026,2.026,0,0,1-.272-.309.812.812,0,0,1,1.162-1.1,2.222,2.222,0,0,1,.242.224q3.336,3.33,6.666,6.665a5.814,5.814,0,0,1,.529.746" transform="translate(-229.183 -225.378)" fill="#fff"/>
  </g>
</svg>
