<svg xmlns="http://www.w3.org/2000/svg" width="11.067" height="9.041" viewBox="0 0 11.067 9.041">
  <path id="Trazado_25" data-name="Trazado 25" d="M382.924,201.959a4.643,4.643,0,0,0,3.321-.934,2.353,2.353,0,0,1-2.12-1.6,2.453,2.453,0,0,0,.992-.032,2.344,2.344,0,0,1-1.794-2.272,2.42,2.42,0,0,0,1,.277,2.335,2.335,0,0,1-.671-3.048,6.5,6.5,0,0,0,4.685,2.394c-.006-.234-.03-.457-.015-.678a2.164,2.164,0,0,1,1.032-1.752,2.246,2.246,0,0,1,2.83.286.154.154,0,0,0,.161.044,4.728,4.728,0,0,0,1.353-.533,2.35,2.35,0,0,1-.939,1.24,5.369,5.369,0,0,0,1.231-.3c-.083.111-.162.224-.249.331a4.783,4.783,0,0,1-.795.767.2.2,0,0,0-.068.141,6.62,6.62,0,0,1-2.086,5,5.952,5.952,0,0,1-3.15,1.58,6.767,6.767,0,0,1-2.2.041,6.3,6.3,0,0,1-2.5-.926s0-.006-.016-.024" transform="translate(-382.924 -193.94)" fill="#d2d2d2"/>
</svg>
