<svg id="Grupo_221" data-name="Grupo 221" xmlns="http://www.w3.org/2000/svg" xmlns:xlink="http://www.w3.org/1999/xlink" width="14.341" height="20" viewBox="0 0 14.341 20">
  <defs>
    <clipPath id="clip-path">
      <rect id="Rectángulo_146" data-name="Rectángulo 146" width="14.341" height="20" fill="#d2d2d2"/>
    </clipPath>
  </defs>
  <g id="Grupo_220" data-name="Grupo 220" clip-path="url(#clip-path)">
    <path id="Trazado_94" data-name="Trazado 94" d="M7.627,0c.211.029.424.051.634.09A7.007,7.007,0,0,1,13.868,4.7,6.871,6.871,0,0,1,13.5,10.5c-1.4,2.728-2.818,5.447-4.233,8.168a2.338,2.338,0,0,1-4.211.014q-2.2-4.248-4.4-8.5A6.477,6.477,0,0,1,0,7,7.161,7.161,0,0,1,3.258,1.162,6.977,6.977,0,0,1,5.615.171C5.969.093,6.331.055,6.69,0ZM7.414,1.6A5.727,5.727,0,0,0,3.959,2.625,5.408,5.408,0,0,0,1.673,6.318,5.182,5.182,0,0,0,2.14,9.563Q4.3,13.736,6.461,17.907a.745.745,0,0,0,1.394,0Q9.96,13.84,12.072,9.774A5.577,5.577,0,0,0,7.414,1.6" transform="translate(0 0.001)" fill="#d2d2d2"/>
    <path id="Trazado_95" data-name="Trazado 95" d="M29.923,25.654a4.31,4.31,0,1,1-4.3-4.312,4.326,4.326,0,0,1,4.3,4.312m-7.013-.012a2.7,2.7,0,1,0,2.712-2.7,2.709,2.709,0,0,0-2.712,2.7" transform="translate(-18.454 -18.488)" fill="#d2d2d2"/>
  </g>
</svg>
