<svg id="Grupo_250" data-name="Grupo 250" xmlns="http://www.w3.org/2000/svg" xmlns:xlink="http://www.w3.org/1999/xlink" width="19.998" height="20" viewBox="0 0 19.998 20">
  <defs>
    <clipPath id="clip-path">
      <rect id="Rectángulo_144" data-name="Rectángulo 144" width="19.998" height="20" fill="#686868"/>
    </clipPath>
  </defs>
  <g id="Grupo_216" data-name="Grupo 216" clip-path="url(#clip-path)">
    <path id="Trazado_87" data-name="Trazado 87" d="M20,9.326v1.483c-.013.063-.029.126-.039.189-.049.327-.078.658-.146.981a9.774,9.774,0,0,1-3.3,5.558,9.638,9.638,0,0,1-9.287,2.05A9.62,9.62,0,0,1,2.1,16.054,9.638,9.638,0,0,1,.251,7.8a9.741,9.741,0,0,1,3.5-5.57A9.6,9.6,0,0,1,8.193.149c.317-.058.638-.1.957-.149h1.522c.128.016.256.034.384.048a9.787,9.787,0,0,1,5.013,2,9.824,9.824,0,0,1,3.776,6.2c.064.356.1.717.154,1.075M10.015,1.172a8.817,8.817,0,1,0,8.811,8.843,8.83,8.83,0,0,0-8.811-8.843" transform="translate(0)" fill="#686868"/>
    <path id="Trazado_88" data-name="Trazado 88" d="M52.574,60.216a7.648,7.648,0,1,1,7.65-7.649,7.764,7.764,0,0,1-7.65,7.649m.862-1.208a4.916,4.916,0,0,1,5.541-5.584A.354.354,0,0,0,59,53.338c0-.493.011-.986,0-1.479a.253.253,0,0,0-.133-.166c-.369-.191-.736-.387-1.116-.551a12.265,12.265,0,0,0-7.645-.877,13.977,13.977,0,0,0-3.8,1.41.336.336,0,0,0-.17.2,8.893,8.893,0,0,0-.039.914c0,.21.034.42.052.635a4.916,4.916,0,0,1,5.558,5.582ZM58.6,50.223A6.5,6.5,0,0,0,52.314,46.1a6.424,6.424,0,0,0-5.743,4.115,13.692,13.692,0,0,1,12.029.008M54.584,58.7a6.344,6.344,0,0,0,4.12-4.122,3.732,3.732,0,0,0-4.12,4.122m-4.021.03a3.671,3.671,0,0,0-1.177-3.186,3.618,3.618,0,0,0-2.97-.955,6.6,6.6,0,0,0,4.147,4.141" transform="translate(-42.567 -42.579)" fill="#686868"/>
    <path id="Trazado_89" data-name="Trazado 89" d="M158.322,166.45a1.755,1.755,0,1,1,1.759,1.756,1.751,1.751,0,0,1-1.759-1.756m1.753.586a.585.585,0,1,0-.583-.587.6.6,0,0,0,.583.587" transform="translate(-150.069 -156.11)" fill="#686868"/>
    <path id="Trazado_90" data-name="Trazado 90" d="M118.323,174.265a.584.584,0,1,1-.571-.588.579.579,0,0,1,.571.588" transform="translate(-111.047 -164.623)" fill="#686868"/>
    <path id="Trazado_91" data-name="Trazado 91" d="M244.988,173.679a.584.584,0,1,1-.584.574.581.581,0,0,1,.584-.574" transform="translate(-231.662 -164.625)" fill="#686868"/>
  </g>
</svg>
