<svg xmlns="http://www.w3.org/2000/svg" xmlns:xlink="http://www.w3.org/1999/xlink" width="18.036" height="21.129" viewBox="0 0 18.036 21.129">
  <defs>
    <clipPath id="clip-path">
      <rect id="Rectángulo_222" data-name="Rectángulo 222" width="18.036" height="21.129" fill="#686868"/>
    </clipPath>
  </defs>
  <g id="Grupo_325" data-name="Grupo 325" clip-path="url(#clip-path)">
    <path id="Trazado_173" data-name="Trazado 173" d="M17.256,14.779c-.373-.219-.75-.435-1.075-.619a1.456,1.456,0,0,0-2.113.561c-.465.8-.879,1.521-1.267,2.2a.193.193,0,0,1-.023.034.151.151,0,0,1-.045,0c-.767,0-1.546,0-2.3,0H9.561V4.222h2.534l-.061.109a1.454,1.454,0,0,0,.538,2c.338.2.711.417,1.173.675a1.45,1.45,0,0,0,2.021-.544c.666-1.141,1.338-2.3,2.053-3.555A1.441,1.441,0,0,0,17.271.872c-.332-.2-.672-.389-1-.577L16.177.242a1.457,1.457,0,0,0-2.111.57L13.991.94c-.38.654-.773,1.33-1.149,2-.054.1-.078.109-.181.109-1.812-.007-3.653-.006-5.434-.006H5.914L5.993,2.9A1.455,1.455,0,0,0,5.437.869C5.114.679,4.771.481,4.324.228A1.444,1.444,0,0,0,2.256.779C1.584,1.933.9,3.116.226,4.3A1.435,1.435,0,0,0,.772,6.346c.267.158.539.314.8.466l.271.155a1.466,1.466,0,0,0,2.13-.57l.216-.371c.324-.555.658-1.13.978-1.7.063-.112.092-.13.212-.128.733.01,1.477.009,2.2.007h.793V16.94H5.923l.072-.13a1.448,1.448,0,0,0-.545-2.019c-.328-.2-.688-.4-1.132-.654a1.444,1.444,0,0,0-2.065.562C1.588,15.842.909,17.019.233,18.2a1.444,1.444,0,0,0,.546,2.067c.263.156.533.31.793.46l.262.15A1.461,1.461,0,0,0,3.979,20.3l.193-.331c.342-.587.7-1.194,1.035-1.8.033-.058.034-.065.119-.064,1.869,0,3.77,0,5.608,0h1.17l-.054.1a1.443,1.443,0,0,0,.551,2.049c.4.236.769.45,1.133.654a1.6,1.6,0,0,0,.78.214,1.446,1.446,0,0,0,1.256-.763c.668-1.146,1.356-2.336,2.042-3.536a1.449,1.449,0,0,0-.558-2.051M16.8,16.256c-.589,1.028-1.192,2.071-1.776,3.079l-.261.45a.317.317,0,0,1-.291.176l-.018-.006a1.187,1.187,0,0,1-.174-.073c-.312-.175-.651-.37-1.067-.614-.226-.133-.262-.266-.133-.49.671-1.169,1.349-2.344,2.014-3.493.082-.141.158-.208.259-.208a.493.493,0,0,1,.231.079c.362.2.727.414,1.085.626.222.131.256.255.131.474M13.067,4.884c.676-1.179,1.361-2.367,2.036-3.531.075-.129.151-.191.25-.191a.445.445,0,0,1,.21.069c.384.214.762.432,1.121.647a.28.28,0,0,1,.122.444c-.585,1.022-1.185,2.059-1.764,3.061l-.282.488a.317.317,0,0,1-.291.177l-.017-.006a.892.892,0,0,1-.156-.062c-.342-.192-.7-.4-1.1-.638a.289.289,0,0,1-.125-.459M3.729,1.227c.363.2.73.413,1.121.647a.288.288,0,0,1,.121.461c-.534.931-1.08,1.876-1.608,2.79l-.428.741a.321.321,0,0,1-.293.182l-.017-.006a1.043,1.043,0,0,1-.171-.07C2.139,5.8,1.8,5.6,1.369,5.346a.3.3,0,0,1-.124-.476c.709-1.236,1.372-2.385,2.026-3.512.077-.133.155-.2.254-.2a.432.432,0,0,1,.2.066M4.973,16.245c-.485.846-.981,1.705-1.461,2.536l-.575.995a.328.328,0,0,1-.29.186l-.018-.006a1.034,1.034,0,0,1-.171-.069c-.318-.178-.663-.377-1.085-.626a.3.3,0,0,1-.129-.475c.686-1.2,1.367-2.377,2.025-3.511.078-.135.155-.2.255-.2a.466.466,0,0,1,.219.073c.38.213.751.427,1.1.636.209.124.244.253.126.459" transform="translate(0 -0.001)" fill="#686868"/>
  </g>
</svg>
